<?xml version="1.0" encoding="UTF-8" standalone="no"?>
<!-- Created with Inkscape (http://www.inkscape.org/) -->

<svg
   xmlns:dc="http://purl.org/dc/elements/1.1/"
   xmlns:cc="http://creativecommons.org/ns#"
   xmlns:rdf="http://www.w3.org/1999/02/22-rdf-syntax-ns#"
   xmlns:svg="http://www.w3.org/2000/svg"
   xmlns="http://www.w3.org/2000/svg"
   xmlns:sodipodi="http://sodipodi.sourceforge.net/DTD/sodipodi-0.dtd"
   xmlns:inkscape="http://www.inkscape.org/namespaces/inkscape"
   width="744.09448819"
   height="1052.3622047"
   id="svg2"
   version="1.1"
   inkscape:version="0.48.2 r9819"
   sodipodi:docname="drawing.svg">
  <defs
     id="defs4" />
  <sodipodi:namedview
     id="base"
     pagecolor="#ffffff"
     bordercolor="#666666"
     borderopacity="1.0"
     inkscape:pageopacity="0.0"
     inkscape:pageshadow="2"
     inkscape:zoom="0.5962289"
     inkscape:cx="369.53323"
     inkscape:cy="436.19108"
     inkscape:document-units="px"
     inkscape:current-layer="layer22"
     showgrid="false"
     inkscape:window-width="1440"
     inkscape:window-height="852"
     inkscape:window-x="0"
     inkscape:window-y="0"
     inkscape:window-maximized="1" />
  <metadata
     id="metadata7">
    <rdf:RDF>
      <cc:Work
         rdf:about="">
        <dc:format>image/svg+xml</dc:format>
        <dc:type
           rdf:resource="http://purl.org/dc/dcmitype/StillImage" />
        <dc:title></dc:title>
      </cc:Work>
    </rdf:RDF>
  </metadata>
  <g
     inkscape:groupmode="layer"
     id="layer18"
     inkscape:label="Background"
     sodipodi:insensitive="true"
     style="display:none">
    <path
       style="fill:none;stroke:#000000;stroke-width:1px;stroke-linecap:butt;stroke-linejoin:miter;stroke-opacity:1"
       d="m 55.348919,650.65456 c -11.240655,-3.25139 -18.956642,3.56401 -27.959763,4.85017 -3.06209,0.43744 -6.689004,-0.75283 -9.700326,0 -8.0129308,2.00323 -8.8705577,3.99425 -17.40352629,3.99425"
       id="path6313"
       inkscape:connector-curvature="0" />
    <path
       style="fill:none;stroke:#000000;stroke-width:1px;stroke-linecap:butt;stroke-linejoin:miter;stroke-opacity:1"
       d="m 404.56066,643.23667 c 15.066,0.20293 39.30334,-4.47817 51.92527,0.57061"
       id="path6315"
       inkscape:connector-curvature="0" />
    <path
       style="fill:none;stroke:#000000;stroke-width:1px;stroke-linecap:butt;stroke-linejoin:miter;stroke-opacity:1"
       d="m 469.03929,647.23092 c 40.30932,-1.6264 152.42681,-3.10103 186.01802,13.69458 14.37378,7.18689 35.17184,-14.97301 49.07224,-5.70608 11.72285,7.81524 27.67378,9.12972 42.22494,9.12972"
       id="path6319"
       inkscape:connector-curvature="0" />
    <path
       style="fill:none;stroke:#000000;stroke-width:1px;stroke-linecap:butt;stroke-linejoin:miter;stroke-opacity:1"
       d="m 465.61565,364.20964 c 49.35682,11.05153 68.87882,-17.89179 106.13298,-36.51887 4.30654,-2.15327 169.6792,-16.27761 176.88829,-14.83579"
       id="path6321"
       inkscape:connector-curvature="0" />
    <path
       style="fill:none;stroke:#000000;stroke-width:1px;stroke-linecap:butt;stroke-linejoin:miter;stroke-opacity:1"
       d="m -1.1412148,398.44609 c 12.7173608,-0.11441 27.2195838,2.452 36.5188748,-6.84729 3.327184,-3.32718 3.423644,-18.39993 3.423644,-13.69458 0,14.7391 28.163146,23.82992 39.942519,15.97701 4.397181,-2.93145 2.703749,-13.69458 7.988504,-13.69458 4.838158,0 41.890863,39.3557 58.601913,5.9336 m 266.8407,-0.45504 c 6.21994,0 10.77286,-3.19613 13.49819,-3.19613 22.24041,0 42.8375,8.42785 66.19046,3.42365 8.89121,-1.90526 12.46579,-9.86134 20.54187,-12.55337 25.10062,-8.36687 67.08028,10.52232 85.59111,-7.9885 1.78911,-1.78912 8.58313,2.18305 9.12972,2.28243 6.08486,1.10634 28.76676,-5.01727 29.67158,-4.56486 12.78143,6.39071 32.10863,18.0588 46.78981,12.55336 13.30459,-4.98922 17.44826,-22.4187 29.67158,-28.53037 2.6574,-1.3287 3.60522,4.74644 5.70608,6.84729 6.28594,6.28594 16.07968,7.9885 25.10672,7.9885"
       id="path6323"
       inkscape:connector-curvature="0"
       sodipodi:nodetypes="cssssccsssssssssc" />
    <path
       style="fill:none;stroke:#000000;stroke-width:1px;stroke-linecap:butt;stroke-linejoin:miter;stroke-opacity:1"
       d="m 53.637097,441.81225 c 22.625684,25.66158 69.496063,3.42365 91.297183,3.42365"
       id="path6325"
       inkscape:connector-curvature="0" />
    <path
       style="fill:none;stroke:#000000;stroke-width:1px;stroke-linecap:butt;stroke-linejoin:miter;stroke-opacity:1"
       d="m 10.270933,490.88449 c 12.894241,11.44282 29.505468,17.11822 46.789808,17.11822 7.941889,0 14.982746,-4.71181 20.541867,-10.27093 1.958254,-1.95826 -0.48696,-7.98851 2.28243,-7.98851 2.743139,0 1.87499,6.30932 4.564859,6.84729 8.054414,1.61089 38.931103,-3.55344 41.083733,-5.70607"
       id="path6327"
       inkscape:connector-curvature="0" />
    <path
       style="fill:none;stroke:#000000;stroke-width:1px;stroke-linecap:butt;stroke-linejoin:miter;stroke-opacity:1"
       d="m 456.48593,428.11767 c 13.28736,7.75771 30.57386,18.33909 47.93102,12.55337 2.83614,-0.94538 3.2762,-7.81924 5.70608,-6.84729 35.5276,14.21104 45.4113,10.35003 69.6141,2.28243"
       id="path6329"
       inkscape:connector-curvature="0" />
    <path
       style="fill:none;stroke:#000000;stroke-width:1px;stroke-linecap:butt;stroke-linejoin:miter;stroke-opacity:1"
       d="m 601.42021,434.96496 c 15.56385,9.14356 36.82392,15.11452 54.77831,9.12972 7.55077,-2.51692 5.30656,-8.92996 10.27094,-11.41215 3.90038,-1.95019 19.74003,8.38942 27.38915,4.56486 19.92065,-9.96032 37.63293,-8.21131 59.34317,-12.55336"
       id="path6331"
       inkscape:connector-curvature="0" />
    <path
       style="fill:none;stroke:#000000;stroke-width:1px;stroke-linecap:butt;stroke-linejoin:miter;stroke-opacity:1"
       d="m -7.9885038,557.07495 c 10.4754838,14.3441 31.4653668,15.52409 47.9310228,13.69458 2.076846,-0.23076 8.561344,-6.08499 9.129718,-5.70608 9.253447,6.16897 20.484095,7.61773 31.954015,5.70608 7.593788,-1.26563 25.309878,-16.38331 27.389158,-20.54187"
       id="path6333"
       inkscape:connector-curvature="0" />
    <path
       style="fill:none;stroke:#000000;stroke-width:1px;stroke-linecap:butt;stroke-linejoin:miter;stroke-opacity:1"
       d="m 666.46946,589.02896 c 16.81186,13.50663 70.50747,10.36895 74.17896,-7.9885"
       id="path6335"
       inkscape:connector-curvature="0" />
    <path
       style="fill:none;stroke:#000000;stroke-width:1px;stroke-linecap:butt;stroke-linejoin:miter;stroke-opacity:1"
       d="m 594.57292,212.42807 c -5.92506,41.46461 11.41215,85.50178 11.41215,124.39242"
       id="path6337"
       inkscape:connector-curvature="0" />
    <path
       style="fill:none;stroke:#000000;stroke-width:1px;stroke-linecap:butt;stroke-linejoin:miter;stroke-opacity:1"
       d="m 649.35123,316.27862 c 4.68878,-19.16997 -22.30235,-85.59111 9.12972,-85.59111 9.65713,0 20.60614,5.23187 26.24794,13.69458 12.91408,19.37111 6.50951,45.43867 11.41215,65.04924"
       id="path6339"
       inkscape:connector-curvature="0" />
    <path
       style="fill:none;stroke:#000000;stroke-width:1px;stroke-linecap:butt;stroke-linejoin:miter;stroke-opacity:1"
       d="m 594.57292,213.56929 c 40.69542,2.29068 81.60272,-2.28243 122.10999,-2.28243"
       id="path6341"
       inkscape:connector-curvature="0" />
    <path
       style="fill:none;stroke:#000000;stroke-width:1px;stroke-linecap:butt;stroke-linejoin:miter;stroke-opacity:1"
       d="m 528.38246,205.58078 c 1.7888,29.07789 -8.16227,136.94578 10.27094,136.94578"
       id="path6343"
       inkscape:connector-curvature="0" />
    <path
       style="fill:none;stroke:#000000;stroke-width:1px;stroke-linecap:butt;stroke-linejoin:miter;stroke-opacity:1"
       d="m 610.54993,211.28686 c -6.25243,-45.12941 34.74935,-43.36617 70.75532,-43.36617 9.03041,0 24.76641,-3.02319 33.09523,1.14122 5.33134,2.66567 3.28754,32.41473 4.56486,38.8013"
       id="path6345"
       inkscape:connector-curvature="0" />
    <path
       style="fill:none;stroke:#000000;stroke-width:1px;stroke-linecap:butt;stroke-linejoin:miter;stroke-opacity:1"
       d="m 628.80937,169.06191 c 1.99612,-9.95452 -4.74465,-22.04267 -9.12972,-30.8128 -0.45939,-0.91877 -16.59766,-24.13903 -10.27093,-26.24794 15.12186,-5.04062 59.79721,-4.11082 70.75531,6.84729 8.83205,8.83204 9.62055,39.62341 12.55337,51.35466"
       id="path6347"
       inkscape:connector-curvature="0" />
    <path
       style="fill:none;stroke:#000000;stroke-width:1px;stroke-linecap:butt;stroke-linejoin:miter;stroke-opacity:1"
       d="m 604.84386,212.42807 c -5.55402,-17.37504 1.24982,-43.14894 -6.84729,-59.34317 -1.28542,-2.57083 -32.78709,0 -35.37766,0 -5.66889,0 -25.92634,-2.60403 -29.67159,1.14122 -5.11686,5.11685 -2.53981,38.68963 -4.56486,46.7898"
       id="path6349"
       inkscape:connector-curvature="0" />
    <path
       style="fill:none;stroke:#000000;stroke-width:1px;stroke-linecap:butt;stroke-linejoin:miter;stroke-opacity:1"
       d="m 499.85209,142.81397 c 23.82541,10.93776 50.24293,4.06093 75.32018,6.84729 22.37918,2.48657 47.81625,8.90017 31.95402,-22.8243 -3.11595,-6.23188 -15.25845,-30.453518 -20.54187,-33.095229 -18.88554,-9.44277 -67.68302,39.547589 -86.73233,49.072239 z"
       id="path6351"
       inkscape:connector-curvature="0" />
    <path
       style="fill:none;stroke:#ececec;stroke-width:1px;stroke-linecap:butt;stroke-linejoin:miter;stroke-opacity:1"
       d="m 1.1412148,172.48555 c 24.9428312,3.61175 50.3701032,1.32153 74.0769102,-5.76045 11.853404,-3.54099 12.088882,-3.47864 12.088882,-3.47864 m 66.560383,-45.49162 c 3.99012,-4.33166 5.58058,-6.7562 8.97667,-11.49602 6.79219,-9.479625 12.32742,-19.740862 16.33008,-30.644928 8.00532,-21.808131 9.88037,-46.187582 3.42023,-72.0281322"
       id="path6355"
       inkscape:connector-curvature="0"
       sodipodi:nodetypes="csccssc" />
    <path
       sodipodi:type="star"
       style="color:#000000;fill:none;stroke:#000000;stroke-width:0.69648361;stroke-linecap:round;stroke-linejoin:miter;stroke-miterlimit:4;stroke-opacity:1;stroke-dasharray:none;stroke-dashoffset:0;marker:none;visibility:visible;display:inline;overflow:visible;enable-background:accumulate"
       id="path6367"
       sodipodi:sides="5"
       sodipodi:cx="562.6189"
       sodipodi:cy="732.82202"
       sodipodi:r1="34.783661"
       sodipodi:r2="17.391829"
       sodipodi:arg1="0.71574359"
       sodipodi:arg2="1.3440621"
       inkscape:flatsided="false"
       inkscape:rounded="0"
       inkscape:randomized="0"
       d="m 588.86684,755.64632 -22.33832,-5.8776 -17.50576,15.06967 -1.31299,-23.06128 -19.74169,-11.99218 21.52685,-8.37506 5.30472,-22.48125 14.61731,17.88522 23.02019,-1.902 -12.49285,19.42873 z"
       inkscape:transform-center-x="0.29245454"
       inkscape:transform-center-y="2.4804609"
       transform="matrix(1.4001855,-0.31773581,0.31773581,1.4001855,-385.46934,-105.7503)" />
  </g>
  <g
     inkscape:groupmode="layer"
     id="layer22"
     inkscape:label="shadow"
     style="display:inline">
    <path
       style="font-size:72px;font-style:normal;font-variant:normal;font-weight:bold;font-stretch:normal;text-align:center;line-height:100%;letter-spacing:0px;word-spacing:0px;text-anchor:middle;fill:#000000;stroke:none;font-family:Gill Sans Ultra Bold;-inkscape-font-specification:Gill Sans Ultra Bold"
       d="m 106.90625,799.46875 c 0,21.20833 0,42.41667 0,63.625 19.08333,0 38.16667,0 57.25,0 -2.4834,-8.32498 2.24346,-18.00528 -3.40625,-25.4375 -6.02083,0 -12.04167,0 -18.0625,0 0,-13.39583 0,-26.79167 0,-40.1875 -11.92708,0 -23.85417,0 -35.78125,0 l 0,1 0,1 z"
       id="path6890-5"
       inkscape:connector-curvature="0" />
    <path
       style="font-size:72px;font-style:normal;font-variant:normal;font-weight:bold;font-stretch:normal;text-align:center;line-height:100%;letter-spacing:0px;word-spacing:0px;text-anchor:middle;fill:#000000;stroke:none;font-family:Gill Sans Ultra Bold;-inkscape-font-specification:Gill Sans Ultra Bold"
       d="M 181.59375,807.9375 C 163.93038,807.22678 150.15436,826.66791 155.5,843.25 c 4.30945,16.21056 23.75566,24.31022 39.21875,19.3125 9.04269,-2.26055 18.77752,-9.64405 17.21875,-20.0625 0.59711,-12.38423 -3.67057,-26.88317 -16.0625,-31.84375 -4.4313,-2.07872 -9.39342,-2.93817 -14.28125,-2.71875 z"
       id="path6892-3"
       inkscape:connector-curvature="0" />
    <path
       style="font-size:72px;font-style:normal;font-variant:normal;font-weight:bold;font-stretch:normal;text-align:center;line-height:100%;letter-spacing:0px;word-spacing:0px;text-anchor:middle;fill:#000000;stroke:none;font-family:Gill Sans Ultra Bold;-inkscape-font-specification:Gill Sans Ultra Bold"
       d="m 233.5625,807.875 c -17.61489,-1.08201 -32.60799,17.65077 -27.8125,34.59375 3.77484,18.03709 26.72111,26.69727 42.53125,18.375 14.06774,-6.75837 19.8837,-25.98884 11.625,-39.1875 -5.32701,-8.97113 -15.90336,-14.4512 -26.34375,-13.78125 z"
       id="path6894-2"
       inkscape:connector-curvature="0" />
    <path
       style="font-size:72px;font-style:normal;font-variant:normal;font-weight:bold;font-stretch:normal;text-align:center;line-height:100%;letter-spacing:0px;word-spacing:0px;text-anchor:middle;fill:#000000;stroke:none;font-family:Gill Sans Ultra Bold;-inkscape-font-specification:Gill Sans Ultra Bold"
       d="m 266.875,808.375 c -6.02925,0.0793 -11.02465,5.87977 -9.11114,11.899 1.08955,14.25331 -0.0552,28.54942 0.42364,42.81975 20.82292,0 41.64583,0 62.46875,0 -2.27787,-15.43631 3.57159,-32.39571 -4.25,-46.65625 -6.05952,-8.33916 -18.02862,-9.86443 -27.0625,-6.1875 -6.28937,-4.11535 -14.03508,0.32727 -20.84375,-1.90625 -0.54166,0.01 -1.08479,-0.0252 -1.625,0.0312 z"
       id="path6896-3"
       inkscape:connector-curvature="0" />
    <path
       style="font-size:72px;font-style:normal;font-variant:normal;font-weight:bold;font-stretch:normal;text-align:center;line-height:100%;letter-spacing:0px;word-spacing:0px;text-anchor:middle;fill:#000000;stroke:none;font-family:Gill Sans Ultra Bold;-inkscape-font-specification:Gill Sans Ultra Bold"
       d="m 341.15625,808.4375 c -8.71557,0.30279 -17.29912,2.91253 -24.71875,7.46875 -0.1032,10.19299 0.62723,20.38498 -1.25,30.3125 -0.33238,12.33938 14.17082,21.27742 25.125,15.90625 8.81136,2.48368 18.84828,0.27513 28.1867,0.94622 5.25352,1.42117 1.31312,-5.57818 2.2508,-8.63372 -0.0292,-13.08943 3.33881,-29.17044 -6.78125,-39.53125 -6.15142,-5.52902 -14.79735,-6.76531 -22.8125,-6.46875 z"
       id="path6898-7"
       inkscape:connector-curvature="0" />
    <path
       style="font-size:72px;font-style:normal;font-variant:normal;font-weight:bold;font-stretch:normal;text-align:center;line-height:100%;letter-spacing:0px;word-spacing:0px;text-anchor:middle;fill:#000000;stroke:none;font-family:Gill Sans Ultra Bold;-inkscape-font-specification:Gill Sans Ultra Bold"
       d="m 391.1875,799.46875 c 0,21.20833 0,42.41667 0,63.625 11.23958,0 22.47917,0 33.71875,0 0,-21.875 0,-43.75 0,-65.625 -11.23958,0 -22.47917,0 -33.71875,0 l 0,1 0,1 z"
       id="path6900-4"
       inkscape:connector-curvature="0" />
    <path
       style="font-size:72px;font-style:normal;font-variant:normal;font-weight:bold;font-stretch:normal;text-align:center;line-height:100%;letter-spacing:0px;word-spacing:0px;text-anchor:middle;fill:#000000;stroke:none;font-family:Gill Sans Ultra Bold;-inkscape-font-specification:Gill Sans Ultra Bold"
       d="m 448.78125,807.84375 c -17.46558,-1.21533 -32.66828,16.75571 -28.53125,33.6875 3.17609,17.83181 25.00147,27.35534 41.03125,20.0625 13.54836,-5.4375 20.71008,-21.91879 15.46875,-35.5 -4.1155,-11.27871 -16.03662,-18.88348 -27.96875,-18.25 z"
       id="path6902-9"
       inkscape:connector-curvature="0" />
    <path
       style="font-size:72px;font-style:normal;font-variant:normal;font-weight:bold;font-stretch:normal;text-align:center;line-height:100%;letter-spacing:0px;word-spacing:0px;text-anchor:middle;fill:#000000;stroke:none;font-family:Gill Sans Ultra Bold;-inkscape-font-specification:Gill Sans Ultra Bold"
       d="m 462.84375,811.53125 c 7.48466,17.17522 14.93551,34.37657 22.40625,51.5625 7.97917,0 15.95833,0 23.9375,0 7.89897,-18.09359 15.75258,-36.20725 23.625,-54.3125 -11.72917,0 -23.45833,0 -35.1875,0 -0.18185,3.7184 -3.20365,-0.99279 -5.46875,-0.0312 -10.17392,0.0471 -20.3701,0.14482 -30.5625,-0.0937 0.41667,0.95833 0.83333,1.91667 1.25,2.875 z"
       id="path6904-2"
       inkscape:connector-curvature="0" />
    <path
       style="font-size:72px;font-style:normal;font-variant:normal;font-weight:bold;font-stretch:normal;text-align:center;line-height:100%;letter-spacing:0px;word-spacing:0px;text-anchor:middle;fill:#000000;stroke:none;font-family:Gill Sans Ultra Bold;-inkscape-font-specification:Gill Sans Ultra Bold"
       d="m 543.4375,807.9375 c -17.51531,-0.70688 -31.38708,18.50195 -26.125,35.0625 4.01374,16.06604 23.07427,24.38448 38.34375,19.78125 9.75148,-1.95367 19.78529,-10.0238 18.09375,-21.0625 0.58788,-12.44268 -4.1825,-26.57677 -16.65625,-31.375 -4.29808,-1.814 -8.98008,-2.65324 -13.65625,-2.40625 z"
       id="path6906-2"
       inkscape:connector-curvature="0" />
    <path
       style="font-size:72px;font-style:normal;font-variant:normal;font-weight:bold;font-stretch:normal;text-align:center;line-height:100%;letter-spacing:0px;word-spacing:0px;text-anchor:middle;fill:#000000;stroke:none;font-family:Gill Sans Ultra Bold;-inkscape-font-specification:Gill Sans Ultra Bold"
       d="m 590.46875,807.96875 c -11.508,-0.74482 -25.49929,7.57852 -24.25,20.40625 0.24475,3.65463 1.67768,7.12605 4,9.96875 -2.47584,6.01788 -4.89061,12.06118 -7.40625,18.0625 14.78072,5.98405 33.33344,11.93401 47.9375,2.53125 10.78425,-6.04816 10.1061,-22.37437 1.90625,-29.78125 2.72716,-4.65346 6.23196,-10.04716 4.46875,-15.78125 -8.16411,-4.25111 -17.48522,-5.848 -26.65625,-5.40625 z"
       id="path6908-9"
       inkscape:connector-curvature="0" />
    <path
       style="font-size:72px;font-style:normal;font-variant:normal;font-weight:bold;font-stretch:normal;text-align:center;line-height:100%;letter-spacing:0px;word-spacing:0px;text-anchor:middle;fill:#000000;stroke:none;font-family:Gill Sans Ultra Bold;-inkscape-font-specification:Gill Sans Ultra Bold"
       d="m 126.5,880.375 c -7.58973,-0.19186 -10.69424,8.80096 -8.53125,15 0,13.23958 0,26.47917 0,39.71875 23.35491,0.1657 47.7093,-0.30158 70.24887,0.17257 5.39115,-0.36826 10.56673,-0.32086 15.96988,0.13993 4.90797,-0.0195 5.07366,-5.53356 4.3125,-9.125 -0.44935,-12.814 3.23376,-27.58592 -4.53125,-38.875 -7.68735,-9.15266 -22.28575,-8.27303 -31.46875,-2.5625 -6.61011,-5.6122 -16.44236,-4.80974 -23.9375,-2.875 -6.26428,-3.68079 -13.73696,0.58046 -20.40625,-1.625 l -0.84375,0 -0.0312,0 -0.0312,0 -0.75,0.0312 z"
       id="path6910-5"
       inkscape:connector-curvature="0" />
    <path
       style="font-size:72px;font-style:normal;font-variant:normal;font-weight:bold;font-stretch:normal;text-align:center;line-height:100%;letter-spacing:0px;word-spacing:0px;text-anchor:middle;fill:#000000;stroke:none;font-family:Gill Sans Ultra Bold;-inkscape-font-specification:Gill Sans Ultra Bold"
       d="m 229.90625,879.9375 c -17.47746,-0.7108 -31.29644,18.39714 -26.1875,34.90625 4.06839,16.52847 23.7083,24.68065 39.125,19.75 9.5318,-2.08742 19.08986,-10.17402 17.40625,-20.9375 0.41979,-12.1191 -3.93827,-26.21771 -16.15625,-31.03125 -4.38193,-2.08158 -9.34104,-2.9178 -14.1875,-2.6875 z"
       id="path6912-4"
       inkscape:connector-curvature="0" />
    <path
       style="font-size:72px;font-style:normal;font-variant:normal;font-weight:bold;font-stretch:normal;text-align:center;line-height:100%;letter-spacing:0px;word-spacing:0px;text-anchor:middle;fill:#000000;stroke:none;font-family:Gill Sans Ultra Bold;-inkscape-font-specification:Gill Sans Ultra Bold"
       d="m 292.65625,880.40625 c -3.24095,0.18655 -6.04914,3.31795 -8.90625,0.625 -5.62763,-1.58372 -11.5084,0.94483 -17.21875,-0.5 -5.54992,-0.87463 -13.36411,2.1415 -12.23321,8.93435 1.19418,15.18514 0.0698,30.42183 0.51446,45.62815 11.09375,0 22.1875,0 33.28125,0 1.49127,-7.49753 -0.42939,-15.36862 0.5,-22.90625 10.87674,4.18006 24.30925,-5.66977 22,-17.4375 -0.80127,-8.75084 -9.19464,-15.44764 -17.9375,-14.34375 z"
       id="path6914-6"
       inkscape:connector-curvature="0" />
    <path
       style="font-size:72px;font-style:normal;font-variant:normal;font-weight:bold;font-stretch:normal;text-align:center;line-height:100%;letter-spacing:0px;word-spacing:0px;text-anchor:middle;fill:#000000;stroke:none;font-family:Gill Sans Ultra Bold;-inkscape-font-specification:Gill Sans Ultra Bold"
       d="m 309.875,880.375 c -7.58973,-0.19186 -10.69424,8.80096 -8.53125,15 0,13.23958 0,26.47917 0,39.71875 23.35491,0.1657 47.7093,-0.30158 70.24887,0.17257 5.39115,-0.36826 10.56673,-0.32086 15.96988,0.13993 4.90797,-0.0195 5.07366,-5.53356 4.3125,-9.125 -0.44935,-12.814 3.23376,-27.58592 -4.53125,-38.875 -7.68735,-9.15266 -22.28575,-8.27303 -31.46875,-2.5625 -6.61011,-5.6122 -16.44236,-4.80974 -23.9375,-2.875 -6.26428,-3.68079 -13.73696,0.58046 -20.40625,-1.625 l -0.84375,0 -0.0312,0 -0.0312,0 -0.75,0.0312 z"
       id="path6916-1"
       inkscape:connector-curvature="0" />
    <path
       style="font-size:72px;font-style:normal;font-variant:normal;font-weight:bold;font-stretch:normal;text-align:center;line-height:100%;letter-spacing:0px;word-spacing:0px;text-anchor:middle;fill:#000000;stroke:none;font-family:Gill Sans Ultra Bold;-inkscape-font-specification:Gill Sans Ultra Bold"
       d="m 412.9375,880.4375 c -8.71024,0.29537 -17.29113,2.90013 -24.6875,7.5 -0.50798,9.64584 1.21051,19.63589 -1.1875,28.9375 -1.70904,12.97914 13.9225,22.72686 25.25,17.3125 7.51128,2.77716 15.63966,-0.33548 23.40625,1 3.96269,1.1348 9.0307,-1.93888 7.03125,-6.4375 -0.94134,-13.62039 3.68535,-30.04725 -6.40625,-41.28125 -6.12642,-5.96741 -15.12873,-7.36907 -23.40625,-7.03125 z"
       id="path6918-4"
       inkscape:connector-curvature="0" />
    <path
       style="font-size:72px;font-style:normal;font-variant:normal;font-weight:bold;font-stretch:normal;text-align:center;line-height:100%;letter-spacing:0px;word-spacing:0px;text-anchor:middle;fill:#000000;stroke:none;font-family:Gill Sans Ultra Bold;-inkscape-font-specification:Gill Sans Ultra Bold"
       d="m 459.90625,868.625 c -6.80914,-0.21533 -11.95636,6.68661 -11.59375,13.125 -3.02111,-0.69847 -7.85427,-5.66748 -9.3125,-4.1875 0,19.17708 0,38.35417 0,57.53125 11.25,0 22.5,0 33.75,0 -0.64453,-19.52431 1.11766,-39.26374 -0.84375,-58.65625 -1.94884,-4.69576 -6.7748,-8.20164 -12,-7.8125 z"
       id="path6920-9"
       inkscape:connector-curvature="0" />
    <path
       style="font-size:72px;font-style:normal;font-variant:normal;font-weight:bold;font-stretch:normal;text-align:center;line-height:100%;letter-spacing:0px;word-spacing:0px;text-anchor:middle;fill:#000000;stroke:none;font-family:Gill Sans Ultra Bold;-inkscape-font-specification:Gill Sans Ultra Bold"
       d="m 496.8125,871.46875 c -0.3116,2.90368 -0.10684,6.2095 -0.0625,8.90625 -17.59915,-1.98862 -33.33381,16.58349 -28.375,33.625 3.2589,13.97586 18.21933,22.8154 32.12469,21.06633 10.02032,0.17573 20.04243,-0.13373 30.06281,0.0587 0,-21.88542 0,-43.77083 0,-65.65625 -11.25,0 -22.5,0 -33.75,0 l 0,1 0,1 z"
       id="path6922-3"
       inkscape:connector-curvature="0" />
    <path
       style="font-size:72px;font-style:normal;font-variant:normal;font-weight:bold;font-stretch:normal;text-align:center;line-height:100%;letter-spacing:0px;word-spacing:0px;text-anchor:middle;fill:#000000;stroke:none;font-family:Gill Sans Ultra Bold;-inkscape-font-specification:Gill Sans Ultra Bold"
       d="m 547.34375,879.90625 c -10.91254,0.1095 -23.67272,7.96393 -22.6875,20.15625 0.20348,3.75535 1.61735,7.42017 4.03125,10.3125 -2.48174,6.01977 -4.94125,12.04874 -7.4375,18.0625 15.02259,6.14324 33.87045,11.80338 48.65625,2.21875 10.00772,-6.48124 9.16875,-22.23334 1.1875,-29.53125 2.61144,-4.57806 7.25332,-11.33183 3.5625,-16.15625 -8.36986,-4.34463 -17.95117,-5.34603 -27.3125,-5.0625 z"
       id="path6924-0"
       inkscape:connector-curvature="0" />
    <path
       style="font-size:72px;font-style:normal;font-variant:normal;font-weight:bold;font-stretch:normal;text-align:center;line-height:100%;letter-spacing:0px;word-spacing:0px;text-anchor:middle;fill:#000000;stroke:none;font-family:Gill Sans Ultra Bold;-inkscape-font-specification:Gill Sans Ultra Bold"
       d="m 586.84375,868.625 c -13.58356,0.46687 -20.45683,17.32194 -15.90625,28.875 0.79184,5.21777 4.83624,10.18217 5.4375,14.875 -7.70499,8.86351 -0.0107,25.07259 12,23.75 11.32605,-0.12715 18.28627,-16.20746 9.875,-24.1875 6.64333,-10.93759 11.14616,-26.83931 2,-37.65625 -3.26418,-3.82846 -8.37737,-5.96651 -13.40625,-5.65625 z"
       id="path6926-8"
       inkscape:connector-curvature="0" />
  </g>
  <g
     inkscape:label="Orig"
     inkscape:groupmode="layer"
     id="layer1"
     style="display:inline"
     sodipodi:insensitive="true">
    <path
       style="fill:#ffffff;stroke:#000000;stroke-width:1.28831887px;stroke-linecap:butt;stroke-linejoin:miter;stroke-opacity:1;display:inline"
       d="m 463.9993,636.45894 c 0,0 13.06627,-17.61383 27.72439,-32.7637 14.65813,-15.14986 55.86983,-42.48134 78.31589,-85.34586 22.44604,-42.86453 23.19657,-79.15552 16.41029,-90.04596 -6.7863,-10.89046 -4.27471,-26.69446 -4.27471,-26.69446 0,0 -5.6939,25.5504 -11.38915,36.42646 -5.69527,10.87608 -51.76438,51.15279 -73.54175,78.06346 -21.77736,26.91066 -38.36026,62.24782 -39.02825,85.53883 -0.66797,23.29102 5.78329,34.82123 5.78329,34.82123 z"
       id="path5034"
       inkscape:connector-curvature="0" />
    <path
       style="fill:none;stroke:#999999;stroke-width:0.93947339px;stroke-linecap:butt;stroke-linejoin:miter;stroke-opacity:1;display:inline"
       d="m 464.90746,634.43481 c 0,0 4.57354,-62.88671 37.1603,-97.18855 32.58675,-34.30185 62.88674,-61.17162 68.60372,-72.60558 5.71696,-11.43394 12.00564,-42.8773 12.00564,-42.8773"
       id="path5048"
       inkscape:connector-curvature="0" />
    <path
       style="fill:none;stroke:#999999;stroke-width:0.93947339px;stroke-linecap:butt;stroke-linejoin:miter;stroke-opacity:1;display:inline"
       d="m 466.62254,635.57821 c 0,0 18.29429,-53.73956 35.44522,-70.31878 17.15092,-16.57923 57.16976,-58.31313 64.03013,-70.31878 6.86037,-12.00565 23.43959,-49.16597 23.43959,-49.16597"
       id="path5050"
       inkscape:connector-curvature="0" />
    <path
       style="fill:#ffffff;stroke:#000000;stroke-width:0.93947339px;stroke-linecap:butt;stroke-linejoin:miter;stroke-opacity:1;display:inline"
       d="m 100.29576,269.10781 c 5.99504,37.46886 55.69779,83.45568 49.70278,104.43824 -5.99502,20.98256 -16.18062,28.7435 -23.65625,29.65625 -7.49378,0.91497 -20.5625,-1.1875 -20.5625,-1.1875 0,0 13.48371,14.24627 31.46875,9.75 17.98505,-4.49625 22.46875,-6.75 22.46875,-6.75 0,0 -4.73183,11.43999 -20.46875,14.4375 -15.73692,2.99751 -31.0625,-5.34375 -31.0625,-5.34375 0,0 24.17518,23.09931 51.90214,15.60554 m 27.28672,-28.46404 c 12.59392,-4.72271 46.18876,-12.06503 48.8125,-17.3125 2.35393,-4.70787 0.97882,-12.03596 0.65625,-13.5625 -7.12606,-3.02607 -26.24525,-8.14716 -37.25,-14.75 -11.24066,-6.7444 -21.7256,-14.26433 -29.96875,-31.5 -2.40364,-5.02579 -5.22783,-15.22776 -7.96875,-27.53125 -5.8702,-0.14508 -16.14902,-5.92788 -23.5,-9.9375 -8.24315,-4.49626 -16.50062,-32.22747 -17.25,-42.71875 -0.53379,-7.47301 6.52797,-14.18436 15.25,-17.15625 3.72325,14.96242 16.25,26.90625 16.25,26.90625 0,0 5.97249,-17.98308 10.46875,-35.21875 4.49627,-17.23567 13.47249,-32.97374 17.96875,-38.96875 4.49627,-5.99503 9,-12.75 9,-12.75 0,0 5.2337,-3.00248 23.21875,-6 17.98506,-2.99751 20.99491,-8.22498 52.46875,-15.71875 0,0 3.51436,-0.3072 9.625,-0.34375 3.66639,-0.022 8.25443,0.0627 13.59375,0.34375 14.23816,0.74938 47.20306,8.97996 65.9375,22.46875 16.43935,11.83634 32.90639,68.62529 36.6875,82.375 -2.6227,41.29093 -11.30249,76.32186 -18.6875,85.53125 -8.57671,10.6955 -34.48302,21.81157 -45.71875,28.5 0.61377,-0.35778 1.28593,-0.72273 1.96875,-1.09375 -0.002,2.10339 0.12853,4.83013 0.65625,7.46875 l 1.5625,7.875 c 0,0 24.69509,-8.39975 40.4375,-7.875 11.52226,0.38407 23.0317,4.99534 30.4375,8.875 7.08126,0.6722 17.71875,-9.625 17.71875,-9.625 0,0 -4.65588,1.75087 -10,1 -3.18861,-0.44801 -9.76324,-2.00637 -15.34375,-3.34375 -3.89635,-0.93377 -7.9375,-2.75 -7.9375,-2.75 0,0 14.10561,2.9375 19.09375,2.9375 15.73693,0 24.78125,-6.84375 24.78125,-6.84375 0,0 -10.50084,1.33901 -18.9375,0.1875 -8.43667,-1.1515 -8.46664,-2.67114 -18.0625,-5 0.0377,-0.11453 0.0491,-0.12501 0.0625,-0.15625 0.011,-0.033 0.0348,-0.0317 0.0625,-0.125 8.13016,1.51635 17.23131,4.20661 25.3125,3.65625 11.83916,-0.8063 16.96875,-9 16.96875,-9 0,0 -11.60809,3.02033 -17.15625,2.625 -7.32799,-0.52215 -11.71516,-1.49 -17.1875,-5 -1.69146,-1.08491 -3.35368,-5.30272 -4.03125,-11.90625 -0.67757,-6.60353 6.69239,-40.44871 3.84375,-54.03125 -3.98413,-55.07884 -1.22927,-91.02671 -16.53125,-133 -2.75227,-7.54949 -13.125,-20.21875 -13.125,-20.21875 l -6.15625,-4.6875 c -3.32056,-3.34545 -6.72941,-6.49368 -10.09375,-9.4375 3.03194,0.6698 6.8042,1.59666 11.40625,2.875 13.48879,3.74688 18.69996,23.99367 33.6875,53.96875 14.98754,29.97509 29.96875,66.65625 29.96875,66.65625 0,-14.98754 -24.71875,-85.4375 -24.71875,-85.4375 0,0 6.00374,2.25373 10.5,6.75 4.49626,4.49626 9.75,16.5 9.75,16.5 0,0 -0.005,-15.00811 -5.25,-24.75 -5.24565,-9.74191 -28.46875,-27.71875 -28.46875,-27.71875 0,0 12.72809,-5.25 23.96875,-5.25 11.24066,0 23.25,3.78125 23.25,3.78125 0,0 -3.00871,-6.75311 -13.5,-10.5 -10.49127,-3.74689 -29.21875,-2.25 -29.21875,-2.25 0,0 13.48059,-9.74937 27.71875,-9 14.23817,0.74938 37.46875,3.75 37.46875,3.75 0,0 -37.47362,-17.25 -80.9375,-17.25 -26.0288,0 -41.53053,4.01977 -49.8125,7.25 -9.94768,-3.85196 -20.68696,-7.42745 -24.375,-4.96875 -0.2249,0.14994 -0.43001,0.31397 -0.625,0.5 -12.10747,-2.52028 -24.71057,-4.1965 -32.34375,-5 -1.33483,-0.14051 -2.65478,-0.21535 -3.90625,-0.1875 -12.09754,0.26926 -20.0625,7.65625 -20.0625,7.65625 0,0 -13.51557,-4.49688 -32.25,-0.75 -6.16539,1.23308 -14.52728,5.664 -23.3125,11.625 -11.40315,3.74114 -23.14713,9.0638 -33.01308,13.82868"
       id="path3086"
       inkscape:connector-curvature="0"
       sodipodi:nodetypes="csscscscccscsscssccsscsccsscsccccsccsscscscccscssscscccssccscccscscscscccsscscc" />
    <path
       style="fill:none;stroke:#000000;stroke-width:0.93947339px;stroke-linecap:butt;stroke-linejoin:miter;stroke-opacity:1;display:inline"
       d="m 275.17061,144.69867 c -6.11065,0.0366 -9.62961,0.32295 -9.62961,0.32295 -31.47384,7.49377 -34.47866,12.73866 -52.46371,15.73617 -17.98506,2.99752 -23.22261,5.98915 -23.22261,5.98915 0,0 -4.51681,6.74658 -9.01307,12.74161 -4.49627,5.99501 -13.47117,21.75247 -17.96743,38.98814 -4.49626,17.23567 -10.481,35.20089 -10.481,35.20089 0,0 -12.51203,-11.93 -16.23528,-26.89242 -8.72203,2.97189 -15.80023,9.67238 -15.26644,17.14539 0.74938,10.49128 9.01968,38.22042 17.26283,42.71668 7.35097,4.00962 17.64598,9.80747 23.51619,9.95255 2.74091,12.30349 5.55252,22.51252 7.95616,27.53831 8.24315,17.23567 18.73442,24.72796 29.97508,31.47236 11.24065,6.74439 30.94174,11.97534 37.68614,14.97285 6.74439,2.99752 17.97256,10.48725 27.71446,11.986 9.74191,1.49875 11.6945,0.82002 20.75278,-0.20922 13.19051,-1.49876 29.94066,-10.56226 38.23876,-16.55481 8.76391,-6.32891 39.27123,-18.61892 48.70583,-30.38424 7.385,-9.20938 16.04933,-44.23977 18.67203,-85.5307 -3.78111,-13.74971 -20.22946,-70.54373 -36.66882,-82.38007 -18.73443,-13.48879 -51.70113,-21.73926 -65.93929,-22.48864 -5.33932,-0.28102 -9.92661,-0.3449 -13.593,-0.32295 z"
       id="path3096"
       inkscape:connector-curvature="0"
       sodipodi:nodetypes="scscssccsscssssssscsss" />
    <path
       style="fill:#000000;stroke:none;display:inline"
       d="m 235.56019,244.69397 c 0,0 -2.31209,-2.17724 -18.35974,-1.12407 -17.32941,1.1373 -37.28151,12.55208 -37.28151,12.55208 0,0 16.24529,-6.46432 23.98007,-7.86846 4.514,-0.81946 11.97574,-1.01605 16.48629,-1.12406 2.89175,-0.0692 9.92926,0.37469 15.17489,-2.43549 z"
       id="path3423"
       inkscape:connector-curvature="0"
       sodipodi:nodetypes="cscssc" />
    <path
       style="fill:#000000;stroke:none;display:inline"
       d="m 302.25476,239.44833 c 0,0 13.48878,-7.49377 21.73194,-8.99252 8.24314,-1.49876 20.98255,-1.49876 20.98255,-1.49876 0,0 -7.67312,1.19356 -11.42801,1.6861 -2.36789,0.31061 -7.07224,2.48231 -11.00646,2.73991 -3.93423,0.2576 -10.44445,2.13104 -12.41156,2.88042 -3.50142,1.33387 -7.86846,3.18485 -7.86846,3.18485 z"
       id="path3425"
       inkscape:connector-curvature="0"
       sodipodi:nodetypes="cscsssc" />
    <path
       style="fill:#cccccc;stroke:none;display:inline"
       d="m 244.36537,271.67155 c 0,0 -2.62281,7.68112 -7.49377,13.1141 -4.87095,5.43299 -6.93174,8.61784 -6.93174,8.61784 0,0 2.06079,-1.31141 3.74689,-2.43547 1.68609,-1.12407 1.49875,2.81016 1.49875,4.12157 0,1.31141 0.93672,17.04832 -0.37469,21.91928 -1.31141,4.87095 -5.80767,16.86099 -5.80767,16.86099 0,0 7.49377,-16.67364 7.49377,-24.9168 0,-8.24315 -1.12407,-19.10911 0,-20.98255 1.12406,-1.87345 6.55705,-8.24315 7.86846,-16.29896 z"
       id="path3427"
       inkscape:connector-curvature="0" />
    <path
       style="fill:#cccccc;stroke:none;display:inline"
       d="m 295.875,260.8125 c 0,0 -4.31359,1.31469 -5.625,3.9375 -1.31141,2.62282 -2.21875,5.40796 -2.21875,7.46875 0,2.0608 0.1875,2.4375 0.1875,2.4375 0,0 1.65749,-6.15734 3.15625,-7.46875 0.83726,-0.7326 1.98937,-1.04479 2.875,-1.1875 1.23911,2.88964 1.25,5.28125 1.25,5.28125 0,0 3.19234,2.44311 9,9.1875 5.80768,6.7444 9.1875,31.84375 9.1875,31.84375 0,0 -1.31312,-11.97187 -2.0625,-15.71875 -0.74937,-3.74688 -2.44154,-12.38154 -7.3125,-20.25 -3.18058,-5.13786 -6.81163,-8.63031 -8.96875,-10.46875 0.0392,-9.3e-4 0.15625,0 0.15625,0 l 0.375,-5.0625 z"
       id="path3429"
       inkscape:connector-curvature="0" />
    <path
       style="fill:#cccccc;stroke:none;display:inline"
       d="m 289.70269,248.25352 c 0,0 -12.36473,5.99501 -21.35725,6.3697 -8.99252,0.37469 -18.54709,-2.99751 -18.54709,-2.99751 0,0 8.61784,4.68361 17.61037,3.93423 8.99252,-0.74938 22.29397,-7.30642 22.29397,-7.30642 z"
       id="path3435"
       inkscape:connector-curvature="0" />
    <path
       style="fill:#cccccc;stroke:none;display:inline"
       d="m 291.57613,248.25352 c 0,0 -7.86845,11.24065 -21.1699,12.73941 -13.30144,1.49875 -28.28899,-6.93174 -28.28899,-6.93174 0,0 12.55207,11.05331 26.41555,9.36721 13.86348,-1.68609 23.04334,-15.17488 23.04334,-15.17488 z"
       id="path3437"
       inkscape:connector-curvature="0" />
    <path
       style="fill:none;stroke:#000000;stroke-width:0.93947339px;stroke-linecap:butt;stroke-linejoin:miter;stroke-opacity:1;display:inline"
       d="m 295.69771,271.4842 c 0,0 3.93423,9.92925 -3.74689,10.1166 -7.68111,0.18734 -10.86596,1.87344 -13.48879,3.74688 -2.62282,1.87345 -9.17986,3.18486 -12.92676,1.31141 -3.74688,-1.87344 -7.68111,-2.43547 -12.73941,-2.43547 -5.05829,0 -7.68111,-0.93673 -8.80517,-2.99751 -1.12407,-2.06079 -1.31141,-4.12157 -1.31141,-4.12157 l -0.37469,0.93672 0,0 0,0"
       id="path3439"
       inkscape:connector-curvature="0" />
    <path
       style="font-size:medium;font-style:normal;font-variant:normal;font-weight:normal;font-stretch:normal;text-indent:0;text-align:start;text-decoration:none;line-height:normal;letter-spacing:normal;word-spacing:normal;text-transform:none;direction:ltr;block-progression:tb;writing-mode:lr-tb;text-anchor:start;baseline-shift:baseline;color:#000000;fill:#999999;stroke:none;stroke-width:0.25;marker:none;visibility:visible;display:inline;overflow:visible;enable-background:accumulate;font-family:Sans;-inkscape-font-specification:Sans"
       d="m 342.63654,202.56436 c -5.46759,0.0215 -12.01835,0.25463 -16.32335,1.11563 -4.3806,0.87612 -10.47618,4.08973 -15.53067,7.0754 -5.05449,2.98568 -9.04243,5.75428 -9.04243,5.75428 a 0.56374042,0.56374042 0 1 0 0.64589,0.91011 c 0,0 3.96845,-2.73305 8.98371,-5.69555 5.01527,-2.96251 11.09911,-6.148 15.14901,-6.95798 7.95636,-1.59126 24.03645,-0.95616 25.21899,-0.91011 a 0.56374042,0.56374042 0 0 0 1.02755,0.0587 l 0.20551,-0.38166 0.38166,-0.76332 -0.8514,-0.0293 c 0,0 -4.39688,-0.19769 -9.86447,-0.17615 z"
       id="path3468"
       inkscape:connector-curvature="0" />
    <path
       style="font-size:medium;font-style:normal;font-variant:normal;font-weight:normal;font-stretch:normal;text-indent:0;text-align:start;text-decoration:none;line-height:normal;letter-spacing:normal;word-spacing:normal;text-transform:none;direction:ltr;block-progression:tb;writing-mode:lr-tb;text-anchor:start;baseline-shift:baseline;color:#000000;fill:#999999;stroke:none;stroke-width:0.25;marker:none;visibility:visible;display:inline;overflow:visible;enable-background:accumulate;font-family:Sans;-inkscape-font-specification:Sans"
       d="m 202.71372,214.13163 c -5.65024,-0.21188 -11.37771,-0.006 -14.88478,0.96883 -6.77604,1.88223 -12.62417,4.13955 -12.62417,4.13955 a 0.56700886,0.56700886 0 1 0 0.41102,1.05691 c 0,0 5.79398,-2.24555 12.50674,-4.1102 3.23732,-0.89925 8.94206,-1.14911 14.53247,-0.93947 5.59042,0.20964 11.10703,0.88802 14.00403,1.7028 2.87818,0.80948 8.12661,3.32397 12.56546,5.63684 4.43884,2.31287 8.10295,4.43314 8.10295,4.43314 a 0.5790431,0.5790431 0 1 0 0.58718,-0.99819 c 0,0 -3.73103,-2.10924 -8.19104,-4.43314 -4.46001,-2.3239 -9.62476,-4.84831 -12.74161,-5.72492 -3.09801,-0.87131 -8.618,-1.52027 -14.26825,-1.73215 z"
       id="path3470"
       inkscape:connector-curvature="0" />
    <path
       style="fill:#000000;stroke:none;display:inline"
       d="m 230.22253,330.674 -0.45975,1.14938 c 0,0 1.99226,1.5325 3.06502,1.91564 1.07276,0.38313 2.06888,0.68962 2.06888,0.68962 0,0 -3.6014,-1.91563 -4.21439,-2.60526 -0.61301,-0.68963 -0.45976,-1.14938 -0.45976,-1.14938 z"
       id="path4361"
       inkscape:connector-curvature="0" />
    <path
       style="fill:#e6e6e6;stroke:none;display:inline"
       d="m 228.9309,243.40209 c 0.007,0.45581 0.0164,0.97668 -0.0293,1.52665 -0.0567,0.68033 -0.53035,1.37791 -0.96883,1.9083 2.547,-0.28967 5.27072,-0.87754 7.63322,-2.14317 0,0 -1.06343,-0.96753 -6.63503,-1.29178 z"
       id="path4363"
       inkscape:connector-curvature="0" />
    <path
       style="fill:none;stroke:#000000;stroke-width:0.4697367;stroke-linecap:butt;stroke-linejoin:miter;stroke-miterlimit:4;stroke-opacity:1;stroke-dasharray:none;display:inline"
       d="m 292.60958,310.54508 -2.70098,1.90831 c -0.4122,0.29585 -0.51165,0.87144 -0.23487,1.29177 -0.0894,0.0663 -0.17402,0.13899 -0.26423,0.20551 -0.007,-0.005 -0.0231,0.005 -0.0293,0 -0.21487,-0.16488 -0.49989,-0.2482 -0.76332,-0.20551 -0.12049,0.0195 -0.21268,0.0484 -0.32295,0.11744 l -4.22763,2.64227 c -0.37647,0.23582 -0.51791,0.68435 -0.38166,1.08626 -0.0949,0.0376 -0.26683,0.10722 -0.38166,0.1468 -0.13874,-0.45743 -0.57793,-0.74387 -1.05691,-0.64589 l -5.95978,1.2037 c -0.5001,0.10229 -0.82003,0.58662 -0.73396,1.08626 -0.0397,0.007 -0.0775,0.023 -0.11744,0.0293 -0.10002,-0.46585 -0.51338,-0.78917 -0.99819,-0.73397 l -5.37261,0.61653 c -0.48649,0.0554 -0.83068,0.4601 -0.82204,0.93948 -0.10244,-0.45366 -0.522,-0.77759 -0.99819,-0.73397 l -4.9616,0.46974 c -0.43826,0.0401 -0.75625,0.37639 -0.82204,0.79268 -0.01,3.4e-4 -0.0194,-3.4e-4 -0.0293,0 0,-0.52047 -0.419,-0.93947 -0.93947,-0.93947 l -4.40378,0 c -0.51027,0 -0.92349,0.40387 -0.93948,0.91011 -0.03,-0.002 -0.0582,0.002 -0.088,0 0.002,-0.46861 -0.34544,-0.87713 -0.82204,-0.93947 l -3.93405,-0.4991 c -0.47414,-0.062 -0.90713,0.22824 -1.02755,0.67525 -0.12925,-0.0255 -0.22701,-0.0622 -0.3523,-0.088 0.0892,-0.47355 -0.17431,-0.95093 -0.64589,-1.08627 l -2.49547,-0.7046 c -0.38995,0.11991 -0.7951,0.24394 -1.17435,0.3523 -5.69766,1.6279 -9.86337,0.8027 -10.18741,0.73397 l -0.11743,0.23486 c 0,0 6.7794,5.94648 11.15624,7.78002 10.44633,4.37616 25.57684,4.66438 33.02836,2.52483 12.47561,-3.5821 27.09787,-14.49782 30.56225,-17.17475 0.0754,-0.0582 0.0527,-0.0378 0.11743,-0.088 l 0.46974,-0.46974 c -3.80698,0.1472 -9.27097,0.27017 -11.94893,-0.17615 -1.64835,-0.27473 -3.35346,-0.77525 -5.07903,-1.26242 z m -58.36478,9.04243 -0.23487,0.55782 0.0293,0.0293 0.20551,-0.58717 z"
       id="path4253"
       inkscape:connector-curvature="0" />
    <path
       style="fill:none;stroke:#000000;stroke-width:0.4697367;stroke-linecap:butt;stroke-linejoin:miter;stroke-miterlimit:4;stroke-opacity:1;stroke-dasharray:none;display:inline"
       d="m 275.94579,314.20204 c 3.12942,-0.68854 3.67033,-4.235 8.32883,-4.79967 4.6585,-0.56466 9.17583,1.69401 13.41083,2.39984 4.235,0.70583 15.95183,0 15.95183,0 l -0.4235,-2.39984 c 0,0 -6.63483,0.42351 -10.44633,-0.42349 -3.8115,-0.847 -13.41083,-3.95267 -18.77516,-3.38801 -5.36434,0.56467 -8.47,2.68217 -8.47,2.68217 0,0 -2.9645,-1.694 -8.18766,-1.27049 -5.22317,0.42349 -22.72784,7.623 -26.53934,8.18766 -3.8115,0.56467 -5.64666,1.12933 -5.64666,1.12933 l -0.847,2.82333 c 0,0 4.37617,0.98817 10.30516,-0.70583 5.929,-1.694 13.26967,-4.94084 18.77516,-5.36433 5.50551,-0.4235 8.45723,2.03287 12.56384,1.12933 z"
       id="path4249"
       inkscape:connector-curvature="0"
       sodipodi:nodetypes="sssccsscssccsss" />
    <path
       style="fill:none;stroke:#000000;stroke-width:0.4697367;stroke-linecap:butt;stroke-linejoin:miter;stroke-miterlimit:4;stroke-opacity:1;stroke-dasharray:none;display:inline"
       d="m 309.82578,311.94338 c 0,0 -17.08116,13.69316 -31.33899,17.78699 -7.45153,2.13955 -22.58667,1.83517 -33.03299,-2.54099 -4.37685,-1.83355 -11.15217,-7.76417 -11.15217,-7.76417 l -1.2705,3.81149 c 0,0 7.1351,6.90474 14.25783,9.45817 7.48183,2.68217 20.46916,3.10566 27.38633,2.9645 6.91716,-0.14117 17.64583,-6.21133 23.43366,-10.164 5.78783,-3.95266 15.38716,-13.55199 15.38716,-13.55199 z"
       id="path4251"
       inkscape:connector-curvature="0"
       sodipodi:nodetypes="cssccssscc" />
    <path
       style="fill:none;stroke:#000000;stroke-width:0.93947339px;stroke-linecap:butt;stroke-linejoin:miter;stroke-opacity:1;display:inline"
       d="m 492.3381,495.98971 c -1.57425,-6.29696 -4.25994,-22.8542 -12.65588,-34.92337 -8.39595,-12.06918 -25.73692,-32.52986 -32.55862,-40.92581 -6.82172,-8.39595 -17.20046,-19.51334 -24.27808,-25.46784 -5.54026,-4.87833 -9.28641,-8.11488 -14.53387,-11.78811 -5.24747,-3.67323 -20.98514,-12.07007 -36.72754,-12.59481 -15.74241,-0.52476 -40.42671,7.86809 -40.42671,7.86809 l -1.55605,-7.86814 c -0.52772,-2.63862 -0.67673,-5.38304 -0.67525,-7.48643 -1.94842,1.05871 -3.64751,2.0668 -4.93224,2.99457 -8.2981,5.99255 -25.03431,15.05946 -38.22482,16.55822 -9.05828,1.02924 -11.01458,1.70426 -20.75649,0.20551 -9.7419,-1.49875 -20.97007,-8.98077 -27.71446,-11.97829 -0.14155,-0.0629 -0.31697,-0.14063 -0.46974,-0.20551 0.32258,1.52654 1.70805,8.85578 -0.64589,13.56365 -2.62373,5.24747 -36.19998,12.59883 -48.7939,17.32154 -12.59392,4.72273 -25.71838,23.0693 -29.91635,34.61372 -0.27793,0.76429 -0.42342,1.76704 -0.44038,2.93586 -8.41486,15.86025 -18.26102,47.59445 -18.26102,57.80697 0,10.57559 0.67525,42.98091 0.67525,42.98091 0,0 -11.24025,11.87105 -17.84999,19.14177 -6.60974,7.27072 -23.809785,40.33294 -23.809785,49.58658 0,9.25364 -4.58442,28.74421 -4.58442,28.74421 m 28.789655,14.53248 c 0,0 5.18486,-3.38647 11.03069,-7.84702 m 25.33661,-33.09841 c 6.36117,-12.63575 17.74852,-36.03243 18.07901,-39.99827 0.66097,-7.93169 5.31145,-7.29194 9.2773,-13.24071 2.53526,-3.80289 5.32264,-15.1062 7.01669,-22.81158 4.69,11.98432 10.28397,30.54404 15.25475,44.58325 m 183.26958,-0.9318 c 0,0 4.41283,-86.60936 5.75241,-108.12281 2.72444,3.37496 5.61528,6.42487 8.66077,8.7782 11.54443,8.92069 35.68546,22.02262 37.78445,22.54736"
       id="path4486"
       inkscape:connector-curvature="0"
       sodipodi:nodetypes="csscsscccsssccssscscssccccssccccsc" />
    <path
       style="fill:#999999;stroke:none;display:inline"
       d="m 437.28726,502.24091 c 0,0 13.05425,1.32195 16.68961,1.81768 3.63535,0.49573 17.76368,4.79207 17.76368,4.79207 0,0 -7.43596,-4.13109 -10.74083,-4.95731 -3.30487,-0.82622 -8.92315,-2.06555 -8.92315,-2.06555 0,0 9.08839,0.41311 12.55851,1.56982 3.47011,1.1567 10.16248,4.29633 10.16248,4.29633 0,0 -3.88323,-4.04847 -8.84053,-5.53566 -4.95731,-1.4872 -11.15394,-2.47866 -11.15394,-2.47866 0,0 10.49296,1.40458 13.54997,1.56981 3.057,0.16525 7.27072,-0.99145 7.27072,-0.99145 0,0 -6.11402,0.57835 -12.64114,-0.33049 -6.52712,-0.90884 -8.3448,-1.48719 -8.3448,-1.48719 0,0 6.4445,-0.41311 11.07132,-1.65243 4.62682,-1.23934 5.03993,-2.31342 5.03993,-2.31342 0,0 -24.78653,4.37896 -28.83501,4.5442 -4.04846,0.16524 -4.04846,0.0826 -4.04846,0.0826 l 3.8006,1.81769 z"
       id="path4581"
       inkscape:connector-curvature="0" />
    <path
       style="fill:#999999;stroke:none;display:inline"
       d="m 186.12614,518.08063 c 2.64825,13.12877 4.52122,23.45747 4.52122,23.45747 l 2.23125,-7.13412 c 0,0 -2.56949,-8.69218 -4.63865,-15.70682 l -2.11382,-0.61653 z"
       id="path4793"
       inkscape:connector-curvature="0" />
    <path
       style="fill:#ffffff;stroke:#000000;stroke-width:0.93947339px;stroke-linecap:butt;stroke-linejoin:miter;stroke-opacity:1;display:inline"
       d="m 292.82654,631.00462 c 0,0 -26.29807,-32.01505 -52.02446,-33.15844 -25.72638,-1.14339 -50.30937,0 -63.45841,3.43018 -13.14904,3.43019 -45.7358,23.4396 -45.7358,53.73956 0,30.29996 41.16222,60.59992 63.45842,69.17538 22.2962,8.57546 83.46782,21.7245 120.62814,21.7245 37.16034,0 73.74897,-20.58111 97.18856,-31.44335 23.43959,-10.86225 53.73955,-33.73015 53.73955,-54.31126 0,-20.5811 6.86038,-32.01505 11.43396,-38.87542 4.57357,-6.86037 6.86036,-17.15092 -5.71698,-3.43019 -12.57734,13.72074 -16.00753,42.30561 -22.2962,46.87919 -6.28867,4.57358 -26.86978,16.00753 -37.16033,17.15092 -10.29055,1.1434 -12.57734,2.28679 -12.57734,2.28679 l 1.1434,-0.57169"
       id="path5036-7"
       inkscape:connector-curvature="0"
       sodipodi:nodetypes="cssssssssssscc" />
    <path
       style="color:#000000;fill:none;stroke:#000000;stroke-width:1.17434168;stroke-miterlimit:4;stroke-dasharray:none;marker:none;visibility:visible;display:inline;overflow:visible;enable-background:accumulate"
       d="m 346.30636,458.95252 c -22.44102,0 -47.68914,4.60887 -60.88962,10.36357 3.72146,1.88602 6.25337,5.72991 6.25337,10.18741 0,2.77761 -0.96596,5.32922 -2.61291,7.31028 14.20938,5.09528 37.88516,8.48462 58.59965,8.48462 32.12405,0 44.91857,-8.13417 44.91857,-18.17294 0,-10.03876 -14.14501,-18.17294 -46.26906,-18.17294 z"
       id="path4584"
       inkscape:connector-curvature="0" />
    <path
       style="color:#000000;fill:none;stroke:#000000;stroke-width:1.17434168;stroke-miterlimit:4;stroke-dasharray:none;marker:none;visibility:visible;display:inline;overflow:visible;enable-background:accumulate"
       d="m 354.46803,442.042 c -6.96289,-0.0418 -14.52797,0.59178 -22.42992,2.02574 -23.86813,4.33131 -43.6282,14.88306 -51.11323,24.04465 6.00023,0.34971 10.74523,5.30318 10.74523,11.39111 0,6.29517 -5.07403,11.41815 -11.36176,11.44983 7.08167,8.97272 28.64624,18.86243 54.22523,21.43174 31.96321,3.21058 57.80698,-6.27996 59.09875,-16.23528 0.7426,-5.72302 -0.23785,-9.77401 -2.96521,-12.7416 -0.005,-0.005 0.005,-0.0244 0,-0.0293 1.29495,-1.94879 1.9083,-4.05739 1.9083,-6.25337 0,-2.72077 -1.0458,-5.28652 -3.20008,-7.60387 3.20399,-3.31669 4.17556,-7.6971 2.84778,-13.97466 -1.55802,-7.36612 -16.86639,-13.37939 -37.75509,-13.50493 z"
       id="path4584-1"
       inkscape:connector-curvature="0" />
    <path
       style="color:#000000;fill:none;stroke:#000000;stroke-width:1.17434168;stroke-miterlimit:4;stroke-dasharray:none;marker:none;visibility:visible;display:inline;overflow:visible;enable-background:accumulate"
       d="m 243.66889,467.40778 c -9.51434,0.05 -19.68372,0.7757 -29.15303,2.26061 -30.30179,4.75171 -42.39106,14.27389 -40.8671,23.45747 1.52395,9.18359 14.85167,14.73362 45.15344,9.98191 19.04391,-2.98633 40.23527,-9.33104 52.99217,-15.91233 -1.84972,-2.03142 -2.96521,-4.72809 -2.96521,-7.69194 0,-3.86527 1.90803,-7.26645 4.84416,-9.33602 -7.36701,-1.8513 -18.18101,-2.82183 -30.00443,-2.7597 z"
       id="path4584-0"
       inkscape:connector-curvature="0" />
    <path
       style="color:#000000;fill:none;stroke:#000000;stroke-width:1.17434168;stroke-miterlimit:4;stroke-dasharray:none;marker:none;visibility:visible;display:inline;overflow:visible;enable-background:accumulate"
       d="m 222.88304,453.90285 c -6.61321,0.0221 -12.87192,0.56263 -18.61332,1.49729 -19.68469,3.20466 -33.20539,10.969 -33.55681,17.93807 -0.29947,5.93918 1.28908,9.79973 4.8148,12.35994 -1.68028,2.43861 -2.29198,4.93872 -1.87895,7.42771 0.33337,2.00892 1.24237,3.8401 2.75971,5.43134 -0.003,0.005 0.004,0.0238 0,0.0293 -2.12216,3.11821 -2.42066,6.97006 -0.8514,12.09572 2.72977,8.91617 28.52597,13.77158 58.18863,6.10657 22.247,-5.74875 40.19469,-16.87156 46.7388,-25.86487 -0.0788,0.002 -0.15564,0.0293 -0.23486,0.0293 -6.3148,0 -11.42048,-5.13504 -11.42048,-11.44983 0,-5.41798 3.74886,-9.94726 8.80756,-11.12689 -8.43751,-7.28151 -28.71328,-14.01221 -51.9059,-14.4444 -0.95892,-0.0179 -1.90303,-0.0325 -2.84778,-0.0293 z"
       id="path4584-1-4"
       inkscape:connector-curvature="0" />
    <path
       sodipodi:type="arc"
       style="color:#000000;fill:none;stroke:#000000;stroke-width:1.25;stroke-miterlimit:4;stroke-dasharray:none;marker:none;visibility:visible;display:inline;overflow:visible;enable-background:accumulate"
       id="path4808"
       sodipodi:cx="362.07513"
       sodipodi:cy="504.077"
       sodipodi:rx="12.170592"
       sodipodi:ry="12.170592"
       d="m 374.24573,504.077 a 12.170592,12.170592 0 1 1 -24.34119,0 12.170592,12.170592 0 1 1 24.34119,0 z"
       transform="matrix(0.93947339,0,0,0.93947339,-59.910753,5.9378967)" />
    <path
       style="fill:#ffffff;stroke:#000000;stroke-width:1.28831887px;stroke-linecap:butt;stroke-linejoin:miter;stroke-opacity:1;display:inline"
       d="m 463.79833,636.43532 c 0,0 40.99201,-15.77399 73.61421,-9.39009 32.62221,6.3839 64.77004,16.59384 88.15362,1.61318 23.38356,-14.98069 52.59335,-69.17796 62.80957,-81.6107 10.21622,-12.43275 38.30822,-12.26728 38.30822,-12.26728 0,0 -29.21245,-28.70228 -54.57609,-30.14253 -25.36365,-1.44024 -61.79665,-5.59304 -94.31401,20.86405 -32.51735,26.45709 -96.96631,81.12508 -102.26704,91.48638 -5.30076,10.36131 -11.72848,19.44699 -11.72848,19.44699 z"
       id="path4978"
       inkscape:connector-curvature="0" />
    <path
       style="fill:none;stroke:#000000;stroke-width:0.93947339px;stroke-linecap:butt;stroke-linejoin:miter;stroke-opacity:1;display:inline"
       d="m 392.30188,601.27636 c 2.2868,15.43583 19.43771,50.88106 14.86414,61.74332 -2.28679,5.43112 -2.00094,10.86225 -5.2882,19.79502"
       id="path4961-6"
       inkscape:connector-curvature="0"
       sodipodi:nodetypes="csc" />
    <path
       style="opacity:0.53333285;fill:none;stroke:#999999;stroke-width:0.93947339px;stroke-linecap:butt;stroke-linejoin:miter;stroke-opacity:1;display:inline"
       d="m 467.31726,633.9539 c 0,0 71.91086,-61.83411 98.20894,-82.41521 26.29807,-20.58111 97.18855,-48.02258 97.18855,-48.02258 l 0,0 0,0 0,0 0,0 0,0 0,0"
       id="path5038"
       inkscape:connector-curvature="0"
       sodipodi:nodetypes="csccccccc" />
    <path
       style="opacity:0.53333285;fill:none;stroke:#999999;stroke-width:0.93947339px;stroke-linecap:butt;stroke-linejoin:miter;stroke-opacity:1;display:inline"
       d="m 467.19558,633.90851 c 21.80301,-9.26132 40.18719,-19.11465 63.6955,-23.0973 22.96229,-1.03785 46.71357,2.23144 69.00559,-4.71498 10.83126,-4.60275 17.82209,-14.70939 25.97041,-22.778 14.0483,-15.14637 26.50355,-32.12434 42.79687,-44.9547 12.92851,-7.05433 27.7687,-9.26032 41.73081,-13.47736 l 1.59988,-0.39711 1.60118,-0.39185"
       id="path5040"
       inkscape:connector-curvature="0"
       sodipodi:nodetypes="cccccccc" />
    <path
       style="opacity:0.53333285;fill:none;stroke:#999999;stroke-width:0.93947339px;stroke-linecap:butt;stroke-linejoin:miter;stroke-opacity:1;display:inline"
       d="m 467.19424,633.86311 c 0,0 58.31314,-36.58863 73.17728,-41.16221 14.86413,-4.57358 77.75083,-38.87542 95.47345,-52.59616 17.72262,-13.72074 57.16974,-29.72827 57.16974,-29.72827"
       id="path5046"
       inkscape:connector-curvature="0" />
    <path
       style="fill:none;stroke:#000000;stroke-width:1;stroke-linecap:butt;stroke-linejoin:miter;stroke-miterlimit:4;stroke-opacity:1;stroke-dasharray:none;display:inline"
       d="m 402.02075,683.60079 c 0,0 -18.29432,2.28679 -47.45089,-3.43019 -29.15656,-5.71698 -76.60745,-15.43583 -81.75273,-17.15092 -5.14527,-1.7151 -19.43771,-8.00376 -19.43771,-8.00376 l 0,0"
       id="path5052"
       inkscape:connector-curvature="0" />
    <path
       style="fill:#ffffff;stroke:none;display:inline"
       d="m 410.39606,507.24732 c -9.65284,3.41189 -36.91371,32.19681 -38.50649,33.23665 0,0 -5.79635,1.76655 -10.43032,-9.98084 -2.90383,-7.36136 -8.75393,-15.93146 -10.30873,-16.70885 -4.7283,-2.36414 -21.09886,-2.27169 -33.87976,0.79268 -6.39045,1.53219 -10.1513,0.37784 -12.85904,3.46431 l 0.17615,0.0587 c -5.84235,0.53129 -11.28076,2.47319 -15.35452,6.54695 -4.76436,4.76436 4.57993,8.02493 4.57993,10.86266 0,0.88739 -11.67679,2.98103 -9.15986,8.01488 0.96534,1.93071 5.36133,5.05531 4.02212,5.72492 -12.0459,6.02294 2.28996,13.62641 2.28996,14.85542 0,5.96257 -3.51964,13.15263 6.28273,13.15263 0,0 23.59992,5.72492 31.03198,5.72492 7.43207,0 17.70955,1.71349 22.28314,-1.14499 2.00441,-1.25276 4.09956,-2.81603 5.84235,-4.19827 0.8436,0.29195 1.84143,0.44038 3.08264,0.44038 11.54443,0 33.08797,1.58877 45.6819,-2.08446 12.59392,-3.67323 55.08463,-15.76243 64.53008,-23.63362 9.44543,-7.8712 18.87784,-27.2818 23.07581,-32.52927 M 372.4061,539.83529 c -0.0382,0.0343 -0.0796,0.0837 -0.11743,0.11743 l 0,-0.0587 z m -0.26422,0.14679 0.0587,0.0587 c -0.0336,0.0301 -0.0845,0.0587 -0.11743,0.088 z"
       id="path5055-5"
       inkscape:connector-curvature="0"
       sodipodi:nodetypes="ccsssccssssscsscsssccccccccc" />
    <path
       style="fill:none;stroke:#000000;stroke-width:0.93947339px;stroke-linecap:butt;stroke-linejoin:miter;stroke-opacity:1;display:inline"
       d="m 371.72079,541.24814 c -2.97263,-1.90727 -6.45539,-2.62022 -8.00377,-5.71697 -3.10256,-6.20511 -6.65431,-18.763 -12.57734,-21.72451 -4.7283,-2.36414 -21.07736,-2.27691 -33.85827,0.78746 -6.39045,1.53219 -10.17376,0.37847 -12.8815,3.46494"
       id="path5055"
       inkscape:connector-curvature="0"
       sodipodi:nodetypes="csssc" />
    <path
       style="color:#000000;fill:#ffffff;stroke:#000000;stroke-width:1;stroke-linecap:round;stroke-linejoin:miter;stroke-miterlimit:4;stroke-opacity:1;stroke-dasharray:none;stroke-dashoffset:0;marker:none;visibility:visible;display:inline;overflow:visible;enable-background:accumulate"
       d="m 312.25045,433.93904 c -0.66992,1.52093 -11.39112,31.41364 -11.39112,31.41364 -2.42014,12.51958 5.88998,24.70183 18.67204,27.30345 l 1.29177,0.23487 c -0.0166,0.0763 -0.0732,0.15774 -0.088,0.23486 l -4.90287,25.48322 c 6.22031,1.02164 12.23788,3.10969 16.99859,5.49005 1.93166,0.96583 0.71599,-2.92688 1.73216,-3.43495 1.39721,-0.6986 2.97901,-0.97477 4.63865,-1.08627 l 4.25699,-22.10698 c 0.024,-0.12507 0.0104,-0.22753 0.0293,-0.3523 11.11583,0.1187 21.13663,-8.29212 24.74925,-26.9805 4.08127,-21.11263 -2.94097,-25.0183 -2.99457,-26.68692 l -1.58536,-0.29359 -8.36719,26.89243 -0.76332,-28.50715 -3.14136,-0.58717 -9.36538,29.91636 -0.82204,-31.73659 -3.31751,-0.58717 -9.30666,29.82828 -0.82204,-31.64851 -3.22944,-0.58717 -8.98372,28.77137 -0.79268,-30.53288 -2.49547,-0.44038 z"
       id="rect4531"
       inkscape:connector-curvature="0" />
    <path
       style="fill:#999999;stroke:none;display:inline"
       d="m 147.07928,544.00422 c 0,0 11.83689,8.25882 17.64449,10.71587 5.80759,2.45706 8.48462,4.25699 8.48462,4.25699 0,0 -15.63173,-3.58445 -19.87574,-6.48824 -4.24401,-2.9038 -8.24975,-5.81299 -8.24975,-5.81299 0,0 8.48488,8.0418 13.62237,10.27549 3.63232,1.57927 15.30203,4.2221 21.96019,5.6662 0.76818,-0.64007 1.56791,-1.32384 2.4074,-2.11382 -3.67553,-1.31473 -8.16892,-2.96993 -12.09572,-4.66801 -8.26465,-3.57389 -23.89786,-11.83149 -23.89786,-11.83149 z"
       id="path4771"
       inkscape:connector-curvature="0" />
    <path
       style="fill:none;stroke:#000000;stroke-width:1.04863536px;stroke-linecap:butt;stroke-linejoin:miter;stroke-opacity:1;display:inline"
       d="m 116.84606,642.01404 c 5.105,5.105 5.105,14.6769 10.21,19.14377 5.10501,4.46689 3.82876,15.95313 5.74314,23.61065 1.91438,7.6575 4.46688,24.88689 -1.27625,25.52502 -5.74314,0.63813 -17.86752,-5.105 -16.59127,-8.93375 1.27625,-3.82876 -4.46689,-29.9919 -4.46689,-29.9919 0,0 -21.696275,21.05813 -29.991905,26.80127 -8.29564,5.74313 -23.61065,19.78189 -28.07752,22.97252 -4.46689,3.19063 -12.1244,-3.82875 -5.74314,-10.84814 6.38125,-7.01938 14.67689,-17.2294 19.7819,-21.69626 5.105,-4.46689 19.78189,-21.05815 22.33439,-25.52503 2.5525,-4.46688 11.486275,-4.46688 11.486275,-4.46688 l -2.552515,0"
       id="path5113"
       inkscape:connector-curvature="0"
       sodipodi:nodetypes="csssscssssscc" />
    <path
       style="fill:none;stroke:#000000;stroke-width:1.04863536px;stroke-linecap:butt;stroke-linejoin:miter;stroke-opacity:1;display:inline"
       d="m 44.737845,718.58912 c 0,0 -0.63813,-0.63813 -4.46688,3.19063 -3.82876,3.82874 -14.74109,-9.53332 -7.01939,-17.86752 11.48795,-12.39919 17.2294,-18.50564 23.61066,-24.88691 6.38126,-6.38124 15.31501,-24.88689 21.05815,-25.52502 5.74313,-0.63811 6.38126,-0.63811 6.38126,-0.63811"
       id="path5119"
       inkscape:connector-curvature="0"
       sodipodi:nodetypes="cssssc" />
    <path
       style="fill:none;stroke:#000000;stroke-width:1.04863536px;stroke-linecap:butt;stroke-linejoin:miter;stroke-opacity:1;display:inline"
       d="m 99.533045,635.63279 c 0,0 -30.54642,7.01938 -35.0133,8.93375 -4.46688,1.91439 -13.40064,10.21002 -22.3344,12.1244 -8.93376,1.91437 -19.51911,4.03143 -20.15724,8.49832 -0.63812,4.46688 3.82875,4.46688 3.82875,4.46688 0,0 9.30911,-1.47894 15.05223,-2.7552 5.74314,-1.27624 13.740806,-2.24608 13.740806,-2.24608"
       id="path5123"
       inkscape:connector-curvature="0"
       sodipodi:nodetypes="cssscsc" />
    <path
       style="fill:none;stroke:#000000;stroke-width:1.04863536px;stroke-linecap:butt;stroke-linejoin:miter;stroke-opacity:1;display:inline"
       d="m 51.712145,683.72494 c 0,0 -15.12733,8.68599 -18.95608,11.2385 -3.82875,2.55251 -8.93376,-6.38125 -3.19063,-11.48626 5.74313,-5.10501 13.40064,-13.40063 19.7819,-15.95313 6.38125,-2.5525 10.80957,-7.77733 10.80957,-7.77733"
       id="path5125"
       inkscape:connector-curvature="0"
       sodipodi:nodetypes="csssc" />
    <path
       style="fill:none;stroke:#000000;stroke-width:0.93947339px;stroke-linecap:butt;stroke-linejoin:miter;stroke-opacity:1;display:inline"
       d="m 298.84887,610.19672 c 0,0 36.34752,-18.45336 55.91927,-24.88408 19.57174,-6.43071 55.36006,-10.62466 57.31724,-1.67757 1.95718,8.94707 21.52892,22.6473 -1.39798,20.69012 -22.9269,-1.95717 -34.94954,-6.43071 -46.1334,-5.31232 -11.18385,1.11837 -65.70513,11.18385 -65.70513,11.18385 z"
       id="path5394"
       inkscape:connector-curvature="0" />
    <path
       style="fill:none;stroke:#000000;stroke-width:0.93947339px;stroke-linecap:butt;stroke-linejoin:miter;stroke-opacity:1;display:inline"
       d="m 200.89349,578.00141 c -7.05367,-0.008 -12.68294,1.80573 -14.15082,7.31028 -1.47167,5.51881 0.58991,10.02562 4.75609,13.2407 l 2.58355,-0.41102 c 5.14032,-0.79082 37.96361,-1.18808 45.47638,-0.79268 5.89015,0.31002 15.9005,4.02257 23.95658,8.66077 14.57096,1.15117 28.32608,2.55091 35.34768,3.64046 0,0 -55.65865,-22.93473 -69.63846,-26.56948 -7.86365,-2.04455 -19.262,-5.0692 -28.331,-5.07903 z"
       id="path5396"
       inkscape:connector-curvature="0" />
    <path
       style="fill:none;stroke:#000000;stroke-width:1;stroke-linecap:butt;stroke-linejoin:miter;stroke-miterlimit:4;stroke-opacity:1;stroke-dasharray:none;display:inline"
       d="m 344.83843,519.5192 c -3.54718,0.0307 -7.33018,-0.32767 -10.27549,1.14498 -1.01616,0.50807 0.19951,4.40078 -1.73215,3.43495 -12.21488,-6.10743 -32.73407,-10.30556 -43.59744,0.55781 -4.76436,4.76436 4.57993,8.02493 4.57993,10.86266 0,0.88739 -11.67679,2.98103 -9.15986,8.01488 0.96534,1.93071 5.36133,5.05531 4.02212,5.72492 -12.0459,6.02294 2.28996,13.62641 2.28996,14.85542 0,5.96257 -3.51964,13.15263 6.28273,13.15263 0,0 23.59992,5.72492 31.03198,5.72492 7.43207,0 17.70955,1.71349 22.28314,-1.14499 2.00441,-1.25276 4.09956,-2.81603 5.84235,-4.19827 0.8436,0.29195 1.84143,0.44038 3.08264,0.44038 11.54443,0 33.08797,1.58877 45.6819,-2.08446 12.59392,-3.67323 55.08463,-15.76243 64.53008,-23.63362 9.44543,-7.8712 18.87784,-27.2818 23.07581,-32.52927 4.19797,-5.24747 7.61121,-17.48842 2.11382,-20.99136 -2.13205,-1.35853 -1.94731,-1.87896 -2.70773,-2.99668 m -49.18327,5.34183 c -7.41205,0.9839 -26.90525,3.64308 -32.60289,6.05139 -10.68654,4.51705 -29.77617,25.26678 -38.10739,32.70542 l 0,-0.41102 -0.14679,0.44038 0.0587,0.0587 c -0.0336,0.0301 -0.0845,0.0587 -0.11743,0.088 l 0.0587,-0.14675"
       id="path4521-5"
       inkscape:connector-curvature="0"
       sodipodi:nodetypes="cssssssscsscsssssccscccccc" />
    <path
       style="fill:none;stroke:#000000;stroke-width:1;stroke-linecap:butt;stroke-linejoin:miter;stroke-miterlimit:4;stroke-opacity:1;stroke-dasharray:none;display:inline"
       d="m 234.30163,319.14287 c 0,0 4.37617,0.98817 10.30516,-0.70583 5.929,-1.694 13.26967,-4.94084 18.77516,-5.36433 5.50551,-0.4235 8.45723,2.03287 12.56384,1.12933 3.12942,-0.68854 3.67033,-4.235 8.32883,-4.79967 4.6585,-0.56466 9.17583,1.69401 13.41083,2.39984 4.235,0.70583 15.95183,0 15.95183,0"
       id="path4249-8"
       inkscape:connector-curvature="0"
       sodipodi:nodetypes="csssssc" />
    <path
       style="fill:none;stroke:#000000;stroke-width:1;stroke-linecap:butt;stroke-linejoin:miter;stroke-miterlimit:4;stroke-opacity:1;stroke-dasharray:none;display:inline"
       d="m 313.49611,311.94338 -3.67033,0 c 0,0 -17.08116,13.69316 -31.33899,17.78699 -7.45153,2.13955 -22.58667,1.83517 -33.03299,-2.54099 -4.37685,-1.83355 -11.15217,-7.76417 -11.15217,-7.76417"
       id="path4251-6"
       inkscape:connector-curvature="0"
       sodipodi:nodetypes="ccssc" />
    <g
       style="display:inline"
       id="g6167"
       transform="matrix(0.60289877,-0.93130003,0.93130003,0.60289877,-53.632621,204.94061)">
      <path
         transform="translate(-9.4522247,-0.62138367)"
         d="m 185.55113,127.46513 a 16.817659,6.274138 0 1 1 -33.63531,0 16.817659,6.274138 0 1 1 33.63531,0 z"
         sodipodi:ry="6.274138"
         sodipodi:rx="16.817659"
         sodipodi:cy="127.46513"
         sodipodi:cx="168.73347"
         id="path6164"
         style="color:#000000;fill:#ffffff;stroke:#000000;stroke-width:1.25;stroke-linecap:round;stroke-linejoin:miter;stroke-miterlimit:4;stroke-opacity:1;stroke-dasharray:none;stroke-dashoffset:0;marker:none;visibility:visible;display:inline;overflow:visible;enable-background:accumulate"
         sodipodi:type="arc" />
      <path
         id="path6123"
         d="m 146.8125,113.71875 c -2.21732,0 -4.29313,0.63802 -6.09375,1.71875 5.09478,0.85283 9.03125,5.83365 9.03125,11.875 0,5.54952 -3.32615,10.2089 -7.8125,11.59375 1.4928,0.67529 3.14918,1.0625 4.875,1.0625 6.84317,0 12.375,-5.87588 12.375,-13.125 0,-7.24912 -5.53183,-13.125 -12.375,-13.125 z m 24.9375,0 c -6.84317,0 -12.375,5.87588 -12.375,13.125 0,7.24912 5.53183,13.125 12.375,13.125 1.72582,0 3.3822,-0.38721 4.875,-1.0625 -4.48635,-1.38485 -7.8125,-6.04423 -7.8125,-11.59375 0,-6.04135 3.93647,-11.02217 9.03125,-11.875 -1.80062,-1.08073 -3.87643,-1.71875 -6.09375,-1.71875 z"
         style="color:#000000;fill:#ffffff;fill-opacity:1;fill-rule:nonzero;stroke:#000000;stroke-width:1.25;marker:none;visibility:visible;display:inline;overflow:visible;enable-background:accumulate"
         inkscape:connector-curvature="0" />
    </g>
    <path
       style="color:#000000;fill:#ffffff;fill-opacity:1;fill-rule:nonzero;stroke:#000000;stroke-width:1.25;stroke-linecap:round;stroke-linejoin:miter;stroke-miterlimit:4;stroke-opacity:1;stroke-dasharray:none;stroke-dashoffset:0;marker:none;visibility:visible;display:inline;overflow:visible;enable-background:accumulate"
       d="m 334.20303,81.503965 c -4.08051,-3.961314 -10.57697,-3.865026 -14.53829,0.21548 -3.96131,4.080506 -3.88679,10.599392 0.19372,14.560712 0.64144,0.6227 1.35792,1.13759 2.10047,1.56003 -1.21311,0.68797 -2.34412,1.56224 -3.36459,2.613413 -5.77648,5.9503 -5.65768,15.45681 0.29261,21.2333 5.9503,5.77649 15.47858,5.63526 21.25507,-0.31504 1.02046,-1.05117 1.83841,-2.22936 2.49012,-3.46233 0.44566,0.73435 0.97652,1.42708 1.6216,2.05332 4.08051,3.96132 10.62116,3.86437 14.58248,-0.21613 3.96131,-4.08051 3.8426,-10.59874 -0.2379,-14.56006 -4.08051,-3.96131 -10.57698,-3.86502 -14.53829,0.21548 -0.1821,0.18758 -0.3568,0.38492 -0.52176,0.58232 -0.74338,-2.14848 -1.99047,-4.15355 -3.73305,-5.84524 -1.73551,-1.684803 -3.77114,-2.855703 -5.93089,-3.536413 0.19214,-0.17052 0.38476,-0.35148 0.5666,-0.53879 3.96132,-4.0805 3.84261,-10.598738 -0.2379,-14.560052 z"
       id="path6171"
       inkscape:connector-curvature="0" />
    <g
       style="font-size:40px;font-style:normal;font-variant:normal;font-weight:bold;font-stretch:normal;line-height:100%;letter-spacing:0px;word-spacing:0px;fill:#ffffff;fill-opacity:1;stroke:none;font-family:Arial;-inkscape-font-specification:Arial Bold"
       id="text6299">
      <path
         d="m 112.92007,857.10913 0,-53.64844 23.76563,0 0,40.1836 20.8125,0 0,13.46484 -44.57813,0"
         style="font-size:72px;text-align:center;line-height:100%;text-anchor:middle;fill:#ffffff;stroke:#000000;font-family:Gill Sans Ultra Bold;-inkscape-font-specification:Gill Sans Ultra Bold"
         id="path6890"
         inkscape:connector-curvature="0" />
      <path
         d="m 205.69742,840.97241 0,7.41797 c -4.75786,6.23438 -11.6016,9.35156 -20.53125,9.35156 -7.3594,0 -13.27736,-2.03906 -17.75391,-6.11718 -4.47657,-4.10156 -6.71484,-9.49218 -6.71484,-16.17188 0,-6.35153 2.05077,-11.53122 6.15234,-15.53906 4.12499,-4.00777 9.46873,-6.01168 16.03125,-6.01172 3.35154,4e-5 6.457,0.56254 9.31641,1.6875 2.85934,1.12504 5.33199,2.77738 7.41797,4.95703 2.08589,2.17972 3.62105,4.71097 4.60547,7.59375 0.98432,2.88284 1.47651,6.39846 1.47656,10.54688 l -22.1836,0 c 0.79685,2.15626 2.13279,3.84376 4.00782,5.0625 1.87497,1.21876 4.01949,1.82813 6.43359,1.82812 4.87496,10e-6 8.78902,-1.53514 11.74219,-4.60547 m -23.48438,-9.70312 10.23047,0 c -0.0938,-2.10935 -0.62113,-3.74997 -1.58203,-4.92188 -0.93753,-1.19528 -2.168,-1.79293 -3.69141,-1.79297 -1.33596,4e-5 -2.49612,0.57425 -3.48046,1.72266 -0.9844,1.12503 -1.47659,2.78909 -1.47657,4.99219"
         style="font-size:72px;text-align:center;line-height:100%;text-anchor:middle;fill:#ffffff;stroke:#000000;font-family:Gill Sans Ultra Bold;-inkscape-font-specification:Gill Sans Ultra Bold"
         id="path6892"
         inkscape:connector-curvature="0" />
      <path
         d="m 234.27945,857.74194 c -6.70314,0 -12.23439,-2.01562 -16.59375,-6.04687 -4.33594,-4.05468 -6.50391,-9.32811 -6.50391,-15.82031 0,-6.49216 2.14453,-11.77731 6.4336,-15.85547 4.28905,-4.07809 9.84373,-6.11715 16.66406,-6.11719 6.86715,4e-5 12.44527,2.0391 16.73437,6.11719 4.31246,4.07816 6.46871,9.36331 6.46875,15.85547 -4e-5,6.46876 -2.15629,11.73047 -6.46875,15.78515 -4.2891,4.05469 -9.86722,6.08203 -16.73437,6.08203 m 0,-27.14062 c -1.40627,2e-5 -2.55471,0.45706 -3.44531,1.37109 -0.86721,0.89065 -1.30081,2.05081 -1.30078,3.48047 -3e-5,1.42971 0.43357,2.58986 1.30078,3.48047 0.8906,0.89064 2.03904,1.33595 3.44531,1.33594 1.42966,1e-5 2.58981,-0.4453 3.48047,-1.33594 0.89059,-0.89061 1.33591,-2.05076 1.33594,-3.48047 -3e-5,-1.4531 -0.44535,-2.62497 -1.33594,-3.51562 -0.89066,-0.8906 -2.05081,-1.33592 -3.48047,-1.33594"
         style="font-size:72px;text-align:center;line-height:100%;text-anchor:middle;fill:#ffffff;stroke:#000000;font-family:Gill Sans Ultra Bold;-inkscape-font-specification:Gill Sans Ultra Bold"
         id="path6894"
         inkscape:connector-curvature="0" />
      <path
         d="m 285.88882,814.78101 0,5.30859 c 3.65623,-3.7734 8.02731,-5.66011 13.11329,-5.66016 4.94526,5e-5 8.73042,1.38286 11.35546,4.14844 2.64839,2.74222 3.97261,6.82035 3.97266,12.23438 l 0,26.29687 -20.53125,0 0,-24.67969 c -3e-5,-3.51559 -1.33597,-5.2734 -4.00781,-5.27343 -1.28909,3e-5 -2.58987,0.45706 -3.90235,1.37109 l 0,28.58203 -21.72656,0 0,-42.32812 21.72656,0"
         style="font-size:72px;text-align:center;line-height:100%;text-anchor:middle;fill:#ffffff;stroke:#000000;font-family:Gill Sans Ultra Bold;-inkscape-font-specification:Gill Sans Ultra Bold"
         id="path6896"
         inkscape:connector-curvature="0" />
      <path
         d="m 322.45132,832.18335 0,-12.72656 c 6.14062,-3.35152 13.10155,-5.0273 20.88282,-5.02735 7.40621,5e-5 12.86715,1.58208 16.38281,4.7461 3.51558,3.16409 5.27339,8.00393 5.27344,14.51953 l 0,23.41406 -21.72657,0 0,-3.16406 c -3.21096,2.34375 -6.7383,3.51562 -10.58203,3.51562 -3.23438,0 -5.92969,-1.04296 -8.08593,-3.1289 -2.15626,-2.10937 -3.23438,-4.75781 -3.23438,-7.94532 0,-3.63279 1.33593,-6.58592 4.00781,-8.85937 2.67187,-2.29685 6.16405,-3.44529 10.47657,-3.44531 2.53123,2e-5 5.00388,0.32814 7.41796,0.98437 -2e-5,-1.96872 -0.76174,-3.50388 -2.28515,-4.60547 -1.50002,-1.10153 -3.59768,-1.65231 -6.29297,-1.65234 -3.98439,3e-5 -8.06251,1.12503 -12.23438,3.375 m 20.8125,15.57422 0,-5.90625 c -1.31252,-0.4453 -2.49611,-0.66795 -3.55078,-0.66797 -1.31252,2e-5 -2.3672,0.33986 -3.16406,1.01953 -0.79689,0.6797 -1.19533,1.57033 -1.19531,2.67188 -2e-5,1.14844 0.42186,2.10938 1.26562,2.88281 0.86717,0.77344 1.95701,1.16016 3.26953,1.16015 1.33592,10e-6 2.46092,-0.38671 3.375,-1.16015"
         style="font-size:72px;text-align:center;line-height:100%;text-anchor:middle;fill:#ffffff;stroke:#000000;font-family:Gill Sans Ultra Bold;-inkscape-font-specification:Gill Sans Ultra Bold"
         id="path6898"
         inkscape:connector-curvature="0" />
      <path
         d="m 418.92007,857.10913 -21.72656,0 0,-53.64844 21.72656,0 0,53.64844"
         style="font-size:72px;text-align:center;line-height:100%;text-anchor:middle;fill:#ffffff;stroke:#000000;font-family:Gill Sans Ultra Bold;-inkscape-font-specification:Gill Sans Ultra Bold"
         id="path6900"
         inkscape:connector-curvature="0" />
      <path
         d="m 449.01382,857.74194 c -6.70314,0 -12.23438,-2.01562 -16.59375,-6.04687 -4.33594,-4.05468 -6.5039,-9.32811 -6.5039,-15.82031 0,-6.49216 2.14452,-11.77731 6.43359,-15.85547 4.28905,-4.07809 9.84373,-6.11715 16.66406,-6.11719 6.86716,4e-5 12.44528,2.0391 16.73438,6.11719 4.31245,4.07816 6.4687,9.36331 6.46875,15.85547 -5e-5,6.46876 -2.1563,11.73047 -6.46875,15.78515 -4.2891,4.05469 -9.86722,6.08203 -16.73438,6.08203 m 0,-27.14062 c -1.40627,2e-5 -2.55471,0.45706 -3.44531,1.37109 -0.86721,0.89065 -1.3008,2.05081 -1.30078,3.48047 -2e-5,1.42971 0.43357,2.58986 1.30078,3.48047 0.8906,0.89064 2.03904,1.33595 3.44531,1.33594 1.42966,1e-5 2.58982,-0.4453 3.48047,-1.33594 0.8906,-0.89061 1.33591,-2.05076 1.33594,-3.48047 -3e-5,-1.4531 -0.44534,-2.62497 -1.33594,-3.51562 -0.89065,-0.8906 -2.05081,-1.33592 -3.48047,-1.33594"
         style="font-size:72px;text-align:center;line-height:100%;text-anchor:middle;fill:#ffffff;stroke:#000000;font-family:Gill Sans Ultra Bold;-inkscape-font-specification:Gill Sans Ultra Bold"
         id="path6902"
         inkscape:connector-curvature="0" />
      <path
         d="m 470.84586,814.78101 21.72656,0 4.71094,10.79296 4.60546,-10.79296 21.72657,0 -18.35157,42.32812 -16.0664,0 -18.35156,-42.32812"
         style="font-size:72px;text-align:center;line-height:100%;text-anchor:middle;fill:#ffffff;stroke:#000000;font-family:Gill Sans Ultra Bold;-inkscape-font-specification:Gill Sans Ultra Bold"
         id="path6904"
         inkscape:connector-curvature="0" />
      <path
         d="m 567.52554,840.97241 0,7.41797 c -4.75785,6.23438 -11.6016,9.35156 -20.53125,9.35156 -7.35939,0 -13.27735,-2.03906 -17.7539,-6.11718 -4.47657,-4.10156 -6.71485,-9.49218 -6.71485,-16.17188 0,-6.35153 2.05078,-11.53122 6.15235,-15.53906 4.12498,-4.00777 9.46873,-6.01168 16.03125,-6.01172 3.35153,4e-5 6.457,0.56254 9.3164,1.6875 2.85934,1.12504 5.332,2.77738 7.41797,4.95703 2.0859,2.17972 3.62105,4.71097 4.60547,7.59375 0.98433,2.88284 1.47652,6.39846 1.47656,10.54688 l -22.18359,0 c 0.79685,2.15626 2.13278,3.84376 4.00781,5.0625 1.87497,1.21876 4.0195,1.82813 6.4336,1.82812 4.87495,10e-6 8.78901,-1.53514 11.74218,-4.60547 m -23.48437,-9.70312 10.23047,0 c -0.0938,-2.10935 -0.62113,-3.74997 -1.58203,-4.92188 -0.93754,-1.19528 -2.168,-1.79293 -3.69141,-1.79297 -1.33597,4e-5 -2.49612,0.57425 -3.48047,1.72266 -0.9844,1.12503 -1.47659,2.78909 -1.47656,4.99219"
         style="font-size:72px;text-align:center;line-height:100%;text-anchor:middle;fill:#ffffff;stroke:#000000;font-family:Gill Sans Ultra Bold;-inkscape-font-specification:Gill Sans Ultra Bold"
         id="path6906"
         inkscape:connector-curvature="0" />
      <path
         d="m 570.68961,852.99585 4.85156,-11.88281 c 1.49999,2.01564 3.30468,3.59767 5.41406,4.74609 2.10936,1.12501 4.18358,1.68751 6.22266,1.6875 1.2656,10e-6 2.27342,-0.28124 3.02343,-0.84375 0.77342,-0.56249 1.16014,-1.28905 1.16016,-2.17969 -2e-5,-0.86717 -0.32815,-1.61717 -0.98437,-2.25 -0.63284,-0.65623 -2.33205,-1.38279 -5.09766,-2.17968 -2.78908,-0.79686 -5.07423,-1.66405 -6.85547,-2.60157 -1.78126,-0.96091 -3.26954,-2.36716 -4.46484,-4.21875 -1.17188,-1.85153 -1.75782,-3.86716 -1.75782,-6.04687 0,-4.21872 1.80469,-7.48825 5.41407,-9.8086 3.6328,-2.3437 8.71873,-3.51558 15.25781,-3.51562 7.35934,4e-5 13.65231,1.20707 18.87891,3.62109 l -5.20313,10.79297 c -3.42191,-3.07028 -6.72659,-4.60543 -9.91406,-4.60547 -1.05471,4e-5 -1.91018,0.23441 -2.56641,0.70313 -0.65627,0.46878 -0.9844,1.06644 -0.98437,1.79297 -3e-5,0.86721 0.3281,1.61721 0.98437,2.25 0.67966,0.63284 2.46091,1.31252 5.34375,2.03906 2.92966,0.72659 5.34372,1.55862 7.24219,2.49609 1.92184,0.93753 3.44527,2.34378 4.57031,4.21875 1.1484,1.87502 1.72262,4.01955 1.72266,6.4336 -4e-5,4.35938 -1.76957,7.80469 -5.3086,10.33593 -3.51565,2.50782 -8.07424,3.76172 -13.67578,3.76172 -7.59376,0 -15.35157,-1.58203 -23.27343,-4.74609"
         style="font-size:72px;text-align:center;line-height:100%;text-anchor:middle;fill:#ffffff;stroke:#000000;font-family:Gill Sans Ultra Bold;-inkscape-font-specification:Gill Sans Ultra Bold"
         id="path6908"
         inkscape:connector-curvature="0" />
      <path
         d="m 145.6857,886.78101 0,5.30859 c 3.5156,-3.7734 7.86325,-5.66011 13.04297,-5.66016 6.16402,5e-5 10.72261,2.43754 13.67578,7.3125 2.41401,-2.53121 4.82807,-4.38277 7.24219,-5.55468 2.43743,-1.17184 5.17962,-1.75777 8.22656,-1.75782 4.59368,5e-5 8.21477,1.40629 10.86328,4.21875 2.64836,2.81254 3.97257,6.77347 3.97266,11.88282 l 0,26.57812 -20.53125,0 0,-25.27734 c -7e-5,-1.49998 -0.37506,-2.66013 -1.125,-3.48047 -0.72663,-0.84372 -1.68756,-1.2656 -2.88282,-1.26563 -1.33599,3e-5 -2.66021,0.45706 -3.97265,1.3711 l 0,28.65234 -20.53125,0 0,-25.27734 c -4e-5,-1.47654 -0.36332,-2.63669 -1.08985,-3.48047 -0.70315,-0.84372 -1.67581,-1.2656 -2.91796,-1.26563 -1.2891,3e-5 -2.61331,0.4805 -3.97266,1.44141 l 0,28.58203 -21.72656,0 0,-42.32812 21.72656,0"
         style="font-size:72px;text-align:center;line-height:100%;text-anchor:middle;fill:#ffffff;stroke:#000000;font-family:Gill Sans Ultra Bold;-inkscape-font-specification:Gill Sans Ultra Bold"
         id="path6910"
         inkscape:connector-curvature="0" />
      <path
         d="m 254.00211,912.97241 0,7.41797 c -4.75786,6.23438 -11.6016,9.35156 -20.53125,9.35156 -7.3594,0 -13.27736,-2.03906 -17.75391,-6.11718 -4.47657,-4.10156 -6.71485,-9.49218 -6.71484,-16.17188 -10e-6,-6.35153 2.05077,-11.53122 6.15234,-15.53906 4.12499,-4.00777 9.46873,-6.01168 16.03125,-6.01172 3.35153,4e-5 6.457,0.56254 9.31641,1.6875 2.85933,1.12504 5.33199,2.77738 7.41796,4.95703 2.0859,2.17972 3.62105,4.71097 4.60547,7.59375 0.98433,2.88284 1.47652,6.39846 1.47657,10.54688 l -22.1836,0 c 0.79685,2.15626 2.13279,3.84376 4.00781,5.0625 1.87497,1.21876 4.0195,1.82813 6.4336,1.82812 4.87496,10e-6 8.78902,-1.53514 11.74219,-4.60547 m -23.48438,-9.70312 10.23047,0 c -0.0938,-2.10935 -0.62113,-3.74997 -1.58203,-4.92188 -0.93753,-1.19528 -2.168,-1.79293 -3.69141,-1.79297 -1.33596,4e-5 -2.49612,0.57425 -3.48047,1.72266 -0.9844,1.12503 -1.47658,2.78909 -1.47656,4.99219"
         style="font-size:72px;text-align:center;line-height:100%;text-anchor:middle;fill:#ffffff;stroke:#000000;font-family:Gill Sans Ultra Bold;-inkscape-font-specification:Gill Sans Ultra Bold"
         id="path6912"
         inkscape:connector-curvature="0" />
      <path
         d="m 282.51382,896.06226 c 2.7656,-6.42184 6.77341,-9.63277 12.02344,-9.63282 2.92965,5e-5 5.34371,0.96098 7.24219,2.88282 1.89839,1.92191 2.84761,4.35941 2.84766,7.3125 -5e-5,3.09378 -0.93755,5.60159 -2.8125,7.52343 -1.85161,1.89846 -4.27739,2.84768 -7.27735,2.84766 -3.42191,2e-5 -6.35159,-1.28904 -8.78906,-3.86719 -2.15628,1.82815 -3.2344,5.22659 -3.23438,10.19531 l 0,15.78516 -21.72656,0 0,-42.32812 21.72656,0 0,9.28125"
         style="font-size:72px;text-align:center;line-height:100%;text-anchor:middle;fill:#ffffff;stroke:#000000;font-family:Gill Sans Ultra Bold;-inkscape-font-specification:Gill Sans Ultra Bold"
         id="path6914"
         inkscape:connector-curvature="0" />
      <path
         d="m 329.0607,886.78101 0,5.30859 c 3.5156,-3.7734 7.86325,-5.66011 13.04297,-5.66016 6.16402,5e-5 10.72261,2.43754 13.67578,7.3125 2.41401,-2.53121 4.82807,-4.38277 7.24219,-5.55468 2.43743,-1.17184 5.17962,-1.75777 8.22656,-1.75782 4.59368,5e-5 8.21477,1.40629 10.86328,4.21875 2.64836,2.81254 3.97257,6.77347 3.97266,11.88282 l 0,26.57812 -20.53125,0 0,-25.27734 c -7e-5,-1.49998 -0.37506,-2.66013 -1.125,-3.48047 -0.72663,-0.84372 -1.68756,-1.2656 -2.88282,-1.26563 -1.33599,3e-5 -2.66021,0.45706 -3.97265,1.3711 l 0,28.65234 -20.53125,0 0,-25.27734 c -4e-5,-1.47654 -0.36332,-2.63669 -1.08985,-3.48047 -0.70315,-0.84372 -1.67581,-1.2656 -2.91796,-1.26563 -1.2891,3e-5 -2.61331,0.4805 -3.97266,1.44141 l 0,28.58203 -21.72656,0 0,-42.32812 21.72656,0"
         style="font-size:72px;text-align:center;line-height:100%;text-anchor:middle;fill:#ffffff;stroke:#000000;font-family:Gill Sans Ultra Bold;-inkscape-font-specification:Gill Sans Ultra Bold"
         id="path6916"
         inkscape:connector-curvature="0" />
      <path
         d="m 394.24039,904.18335 0,-12.72656 c 6.14061,-3.35152 13.10154,-5.0273 20.88281,-5.02735 7.40622,5e-5 12.86715,1.58208 16.38281,4.7461 3.51558,3.16409 5.27339,8.00393 5.27344,14.51953 l 0,23.41406 -21.72656,0 0,-3.16406 c -3.21096,2.34375 -6.7383,3.51562 -10.58203,3.51562 -3.23439,0 -5.9297,-1.04296 -8.08594,-3.1289 -2.15626,-2.10937 -3.23438,-4.75781 -3.23438,-7.94532 0,-3.63279 1.33594,-6.58592 4.00782,-8.85937 2.67186,-2.29685 6.16404,-3.44529 10.47656,-3.44531 2.53123,2e-5 5.00388,0.32814 7.41797,0.98437 -3e-5,-1.96872 -0.76175,-3.50388 -2.28516,-4.60547 -1.50002,-1.10153 -3.59767,-1.65231 -6.29297,-1.65234 -3.98439,3e-5 -8.06251,1.12503 -12.23437,3.375 m 20.8125,15.57422 0,-5.90625 c -1.31253,-0.4453 -2.49612,-0.66795 -3.55078,-0.66797 -1.31252,2e-5 -2.36721,0.33986 -3.16407,1.01953 -0.79689,0.6797 -1.19533,1.57033 -1.19531,2.67188 -2e-5,1.14844 0.42186,2.10938 1.26563,2.88281 0.86716,0.77344 1.95701,1.16016 3.26953,1.16015 1.33591,10e-6 2.46091,-0.38671 3.375,-1.16015"
         style="font-size:72px;text-align:center;line-height:100%;text-anchor:middle;fill:#ffffff;stroke:#000000;font-family:Gill Sans Ultra Bold;-inkscape-font-specification:Gill Sans Ultra Bold"
         id="path6918"
         inkscape:connector-curvature="0" />
      <path
         d="m 460.47476,886.92163 c -1.68752,4e-5 -3.14064,-0.60933 -4.35937,-1.82812 -1.21877,-1.21871 -1.82814,-2.67183 -1.82813,-4.35938 -1e-5,-1.68745 0.60936,-3.12885 1.82813,-4.32422 1.21873,-1.19526 2.67185,-1.79291 4.35937,-1.79297 1.68748,6e-5 3.12889,0.59771 4.32422,1.79297 1.19529,1.19537 1.79294,2.63677 1.79297,4.32422 -3e-5,1.68755 -0.59768,3.14067 -1.79297,4.35938 -1.19533,1.21879 -2.63674,1.82816 -4.32422,1.82812 m 6.25781,-0.14062 0,42.32812 -21.72656,0 0,-42.32812 c 2.85937,1.61722 6.57421,2.42582 11.14453,2.42578 4.24217,4e-5 7.76951,-0.80856 10.58203,-2.42578"
         style="font-size:72px;text-align:center;line-height:100%;text-anchor:middle;fill:#ffffff;stroke:#000000;font-family:Gill Sans Ultra Bold;-inkscape-font-specification:Gill Sans Ultra Bold"
         id="path6920"
         inkscape:connector-curvature="0" />
      <path
         d="m 524.56461,875.46069 0,53.64844 -25.83985,0 c -7.89846,0 -14.02736,-2.03906 -18.38672,-6.11719 -4.35938,-4.07811 -6.53906,-9.21092 -6.53906,-15.39843 0,-6.02341 1.98046,-11.05075 5.94141,-15.08204 3.98436,-4.05464 8.94139,-6.08198 14.87109,-6.08203 3.28122,5e-5 6.01169,0.50395 8.19141,1.51172 l 0,-12.48047 21.76172,0 m -21.76172,38.25 0,-9.52734 c -1.07816,-0.7031 -2.29691,-1.05466 -3.65625,-1.05469 -1.28909,3e-5 -2.3555,0.51565 -3.19922,1.54688 -0.84378,1.00783 -1.26565,2.28518 -1.26563,3.83203 -2e-5,1.8047 0.50389,3.12892 1.51172,3.97265 1.03123,0.82033 2.66013,1.23049 4.88672,1.23047 l 1.72266,0"
         style="font-size:72px;text-align:center;line-height:100%;text-anchor:middle;fill:#ffffff;stroke:#000000;font-family:Gill Sans Ultra Bold;-inkscape-font-specification:Gill Sans Ultra Bold"
         id="path6922"
         inkscape:connector-curvature="0" />
      <path
         d="m 529.13492,924.99585 4.85156,-11.88281 c 1.49999,2.01564 3.30468,3.59767 5.41406,4.74609 2.10937,1.12501 4.18358,1.68751 6.22266,1.6875 1.26561,10e-6 2.27342,-0.28124 3.02344,-0.84375 0.77341,-0.56249 1.16013,-1.28905 1.16015,-2.17969 -2e-5,-0.86717 -0.32814,-1.61717 -0.98437,-2.25 -0.63283,-0.65623 -2.33205,-1.38279 -5.09766,-2.17968 -2.78907,-0.79686 -5.07423,-1.66405 -6.85547,-2.60157 -1.78125,-0.96091 -3.26953,-2.36716 -4.46484,-4.21875 -1.17188,-1.85153 -1.75781,-3.86716 -1.75781,-6.04687 0,-4.21872 1.80468,-7.48825 5.41406,-9.8086 3.6328,-2.3437 8.71873,-3.51558 15.25781,-3.51562 7.35935,4e-5 13.65231,1.20707 18.87891,3.62109 l -5.20313,10.79297 c -3.4219,-3.07028 -6.72659,-4.60543 -9.91406,-4.60547 -1.05471,4e-5 -1.91018,0.23441 -2.56641,0.70313 -0.65627,0.46878 -0.98439,1.06644 -0.98437,1.79297 -2e-5,0.86721 0.3281,1.61721 0.98437,2.25 0.67967,0.63284 2.46092,1.31252 5.34375,2.03906 2.92966,0.72659 5.34372,1.55862 7.24219,2.49609 1.92184,0.93753 3.44527,2.34378 4.57031,4.21875 1.1484,1.87502 1.72262,4.01955 1.72266,6.4336 -4e-5,4.35938 -1.76957,7.80469 -5.30859,10.33593 -3.51566,2.50782 -8.07425,3.76172 -13.67578,3.76172 -7.59377,0 -15.35158,-1.58203 -23.27344,-4.74609"
         style="font-size:72px;text-align:center;line-height:100%;text-anchor:middle;fill:#ffffff;stroke:#000000;font-family:Gill Sans Ultra Bold;-inkscape-font-specification:Gill Sans Ultra Bold"
         id="path6924"
         inkscape:connector-curvature="0" />
      <path
         d="m 584.82242,913.71069 c -6.04688,-10.10153 -9.07032,-18.26949 -9.07031,-24.5039 -10e-6,-4.24215 1.12499,-7.73433 3.375,-10.47657 2.24999,-2.74213 5.10936,-4.11322 8.57812,-4.11328 3.35155,6e-5 6.1406,1.33599 8.36719,4.00782 2.24997,2.67192 3.37497,6.05863 3.375,10.16015 -3e-5,7.00785 -3.0469,15.31643 -9.14063,24.92578 1.78123,0.67971 3.16405,1.72267 4.14844,3.12891 1.00779,1.40626 1.5117,3.00001 1.51172,4.78125 -2e-5,2.29688 -0.82034,4.26563 -2.46094,5.90625 -1.6172,1.64062 -3.57423,2.46094 -5.87109,2.46094 -2.29689,0 -4.27736,-0.82032 -5.94141,-2.46094 -1.66407,-1.64062 -2.4961,-3.60937 -2.49609,-5.90625 -10e-6,-1.7578 0.49218,-3.33983 1.47656,-4.74609 0.98437,-1.42968 2.36718,-2.48436 4.14844,-3.16407"
         style="font-size:72px;text-align:center;line-height:100%;text-anchor:middle;fill:#ffffff;stroke:#000000;font-family:Gill Sans Ultra Bold;-inkscape-font-specification:Gill Sans Ultra Bold"
         id="path6926"
         inkscape:connector-curvature="0" />
    </g>
    <path
       style="fill:none;stroke:#000000;stroke-width:1px;stroke-linecap:butt;stroke-linejoin:miter;stroke-opacity:1"
       d="m 153.93375,118.17164 c 0,0 -6.04245,-3.37532 -31.76411,9.77357 -25.129893,12.84637 -47.905272,49.07522 -47.905272,73.50915 0,22.61611 7.009466,35.0788 9.000747,48.04615 1.99128,12.96735 -1.035625,26.43935 -1.035625,26.43935 0,0 10.583715,-12.23552 7.450453,-26.87645 C 87.828695,240.413 86.933,232.19664 86.933,232.19664 c 0,0 6.953762,26.94552 10.802715,33.39304 4.375875,7.33018 18.525315,15.89686 18.525315,15.89686 0,0 -11.70605,-17.163 -14.45299,-28.11383 -2.377962,-9.47987 -2.658075,-21.41305 -2.658075,-21.41305 0,0 5.157625,17.07835 8.359325,25.48537 3.5614,9.35153 15.47482,26.87733 15.47482,26.87733 0,0 -7.33018,-26.06286 -8.95911,-38.27983 -1.62893,-12.21696 -9.77357,-47.23893 0,-70.04393 9.77357,-22.805 25.6826,-37.49875 25.6826,-37.49875"
       id="path6295"
       inkscape:connector-curvature="0"
       sodipodi:nodetypes="cssscscscscscssc" />
  </g>
  <g
     inkscape:groupmode="layer"
     id="layer19"
     inkscape:label="Outline"
     style="display:inline"
     sodipodi:insensitive="true">
    <path
       style="fill:none;stroke:#000000;stroke-width:5;stroke-linecap:round;stroke-linejoin:miter;stroke-miterlimit:4;stroke-opacity:1;stroke-dasharray:none;display:inline"
       d="m 326.25,76.625 c -5.71424,0.0052 -10.14582,5.206683 -11.59375,9.875 -5.09218,-1.728986 -9.74334,1.889809 -14.68198,-0.412989 -13.16341,-1.408125 -26.92591,-6.438733 -39.94302,-2.212011 -4.05257,1.048003 -7.62185,3.843227 -11.09375,5.625 -17.16311,-4.099328 -36.33723,-2.102422 -50.875,8.3125 -9.46029,5.99577 -20.92105,8.31106 -30.84313,13.67407 -1.971,0.65316 -6.28392,4.16621 -4.81312,-0.14282 1.37959,-4.14852 4.29008,-8.92095 -1.91147,-4.39355 -3.89928,1.67356 -6.5567,5.24468 -8.15103,8.8623 -12.96797,0.42697 -24.86442,7.10301 -35.96875,13.125 -21.119358,14.20812 -36.53143,36.67891 -42.8125,61.21875 -4.389421,19.83576 2.876735,39.54395 7.53125,58.53125 2.029792,11.3171 -0.0015,22.69019 -1.9375,33.84375 6.774249,-6.8681 12.136371,-15.58039 13,-25.34375 1.217869,5.09351 4.265959,9.59645 6.46875,14.0625 7.56563,33.27971 33.73869,57.92126 47.52764,88.42848 3.64548,7.10058 2.46744,15.21984 -1.09014,22.00902 -4.06073,10.29469 -12.67535,21.61905 -25.0625,19.6875 -6.76867,-0.20652 -13.37163,-1.17384 -20.03125,-2.375 9.74677,11.74163 25.90591,19.28355 41.03125,13.875 4.32184,-0.98118 10.0691,-2.97616 13.4375,-3.65625 -11.74496,12.31607 -31.34901,10.2362 -45.34375,3.09375 -7.28232,-3.39707 -4.38067,1.76297 -0.5625,4.65625 15.11115,11.36538 32.26841,19.09916 49.60935,12.77348 -3.93816,5.57797 -2.36249,5.11231 -4.5156,11.35152 -7.72463,17.42909 -14.37926,35.4931 -16.8125,54.4375 -0.0309,14.42807 0.39115,28.85513 0.625,43.28125 -10.64914,11.19921 -22.03029,22.06078 -28.50184,36.31985 -6.33452,12.54377 -13.833526,25.5184 -13.658749,39.92175 -0.831003,6.86405 -2.364412,13.71155 -3.745661,20.41465 -12.182201,3.67606 -26.069211,4.03133 -36.1875,12.53125 -8.752892,7.65709 -20.558646,6.95902 -30.5625,11.5625 -5.396659,1.44114 -6.810233,10.13683 -0.9375,11.75 6.606498,0.73129 13.336972,-2.02683 19.90625,-2.9375 -6.36795,5.15045 -13.217945,10.26507 -17.96875,16.90625 -2.886693,5.04015 1.755854,14.72858 8.09375,11.34375 3.481405,-2.19373 11.166479,-7.35311 4.432159,-1.12597 -5.188947,4.92557 -12.04693,11.44418 -9.150909,19.34472 1.369204,4.74769 6.469053,11.82536 12.03125,8.78125 1.743157,-1.97292 3.145744,-3.32924 5.03125,-0.78125 6.399096,4.01844 11.563187,-4.23708 16.15625,-7.3125 14.627001,-12.85989 30.727992,-23.76635 44.3308,-37.81672 4.21886,-5.99241 3.13139,4.8609 4.51295,7.59797 1.5117,6.03067 1.66873,12.26296 1.96875,18.28125 3.93955,6.09557 12.05467,8.92628 19.09375,8.59375 6.25996,-2.4563 4.66696,-11.0032 4.46875,-16.375 -0.96159,-8.18778 -3.38479,-16.65254 -3.65625,-24.5 10.50691,22.96902 31.40165,39.33164 53.15625,51.09375 21.76086,10.21241 45.97958,14.20994 69.46797,18.98152 31.46629,5.23294 64.54652,10.87699 95.74424,1.08991 25.7872,-7.66777 50.01796,-20.0242 73.78779,-32.19643 16.53861,-10.1677 33.78377,-22.24456 41.5625,-40.6875 3.42153,-9.92117 0.90774,-20.99641 4.81215,-30.83474 0.8934,-5.74238 8.43188,-4.39772 12.6566,-6.41526 21.19138,-5.41983 43.67801,-6.85677 64.90625,-0.8125 23.25158,4.53598 48.77649,11.86948 71.59375,2 18.25901,-9.03702 29.39512,-27.12338 41.15959,-43.13701 10.45768,-14.32611 18.4302,-30.52138 29.93416,-44.05049 11.19302,-8.77193 26.16095,-9.38144 39.84375,-9.6875 -16.22722,-14.99965 -34.60423,-30.22197 -57.03125,-33.8125 -28.85215,-2.58088 -59.99182,-2.99052 -85.59375,12.375 -10.08419,5.81752 -18.63977,13.88501 -27.6875,21.1875 17.43365,-26.19595 29.90184,-56.88519 30.78125,-88.625 0.28225,-8.6428 -1.52434,-17.18404 -6.03125,-24.5 -3.52857,-7.7079 -1.52924,-16.42361 -2.75083,-24.31077 -1.77519,-3.28241 -4.25079,5.60623 -4.65542,8.40452 -4.00169,13.95014 -6.45844,29.63714 -17.82235,39.72234 -20.30207,21.34294 -42.80791,41.69597 -61.80265,63.55891 1.58219,-5.38777 0.50683,-11.85992 -4.65625,-14.78125 -3.27472,-15.59019 -7.92646,-31.37941 -18.71875,-43.5625 -20.72926,-25.70315 -40.79958,-53.49358 -67.9375,-72.21875 7.24527,-3.02363 13.06423,-8.66251 18.46875,-14.25 -5.27623,1.20472 -7.55088,2.10999 -1.6875,-0.0625 4.77847,-1.6681 8.7244,-4.94273 12.75,-7.9375 -1.60445,-0.20424 -11.01998,1.81021 -7.65625,0.1875 4.75924,-2.49156 7.99716,-6.8431 10.90625,-11.21875 C 428.1745,350.23391 413.24527,353.95336 402,345.5 c -5.77728,-11.50431 -0.11905,-24.72071 0.48332,-36.82227 2.25312,-13.34674 1.04201,-26.75563 -0.12486,-40.11025 -2.6605,-41.47884 -1.07351,-84.78784 -17.26471,-123.75498 -5.06662,-9.06657 -10.96584,-17.91208 -19.6875,-23.75 -5.33922,-3.78449 -0.80194,-2.53145 2.34375,-1.28125 11.59488,6.02947 15.02282,20.18603 20.7797,30.93984 13.69205,29.18972 27.98117,58.01465 40.00155,87.99766 3.14902,7.92602 4.09841,3.23734 3.78125,-2.5625 -4.62454,-27.29751 -14.67373,-53.46362 -23.1875,-79.71875 10.11145,5.33531 12.63885,17.27619 18.34375,26.25 1.3872,-15.09315 -1.06391,-32.35654 -13.1875,-42.6875 -5.62888,-5.73507 -11.78964,-10.95956 -18.0625,-16.0625 15.09661,-6.17596 31.94597,-4.01638 47.03125,1.09375 -4.74888,-13.50885 -20.01262,-18.27848 -33.09106,-18.16626 -3.28068,-0.0599 -7.75621,0.20141 -2.22144,-1.58374 14.72531,-6.550729 31.22022,-1.14567 46.61716,-0.34381 4.02799,0.77564 17.7875,2.11336 8.68364,-2.55462 C 424.95822,85.734219 381.08652,79.558396 340.03125,88.90625 338.64484,87.882594 339.00188,83.182616 336.6875,81.3125 334.26682,78.135316 330.19152,76.317789 326.25,76.625 z m 92.5625,291.09375 c -3.55668,1.01587 -4.00058,0.84717 0,0 z M 399.78125,476.3125 c 10.55981,9.95306 24.39972,16.6258 36.925,23.8125 -10.84225,1.79346 -22.94884,2.5793 -32.59949,7.84826 -8.97766,4.25465 -7.32259,-3.32937 -6.66675,-9.80084 0.41584,-7.66163 0.83217,-15.32333 1.24749,-22.98492 l 0.69708,0.71699 z M 193.5,542.5 c 3.93165,11.11508 7.46953,22.47004 11.3125,33.65625 -7.64316,-0.92885 -18.76134,0.52674 -20.25,9.75 -0.42019,1.59631 -1.28509,7.98289 0.44669,9.31527 3.37508,2.59667 -0.62691,2.18664 -3.20747,2.58044 -3.68054,0.89215 -12.53131,3.56927 -18.48922,7.35429 5.16645,-11.56759 12.19324,-22.72511 15.1875,-35.03125 0.68128,-6.59174 9.03894,-8.42016 10.5,-14.8125 1.82182,-4.43231 2.96528,-9.11579 4.1875,-13.75 z m 275.84375,14 c -9.72073,19.73805 -16.14394,42.03395 -12,64.125 0.37395,4.6981 2.42694,9.39007 3.15625,13.78125 -4.48046,9.2696 -5.38752,20.50601 -11.6875,28.75 -13.42074,8.62685 -28.0443,16.79842 -44.25,17.875 1.93209,-7.08891 3.49422,-14.18247 5.3125,-21.1875 -0.44543,-19.32292 -10.73786,-36.78429 -14.75,-55.375 8.68225,0.54684 18.2118,4.08142 26.625,0.5625 4.94135,-4.26593 -0.88927,-10.42717 -3.44846,-14.22548 -4.04265,-3.74024 -3.49388,-11.18749 -9.58279,-12.68077 -4.73675,-1.25277 7.24241,-2.40206 8.73123,-3.65808 17.90489,-5.84874 36.84051,-10.22616 52.92502,-20.09192 -0.34375,0.70833 -0.6875,1.41667 -1.03125,2.125 z m -339.375,92.90625 c -0.81397,3.63273 -0.0272,9.89332 -0.0312,11.96875 -2.51163,-2.46723 -4.62008,-5.32027 -5.59375,-8.78125 1.38588,-0.48051 5.64437,-4.83947 5.625,-3.1875 z"
       id="path5034-6"
       inkscape:connector-curvature="0"
       sodipodi:nodetypes="ccccccccccccccccccccccccccccccccccccccccccccccccccccccccccccccccccccccccccccccccccccccccccccccccccccccccccccccscccccccccccccccccccccccc" />
    <text
       xml:space="preserve"
       style="font-size:40px;font-style:normal;font-variant:normal;font-weight:bold;font-stretch:normal;line-height:100%;letter-spacing:0px;word-spacing:0px;fill:#000000;fill-opacity:1;stroke:none;display:inline;font-family:Arial;-inkscape-font-specification:Arial Bold"
       x="361.15836"
       y="857.10913"
       id="text6299-4"
       sodipodi:linespacing="100%"><tspan
         sodipodi:role="line"
         id="tspan6301-4"
         x="373.18179"
         y="857.10913"
         style="font-size:72px;text-align:center;line-height:100%;text-anchor:middle;fill:none;stroke:#000000;font-family:Gill Sans Ultra Bold;-inkscape-font-specification:Gill Sans Ultra Bold">Leona loves </tspan><tspan
         sodipodi:role="line"
         x="361.15836"
         y="929.10913"
         style="font-size:72px;text-align:center;line-height:100%;text-anchor:middle;fill:none;stroke:#000000;font-family:Gill Sans Ultra Bold;-inkscape-font-specification:Gill Sans Ultra Bold"
         id="tspan6303-6">mermaids!</tspan></text>
  </g>
  <g
     inkscape:groupmode="layer"
     id="layer21"
     inkscape:label="fills">
    <path
       style="fill:#000000;stroke:none;display:inline"
       d="m 39.580273,690.34749 12.163693,-6.17838 -8.688352,9.8468 z"
       id="path6647"
       inkscape:connector-curvature="0" />
    <path
       style="fill:#000000;stroke:none"
       d="m 53.908593,665.22101 -5.197175,2.42104 1.678591,-2.35648 z"
       id="path6670"
       inkscape:connector-curvature="0" />
    <path
       style="fill:#000000;stroke:none"
       d="m 107.81716,673.87821 2.71287,-2.40283 0.23253,3.25544 z"
       id="path6674"
       inkscape:connector-curvature="0" />
    <path
       style="fill:#000000;stroke:none"
       d="m 129.75265,664.49943 1.4727,6.82093 3.64299,-0.46506 -2.09278,-6.27836 z"
       id="path6676"
       inkscape:connector-curvature="0" />
    <path
       style="fill:#000000;stroke:none"
       d="m 129.4426,646.28446 3.48798,-2.55785 -0.85262,4.49561 z"
       id="path6678"
       inkscape:connector-curvature="0" />
    <path
       style="fill:#000000;stroke:none"
       d="m 41.761455,666.23987 2.053842,4.10769 10.269211,-5.47691 z"
       id="path6682"
       inkscape:connector-curvature="0" />
    <path
       style="fill:#000000;stroke:none"
       d="m 186.12863,599.53536 5.17024,-0.7386 -3.01598,-2.95443 -1.84651,3.50838 0,0 0,0 0,0"
       id="path6684"
       inkscape:connector-curvature="0" />
    <path
       style="fill:#000000;stroke:none"
       d="m 406.14166,575.88015 -9.37634,1.92518 0.78433,0.78433 8.66331,0.71303 z"
       id="path6686"
       inkscape:connector-curvature="0" />
    <path
       style="fill:#000000;stroke:none"
       d="m 560.25166,534.45512 -7.57097,10.82825 1.93676,-0.35214 8.71542,-7.659 z"
       id="path6688"
       inkscape:connector-curvature="0" />
    <path
       style="fill:#000000;stroke:none"
       d="m 472.2722,550.57985 4.84495,-5.83596 -1.87191,4.84495 z"
       id="path6690"
       inkscape:connector-curvature="0" />
    <path
       style="fill:#000000;stroke:none"
       d="m 394.86316,507.08544 -0.77078,11.4517 10.46068,-8.03821 -9.6899,-2.75281 -0.11011,0 0,0 0,0 0,0"
       id="path6692"
       inkscape:connector-curvature="0" />
    <path
       style="fill:#000000;stroke:none"
       d="m 152.00381,406.8812 7.49315,-1.78408 -3.92498,6.77951 z"
       id="path6694"
       inkscape:connector-curvature="0" />
    <path
       style="fill:#000000;stroke:none"
       d="m 90.3618,258.18441 -0.368073,-7.91356 -2.208435,-12.20774 0.858836,0.79749 5.459742,18.28094 z"
       id="path6696"
       inkscape:connector-curvature="0" />
    <path
       style="fill:#000000;stroke:none"
       d="m 403.87501,105.07128 -6.30097,3.64434 6.67562,-0.30653 z"
       id="path6698"
       inkscape:connector-curvature="0" />
    <path
       style="fill:#000000;stroke:none"
       d="m 427.22205,357.10795 c 0,0 -4.76013,2.47161 -10.52722,2.10544 -5.76708,-0.36616 -17.8505,-2.38006 -17.8505,-2.38006 l 4.30243,2.19698 8.23869,1.73928 8.87948,0.64079 7.96408,-0.45771 z"
       id="path6702"
       inkscape:connector-curvature="0" />
    <path
       style="fill:#000000;stroke:none"
       d="m 419.53261,365.2551 c 0,0 -7.14021,2.01391 -8.6964,2.01391 -1.5562,0 -10.80185,-0.45771 -10.80185,-0.45771 l -9.52026,-1.37311 2.19698,1.55619 12.44958,2.74623 6.22479,1.0985 4.48551,-0.36617 2.65469,-0.82387 z"
       id="path6704"
       inkscape:connector-curvature="0" />
    <path
       style="fill:#000000;stroke:none"
       d="m 423.49507,364.91647 -4.19302,0.62895 -2.09651,1.46756 0.41931,2.51581 2.51581,0.4193 z"
       id="path6887"
       inkscape:connector-curvature="0" />
  </g>
</svg>
