<?xml version="1.0" encoding="UTF-8" standalone="no"?>
<!-- Created with Inkscape (http://www.inkscape.org/) -->

<svg
   xmlns:dc="http://purl.org/dc/elements/1.1/"
   xmlns:cc="http://creativecommons.org/ns#"
   xmlns:rdf="http://www.w3.org/1999/02/22-rdf-syntax-ns#"
   xmlns:svg="http://www.w3.org/2000/svg"
   xmlns="http://www.w3.org/2000/svg"
   xmlns:sodipodi="http://sodipodi.sourceforge.net/DTD/sodipodi-0.dtd"
   xmlns:inkscape="http://www.inkscape.org/namespaces/inkscape"
   width="744.09448819"
   height="1052.3622047"
   id="svg2"
   version="1.1"
   inkscape:version="0.48.2 r9819"
   sodipodi:docname="drawing.svg">
  <defs
     id="defs4" />
  <sodipodi:namedview
     id="base"
     pagecolor="#ffffff"
     bordercolor="#666666"
     borderopacity="1.0"
     inkscape:pageopacity="0.0"
     inkscape:pageshadow="2"
     inkscape:zoom="0.72607695"
     inkscape:cx="592.48887"
     inkscape:cy="601.86339"
     inkscape:document-units="px"
     inkscape:current-layer="layer1"
     showgrid="false"
     inkscape:window-width="1440"
     inkscape:window-height="852"
     inkscape:window-x="0"
     inkscape:window-y="0"
     inkscape:window-maximized="1" />
  <metadata
     id="metadata7">
    <rdf:RDF>
      <cc:Work
         rdf:about="">
        <dc:format>image/svg+xml</dc:format>
        <dc:type
           rdf:resource="http://purl.org/dc/dcmitype/StillImage" />
        <dc:title></dc:title>
      </cc:Work>
    </rdf:RDF>
  </metadata>
  <g
     inkscape:label="Orig"
     inkscape:groupmode="layer"
     id="layer1"
     style="display:inline">
    <path
       style="fill:#ffffff;stroke:#000000;stroke-width:1.37132025px;stroke-linecap:butt;stroke-linejoin:miter;stroke-opacity:1;display:inline"
       d="m 555.83794,669.31747 c 0,0 13.90808,-18.74862 29.51057,-34.87454 15.60249,-16.12591 59.4693,-45.21825 83.36147,-90.84436 23.89215,-45.62613 24.69104,-84.2552 17.46754,-95.84727 -7.22351,-11.59209 -4.55011,-28.41428 -4.55011,-28.41428 0,0 -6.06073,27.19651 -12.12291,38.77327 -6.06219,11.57679 -55.09935,54.44837 -78.27976,83.09279 -23.18039,28.64441 -40.83166,66.2582 -41.54268,91.04976 -0.71101,24.79157 6.15588,37.06463 6.15588,37.06463 z"
       id="path5034"
       inkscape:connector-curvature="0" />
    <path
       style="fill:none;stroke:#999999;stroke-width:1px;stroke-linecap:butt;stroke-linejoin:miter;stroke-opacity:1;display:inline"
       d="m 556.80461,667.16293 c 0,0 4.8682,-66.93826 39.55439,-103.45003 34.68619,-36.51178 66.93829,-65.11267 73.02359,-77.28327 6.08529,-12.17059 12.77912,-45.63972 12.77912,-45.63972"
       id="path5048"
       inkscape:connector-curvature="0" />
    <path
       style="fill:none;stroke:#999999;stroke-width:1px;stroke-linecap:butt;stroke-linejoin:miter;stroke-opacity:1;display:inline"
       d="m 558.63019,668.37999 c 0,0 19.47292,-57.20178 37.72881,-74.84914 18.25589,-17.64736 60.85299,-62.07002 68.15535,-74.84915 7.30235,-12.77912 24.94971,-52.33354 24.94971,-52.33354"
       id="path5050"
       inkscape:connector-curvature="0" />
    <path
       style="fill:none;stroke:#000000;stroke-width:1px;stroke-linecap:butt;stroke-linejoin:miter;stroke-opacity:1;display:inline"
       d="m 349.21875,81.4375 c -12.87694,0.286609 -21.375,8.15625 -21.375,8.15625 0,0 -14.37109,-4.800783 -34.3125,-0.8125 -6.56261,1.312522 -15.46128,6.02996 -24.8125,12.375 -12.13781,3.98217 -23.84218,8.45939 -34.34375,13.53125 -1.82736,0.61571 -3.68951,1.35776 -5.5,2.28125 -9.62044,-2.43006 -19.34713,-3.81269 -28.5625,-3.75 -14.65694,0.0997 -28.02187,3.88945 -37.59375,13.0625 -19.14376,18.3461 -35.90469,35.08515 -37.5,59.8125 -1.59532,24.72736 -0.77266,63.83983 6.40625,83.78125 7.17891,19.94141 18.33203,76.56953 14.34375,85.34375 -3.98828,8.77423 -4,13.5625 -4,13.5625 0,0 17.56406,-19.15858 15.96875,-32.71875 -1.59532,-13.56016 4.78125,-14.34375 4.78125,-14.34375 0,0 8.76641,11.94609 7.96875,19.125 -0.79765,7.17891 -0.78125,14.375 -0.78125,14.375 0,0 14.36485,-18.34296 8.78125,-35.09375 -5.5836,-16.75079 -34.2961,-42.30233 -35.09375,-68.625 -0.79766,-26.32266 7.15546,-55.02969 23.90625,-56.625 3.27423,-0.31183 7.37017,-2.20021 11.84375,-5 -8.22347,27.03385 -15.08563,59.44138 -11.03125,84.78125 6.38126,39.88283 45.475,110.85311 39.09375,133.1875 -6.38126,22.33438 -23.92968,32.70391 -31.90625,31.90625 -7.97656,-0.79765 -15.15625,-1.59375 -15.15625,-1.59375 0,0 14.35625,15.16094 33.5,10.375 19.14376,-4.78593 23.90625,-7.1875 23.90625,-7.1875 0,0 -3.96796,16.77812 -20.71875,19.96875 -16.75079,3.19063 -31.125,-3.21875 -31.125,-3.21875 0,0 19.14295,16.75781 48.65625,8.78125 4.00702,-1.08298 8.24786,-2.45458 12.5625,-4 0.0265,-0.0557 0.0672,-0.10078 0.0937,-0.15625 0.21957,-0.45901 0.4064,-0.90169 0.625,-1.34375 0.41624,-0.84547 0.83862,-1.66212 1.25,-2.4375 0.005,-0.31103 0.01,-0.61852 0.0312,-0.90625 0.065,-0.86319 0.21563,-1.60861 0.4375,-2.21875 4.46843,-12.28819 18.43845,-31.81676 31.84375,-36.84375 13.4053,-5.02698 49.14473,-12.85196 51.9375,-18.4375 2.50559,-5.01118 1.03086,-12.81262 0.6875,-14.4375 -7.58516,-3.22103 -27.91126,-8.69051 -39.625,-15.71875 -11.96485,-7.17891 -23.13203,-15.1539 -31.90625,-33.5 -2.5585,-5.34958 -5.55125,-16.21634 -8.46875,-29.3125 -6.2484,-0.15442 -17.20668,-6.3258 -25.03125,-10.59375 -8.77422,-4.78594 -17.57734,-34.30156 -18.375,-45.46875 -0.56818,-7.95447 6.96604,-15.08664 16.25,-18.25 3.96312,15.92639 17.28125,28.625 17.28125,28.625 0,0 6.37031,-19.12265 11.15625,-37.46875 4.78594,-18.3461 14.33906,-35.11875 19.125,-41.5 4.78594,-6.38126 9.59375,-13.5625 9.59375,-13.5625 0,0 5.57499,-3.18437 24.71875,-6.375 19.14376,-3.19063 22.34217,-8.77343 55.84375,-16.75 0,0 3.74567,-0.30485 10.25,-0.34375 3.9026,-0.0234 8.78544,0.0446 14.46875,0.34375 15.15547,0.79766 50.24608,9.57968 70.1875,23.9375 17.49848,12.59891 35.00654,73.05195 39.03125,87.6875 -2.79167,43.95114 -12.01421,81.22854 -19.875,91.03125 -9.62023,11.99681 -39.77659,24.48451 -50.5,31.4375 1.13238,-0.72602 2.45264,-1.4914 3.90625,-2.28125 -0.002,2.2389 0.15703,5.16013 0.71875,7.96875 l 1.65625,8.375 c 0,0 26.27462,-8.93356 43.03125,-8.375 12.2646,0.40882 24.52332,5.30789 32.40625,9.4375 10.38335,-3.07899 17.4375,-6.15625 17.4375,-6.15625 0,0 -17.04903,-0.0484 -32.125,-5.40625 0.96301,-2.06474 1.8559,-4.09152 2.6875,-6.09375 5.98106,1.0937 12.15924,1.90625 17.46875,1.90625 16.75079,0 27.90625,-2.375 27.90625,-2.375 0,0 -29.21666,-2.99305 -42.625,-6.8125 0.22726,-0.68982 0.42765,-1.36574 0.625,-2.03125 8.65395,1.61405 18.81308,3.25 24.46875,3.25 l 26.3125,0 c 0,0 -26.32656,-3.19922 -43.875,-7.1875 -1.95775,-0.44494 -3.66786,-3.26857 -5.125,-7.90625 2e-5,-0.0101 -1e-5,-0.0213 0,-0.0312 0.0147,-11.28632 9.00092,-50.35489 5.96875,-64.8125 -4.24081,-58.62735 -1.30592,-96.88503 -17.59375,-141.5625 -2.92959,-8.03587 -13.96875,-21.53125 -13.96875,-21.53125 l -6.53125,-4.96875 c -3.53449,-3.56099 -7.16891,-6.92902 -10.75,-10.0625 3.22728,0.71295 7.22646,1.7018 12.125,3.0625 14.35782,3.98828 19.92187,25.53124 35.875,57.4375 15.95313,31.90627 31.90625,70.96875 31.90625,70.96875 0,-15.95313 -26.3125,-90.9375 -26.3125,-90.9375 0,0 6.37031,2.40156 11.15625,7.1875 4.78594,4.78594 10.375,17.5625 10.375,17.5625 0,0 -0.0102,-15.97422 -5.59375,-26.34375 -5.5836,-10.36954 -30.28125,-29.5 -30.28125,-29.5 0,0 13.53515,-5.59375 25.5,-5.59375 11.96485,0 24.75,4 24.75,4 0,0 -3.2078,-7.16797 -14.375,-11.15625 -11.16719,-3.98829 -31.09375,-2.40625 -31.09375,-2.40625 0,0 14.34453,-10.360157 29.5,-9.5625 15.15548,0.797656 39.875,3.96875 39.875,3.96875 0,0 -39.86092,-18.34375 -86.125,-18.34375 -27.70574,0 -44.2157,4.280408 -53.03125,7.71875 -10.58857,-4.10013 -22.01185,-7.929608 -25.9375,-5.3125 -0.23939,0.159595 -0.47994,0.333238 -0.6875,0.53125 -12.88751,-2.682649 -26.2813,-4.457242 -34.40625,-5.3125 -1.42083,-0.149561 -2.82415,-0.217149 -4.15625,-0.1875 z"
       id="path3086"
       inkscape:connector-curvature="0" />
    <path
       style="fill:none;stroke:#000000;stroke-width:1px;stroke-linecap:butt;stroke-linejoin:miter;stroke-opacity:1;display:inline"
       d="m 354.84375,145.875 c -6.50433,0.0389 -10.25,0.34375 -10.25,0.34375 -33.50158,7.97657 -36.69999,13.55937 -55.84375,16.75 -19.14376,3.19063 -24.71875,6.375 -24.71875,6.375 0,0 -4.80781,7.18124 -9.59375,13.5625 -4.78594,6.38125 -14.33906,23.1539 -19.125,41.5 -4.78594,18.3461 -11.15625,37.46875 -11.15625,37.46875 0,0 -13.31813,-12.69861 -17.28125,-28.625 -9.28396,3.16336 -16.81818,10.29553 -16.25,18.25 0.79766,11.16719 9.60078,40.68281 18.375,45.46875 7.82457,4.26795 18.78285,10.43933 25.03125,10.59375 2.9175,13.09616 5.91025,23.96292 8.46875,29.3125 8.77422,18.3461 19.9414,26.32109 31.90625,33.5 11.96485,7.17891 32.9352,12.74687 40.11411,15.9375 7.17891,3.19063 19.13047,11.1629 29.5,12.75821 10.36954,1.59531 12.44793,0.87285 22.0898,-0.2227 14.04032,-1.59532 31.86962,-11.24275 40.70234,-17.62137 9.32853,-6.73666 41.80132,-19.81847 51.84375,-32.34178 7.86079,-9.80271 17.08333,-47.08997 19.875,-91.04111 -4.02471,-14.63555 -21.53277,-75.08859 -39.03125,-87.6875 -19.94142,-14.35782 -55.03203,-23.13984 -70.1875,-23.9375 -5.68331,-0.29912 -10.56615,-0.36712 -14.46875,-0.34375 z"
       id="path3096"
       inkscape:connector-curvature="0"
       sodipodi:nodetypes="scscssccsscssssssscsss" />
    <path
       style="fill:none;stroke:#000000;display:inline"
       d="m 200.3125,113.21875 c -14.65694,0.0997 -28.02187,3.88945 -37.59375,13.0625 -19.14376,18.3461 -35.90469,35.08515 -37.5,59.8125 -1.59532,24.72736 -0.77266,63.83983 6.40625,83.78125 7.17891,19.94141 18.33203,76.56953 14.34375,85.34375 -3.98828,8.77423 -4,13.5625 -4,13.5625 0,0 17.56406,-19.15858 15.96875,-32.71875 -1.59532,-13.56016 4.78125,-14.34375 4.78125,-14.34375 0,0 8.76641,11.94609 7.96875,19.125 -0.79765,7.17891 -0.78125,14.375 -0.78125,14.375 0,0 14.36485,-18.34296 8.78125,-35.09375 -5.5836,-16.75079 -34.2961,-42.30233 -35.09375,-68.625 -0.79766,-26.32266 7.15546,-55.02969 23.90625,-56.625 14.26154,-1.35824 44.12024,-32.17213 52.8125,-41.4375 6.11774,2.82667 15.75721,1.28434 20.59375,-5.625 5.5836,-7.97657 7.95234,-11.94452 8.75,-20.71875 0.79765,-8.77422 -3.17968,-15.15781 -11.15625,-13.5625 -3.04231,0.60847 -6.41755,1.80145 -9.625,3.4375 -9.62044,-2.43006 -19.34713,-3.81269 -28.5625,-3.75 z"
       id="path3078"
       inkscape:connector-curvature="0" />
    <path
       style="fill:none;stroke:#000000;display:inline"
       d="m 216.9626,127.87818 c -1.59532,18.3461 -4.78594,19.14376 0.79765,23.9297 5.5836,4.78594 17.54845,3.98828 23.13204,-3.98828 5.5836,-7.97657 7.97657,-11.96485 8.77423,-20.73908 0.79765,-8.77422 -3.19063,-15.15547 -11.1672,-13.56016 -7.97656,1.59532 -18.3461,7.17891 -21.53672,14.35782 z"
       id="path3318"
       inkscape:connector-curvature="0" />
    <path
       style="fill:none;stroke:#000000;display:inline"
       d="m 425.94863,95.174261 c -11.96485,-4.78594 -27.91799,-11.167193 -32.70392,-7.976566 -4.78594,3.190626 -3.19063,14.357825 3.98828,21.536735 7.17891,7.17891 25.52501,15.15547 31.90626,11.96484 6.38126,-3.19062 15.15548,-1.59531 11.96485,-10.36953 -3.19063,-8.77422 -13.56016,-13.560166 -15.15547,-15.155479 z"
       id="path3320"
       inkscape:connector-curvature="0" />
    <path
       style="fill:#000000;stroke:none;display:inline"
       d="m 312.68139,252.31261 c 0,0 -2.46105,-2.31752 -19.54259,-1.19649 -18.44587,1.21057 -39.68341,13.36076 -39.68341,13.36076 0,0 17.29191,-6.88079 25.52501,-8.3754 4.80482,-0.87225 12.74729,-1.08151 17.54844,-1.19648 3.07805,-0.0737 10.56896,0.39883 16.15255,-2.59239 z"
       id="path3423"
       inkscape:connector-curvature="0"
       sodipodi:nodetypes="cscssc" />
    <path
       style="fill:#000000;stroke:none;display:inline"
       d="m 383.67283,246.72901 c 0,0 14.35781,-7.97656 23.13204,-9.57187 8.77422,-1.59532 22.33438,-1.59532 22.33438,-1.59532 0,0 -8.16747,1.27045 -12.16427,1.79473 -2.52045,0.33062 -7.52788,2.64223 -11.71557,2.91643 -4.1877,0.27419 -11.11734,2.26833 -13.21119,3.06599 -3.727,1.41981 -8.37539,3.39004 -8.37539,3.39004 z"
       id="path3425"
       inkscape:connector-curvature="0"
       sodipodi:nodetypes="cscsssc" />
    <path
       style="fill:#000000;stroke:none;display:inline"
       d="m 322.05385,281.02825 c 0,0 -2.79179,8.17598 -7.97656,13.95899 -5.18477,5.78301 -7.37833,9.17305 -7.37833,9.17305 0,0 2.19356,-1.3959 3.98829,-2.59238 1.79472,-1.19649 1.59531,2.99121 1.59531,4.38711 0,1.3959 0.99707,18.14668 -0.39883,23.33145 -1.3959,5.18477 -6.18184,17.94728 -6.18184,17.94728 0,0 7.97657,-17.74786 7.97657,-26.52209 0,-8.77422 -1.19649,-20.34024 0,-22.33438 1.19648,-1.99414 6.97949,-8.77422 8.37539,-17.34903 z"
       id="path3427"
       inkscape:connector-curvature="0" />
    <path
       style="fill:#000000;stroke:none;display:inline"
       d="m 374.30036,273.2511 c 0,0 6.38125,4.38711 11.56602,12.7625 5.18477,8.3754 6.9795,17.54845 7.77715,21.53673 0.79766,3.98828 2.19356,16.75079 2.19356,16.75079 0,0 -3.58946,-26.7215 -9.7713,-33.90041 -6.18183,-7.17891 -9.57188,-9.77129 -9.57188,-9.77129 0,0 10e-6,-3.58946 -2.19355,-7.37832 z"
       id="path3429"
       inkscape:connector-curvature="0"
       sodipodi:nodetypes="csscscc" />
    <path
       style="fill:#000000;stroke:none;display:inline"
       d="m 376.89274,269.46223 c 0,0 -4.58652,1.3959 -5.98242,4.18769 -1.3959,2.7918 -2.39297,5.78301 -2.39297,7.97657 0,2.19356 0.19941,2.59238 0.19941,2.59238 0,0 1.79473,-6.58066 3.39005,-7.97656 1.59531,-1.3959 4.38711,-1.3959 4.38711,-1.3959 z"
       id="path3431"
       inkscape:connector-curvature="0" />
    <path
       style="fill:#000000;stroke:none;display:inline"
       d="m 370.31208,256.10148 c 0,0 -13.16134,6.38125 -22.73322,6.78008 -9.57187,0.39883 -19.742,-3.19063 -19.742,-3.19063 0,0 9.17305,4.98536 18.74493,4.1877 9.57188,-0.79766 23.73029,-7.77715 23.73029,-7.77715 z"
       id="path3435"
       inkscape:connector-curvature="0" />
    <path
       style="fill:#000000;stroke:none;display:inline"
       d="m 372.30622,256.10148 c 0,0 -8.37539,11.96485 -22.5338,13.56016 -14.1584,1.59531 -30.11154,-7.37832 -30.11154,-7.37832 0,0 13.36075,11.76543 28.1174,9.9707 14.75665,-1.79472 24.52794,-16.15254 24.52794,-16.15254 z"
       id="path3437"
       inkscape:connector-curvature="0" />
    <path
       style="fill:none;stroke:#000000;stroke-width:1px;stroke-linecap:butt;stroke-linejoin:miter;stroke-opacity:1;display:inline"
       d="m 376.69333,280.82883 c 0,0 4.1877,10.56895 -3.98828,10.76837 -8.17598,0.19941 -11.56602,1.99414 -14.35782,3.98828 -2.7918,1.99414 -9.77129,3.39004 -13.75958,1.3959 -3.98828,-1.99414 -8.17598,-2.59238 -13.56016,-2.59238 -5.38418,0 -8.17598,-0.99708 -9.37246,-3.19063 -1.19649,-2.19356 -1.3959,-4.38711 -1.3959,-4.38711 l -0.39883,0.99707 0,0 0,0"
       id="path3439"
       inkscape:connector-curvature="0" />
    <path
       style="font-size:medium;font-style:normal;font-variant:normal;font-weight:normal;font-stretch:normal;text-indent:0;text-align:start;text-decoration:none;line-height:normal;letter-spacing:normal;word-spacing:normal;text-transform:none;direction:ltr;block-progression:tb;writing-mode:lr-tb;text-anchor:start;baseline-shift:baseline;color:#000000;fill:#000000;fill-opacity:1;stroke:none;stroke-width:1.20000005;marker:none;visibility:visible;display:inline;overflow:visible;enable-background:accumulate;font-family:Sans;-inkscape-font-specification:Sans"
       d="m 426.65625,207.46875 c -5.81985,0.0229 -12.79264,0.27103 -17.375,1.1875 -4.66282,0.93257 -11.15112,4.35322 -16.53125,7.53125 -5.38013,3.17803 -9.625,6.125 -9.625,6.125 a 0.60006002,0.60006002 0 1 0 0.6875,0.96875 c 0,0 4.22412,-2.90913 9.5625,-6.0625 5.33838,-3.15337 11.81418,-6.54409 16.125,-7.40625 8.46896,-1.69378 25.58503,-1.01776 26.84375,-0.96875 a 0.60006002,0.60006002 0 0 0 1.09375,0.0625 l 0.21875,-0.40625 0.40625,-0.8125 -0.90625,-0.0312 c 0,0 -4.68015,-0.21043 -10.5,-0.1875 z"
       id="path3468"
       inkscape:connector-curvature="0" />
    <path
       style="font-size:medium;font-style:normal;font-variant:normal;font-weight:normal;font-stretch:normal;text-indent:0;text-align:start;text-decoration:none;line-height:normal;letter-spacing:normal;word-spacing:normal;text-transform:none;direction:ltr;block-progression:tb;writing-mode:lr-tb;text-anchor:start;baseline-shift:baseline;color:#000000;fill:#000000;fill-opacity:1;stroke:none;stroke-width:1.20000005;marker:none;visibility:visible;display:inline;overflow:visible;enable-background:accumulate;font-family:Sans;-inkscape-font-specification:Sans"
       d="m 277.71875,219.78125 c -6.01427,-0.22553 -12.11073,-0.006 -15.84375,1.03125 -7.21259,2.0035 -13.4375,4.40625 -13.4375,4.40625 a 0.60353775,0.60353775 0 1 0 0.4375,1.125 c 0,0 6.16727,-2.39022 13.3125,-4.375 3.44589,-0.95719 9.51817,-1.22315 15.46875,-1 5.95058,0.22315 11.82261,0.94523 14.90625,1.8125 3.06361,0.86164 8.65018,3.53812 13.375,6 4.72482,2.46188 8.625,4.71875 8.625,4.71875 a 0.61634634,0.61634634 0 1 0 0.625,-1.0625 c 0,0 -3.9714,-2.24513 -8.71875,-4.71875 -4.74735,-2.47362 -10.24485,-5.16066 -13.5625,-6.09375 -3.29761,-0.92745 -9.17323,-1.61822 -15.1875,-1.84375 z"
       id="path3470"
       inkscape:connector-curvature="0" />
    <path
       style="fill:#000000;stroke:none;display:inline"
       d="m 306.99984,343.83199 -0.48937,1.22343 c 0,0 2.12062,1.63124 3.26249,2.03906 1.14187,0.40781 2.20217,0.73405 2.20217,0.73405 0,0 -3.83342,-2.03905 -4.48591,-2.77311 -0.6525,-0.73406 -0.48938,-1.22343 -0.48938,-1.22343 z"
       id="path4361"
       inkscape:connector-curvature="0" />
    <path
       style="fill:#e6e6e6;stroke:none;display:inline"
       d="m 305.625,250.9375 c 0.007,0.48517 0.0175,1.0396 -0.0312,1.625 -0.0604,0.72416 -0.56452,1.46668 -1.03125,2.03125 2.7111,-0.30834 5.61029,-0.93408 8.125,-2.28125 0,0 -1.13194,-1.02987 -7.0625,-1.375 z"
       id="path4363"
       inkscape:connector-curvature="0" />
    <path
       style="fill:none;stroke:#000000;stroke-width:0.5;stroke-linecap:butt;stroke-linejoin:miter;stroke-miterlimit:4;stroke-opacity:1;stroke-dasharray:none;display:inline"
       d="m 373.40625,322.40625 -2.875,2.03125 c -0.43875,0.31491 -0.54461,0.92758 -0.25,1.375 -0.0951,0.0706 -0.18523,0.14794 -0.28125,0.21875 -0.007,-0.005 -0.0246,0.005 -0.0312,0 -0.22871,-0.17551 -0.5321,-0.26419 -0.8125,-0.21875 -0.12825,0.0208 -0.22638,0.0515 -0.34375,0.125 l -4.5,2.8125 c -0.40073,0.25102 -0.55128,0.72844 -0.40625,1.15625 -0.10099,0.04 -0.28402,0.11412 -0.40625,0.15625 -0.14768,-0.4869 -0.61516,-0.79179 -1.125,-0.6875 l -6.34375,1.28125 c -0.53232,0.10888 -0.87286,0.62442 -0.78125,1.15625 -0.0423,0.007 -0.0825,0.0245 -0.125,0.0312 -0.10647,-0.49586 -0.54646,-0.84001 -1.0625,-0.78125 l -5.71875,0.65625 c -0.51783,0.059 -0.88419,0.48974 -0.875,1 -0.10904,-0.48288 -0.55563,-0.82768 -1.0625,-0.78125 l -5.28125,0.5 c -0.4665,0.0427 -0.80498,0.40064 -0.875,0.84375 -0.0105,3.6e-4 -0.0207,-3.6e-4 -0.0312,0 0,-0.554 -0.446,-1 -1,-1 l -4.6875,0 c -0.54314,0 -0.98298,0.42989 -1,0.96875 -0.0319,-0.002 -0.062,0.002 -0.0937,0 0.002,-0.4988 -0.36769,-0.93364 -0.875,-1 l -4.1875,-0.53125 c -0.50469,-0.066 -0.96558,0.24294 -1.09375,0.71875 -0.13758,-0.0271 -0.24164,-0.0662 -0.375,-0.0937 0.095,-0.50406 -0.18554,-1.01219 -0.6875,-1.15625 l -2.65625,-0.75 c -0.41507,0.12764 -0.84632,0.25966 -1.25,0.375 -6.06474,1.73278 -10.49883,0.85441 -10.84375,0.78125 l -0.125,0.25 c 0,0 7.21617,6.32958 11.875,8.28125 11.11934,4.6581 27.22465,4.96489 35.15625,2.6875 13.27936,-3.81288 28.84368,-15.43186 32.53125,-18.28125 0.0803,-0.062 0.0561,-0.0402 0.125,-0.0937 l 0.5,-0.5 c -4.05225,0.15668 -9.86826,0.28758 -12.71875,-0.1875 -1.75455,-0.29243 -3.56951,-0.82519 -5.40625,-1.34375 z m -62.125,9.625 -0.25,0.59375 0.0312,0.0312 0.21875,-0.625 z"
       id="path4253"
       inkscape:connector-curvature="0" />
    <path
       style="fill:none;stroke:#000000;stroke-width:0.5;stroke-linecap:butt;stroke-linejoin:miter;stroke-miterlimit:4;stroke-opacity:1;stroke-dasharray:none;display:inline"
       d="m 355.66887,326.29881 c 3.33104,-0.7329 3.9068,-4.50784 8.86543,-5.10889 4.95863,-0.60104 9.76699,1.80314 14.27484,2.55445 4.50784,0.7513 16.97954,0 16.97954,0 l -0.45078,-2.55445 c 0,0 -7.06229,0.45079 -11.11935,-0.45078 -4.05706,-0.90157 -14.27484,-4.20732 -19.98477,-3.60628 -5.70994,0.60105 -9.01569,2.85497 -9.01569,2.85497 0,0 -3.15549,-1.80314 -8.71516,-1.35235 -5.55968,0.45078 -24.1921,8.11412 -28.24916,8.71516 -4.05706,0.60105 -6.01046,1.20209 -6.01046,1.20209 l -0.90157,3.00523 c 0,0 4.65811,1.05183 10.96909,-0.7513 6.31098,-1.80314 14.12458,-5.25916 19.98477,-5.70994 5.8602,-0.45078 9.00209,2.16384 13.37327,1.20209 z"
       id="path4249"
       inkscape:connector-curvature="0"
       sodipodi:nodetypes="sssccsscssccsss" />
    <path
       style="fill:none;stroke:#000000;stroke-width:0.5;stroke-linecap:butt;stroke-linejoin:miter;stroke-miterlimit:4;stroke-opacity:1;stroke-dasharray:none;display:inline"
       d="m 391.73162,323.89463 c 0,0 -18.18163,14.57536 -33.35804,18.93294 -7.9316,2.27739 -24.04184,1.9534 -35.16118,-2.7047 -4.65883,-1.95167 -11.87066,-8.26438 -11.87066,-8.26438 l -1.35235,4.05705 c 0,0 7.59479,7.34958 15.17641,10.06752 7.96385,2.85497 21.78791,3.30575 29.15072,3.15549 7.36281,-0.15026 18.78268,-6.6115 24.9434,-10.81882 6.16072,-4.20732 16.3785,-14.4251 16.3785,-14.4251 z"
       id="path4251"
       inkscape:connector-curvature="0"
       sodipodi:nodetypes="cssccssscc" />
    <path
       style="fill:none;stroke:#000000;stroke-width:1px;stroke-linecap:butt;stroke-linejoin:miter;stroke-opacity:1;display:inline"
       d="m 586.0025,519.79835 c -1.67567,-6.70265 -4.53439,-24.32661 -13.47125,-37.17335 -8.93687,-12.84675 -27.39505,-34.62563 -34.65625,-43.5625 -7.26121,-8.93686 -18.30861,-20.7705 -25.84222,-27.10863 -5.89719,-5.19262 -9.88469,-8.63769 -15.47023,-12.54757 -5.58554,-3.90988 -22.33713,-12.8477 -39.09375,-13.40625 -16.75663,-0.55856 -43.03125,8.375 -43.03125,8.375 L 412.78125,386 c -0.56172,-2.80862 -0.72033,-5.72985 -0.71875,-7.96875 -2.07395,1.12692 -3.88251,2.19996 -5.25,3.1875 -8.83272,6.37862 -26.64718,16.02968 -40.6875,17.625 -9.64187,1.09555 -11.72421,1.81406 -22.09375,0.21875 -10.36953,-1.59531 -22.32109,-9.55937 -29.5,-12.75 -0.15067,-0.067 -0.33739,-0.1497 -0.5,-0.21875 0.34336,1.62488 1.81809,9.42632 -0.6875,14.4375 -2.79277,5.58554 -38.5322,13.41052 -51.9375,18.4375 -13.4053,5.02699 -27.37532,24.55556 -31.84375,36.84375 -0.29583,0.81352 -0.4507,1.88088 -0.46875,3.125 -8.95699,16.88206 -19.4375,50.66078 -19.4375,61.53125 0,11.25693 0.71875,45.75 0.71875,45.75 0,0 -11.96442,12.63586 -19,20.375 -7.03558,7.73915 -25.34375,42.93144 -25.34375,52.78125 0,9.84982 -4.87977,30.59609 -4.87977,30.59609 m 30.64445,15.46875 c 0,0 5.5189,-3.60465 11.74136,-8.35257 m 26.96894,-35.23082 c 6.771,-13.44982 18.89199,-38.35385 19.24377,-42.5752 0.70356,-8.4427 5.65365,-7.76173 9.875,-14.09375 2.6986,-4.0479 5.66556,-16.07944 7.46875,-24.28125 4.99216,12.75643 10.94653,32.51188 16.23756,47.45558 M 478.40823,607.37 c 0,0 4.69713,-92.18927 6.12302,-115.08875 2.89996,3.5924 5.97705,6.8388 9.21875,9.34375 12.28819,9.49542 37.98453,23.44145 40.21875,24"
       id="path4486"
       inkscape:connector-curvature="0"
       sodipodi:nodetypes="csscsscccsssccssscscssccccssccccsc" />
    <path
       style="fill:#000000;stroke:none;display:inline"
       d="m 527.40495,526.45229 c 0,0 13.89528,1.40712 17.76485,1.93479 3.86957,0.52767 18.90813,5.1008 18.90813,5.1008 0,0 -7.91503,-4.39724 -11.43282,-5.27669 -3.51779,-0.87945 -9.49804,-2.19862 -9.49804,-2.19862 0,0 9.67393,0.43972 13.36761,1.67095 3.69368,1.23123 10.81721,4.57313 10.81721,4.57313 0,0 -4.13341,-4.3093 -9.41009,-5.8923 -5.27669,-1.58301 -11.87255,-2.63835 -11.87255,-2.63835 0,0 11.16899,1.49507 14.42295,1.67095 3.25395,0.17589 7.73914,-1.05533 7.73914,-1.05533 0,0 -6.50792,0.61561 -13.45556,-0.35178 -6.94764,-0.96739 -8.88242,-1.58301 -8.88242,-1.58301 0,0 6.85969,-0.43972 11.7846,-1.75889 4.92491,-1.31918 5.36463,-2.46246 5.36463,-2.46246 0,0 -26.38343,4.66108 -30.69273,4.83697 -4.30929,0.17588 -4.30929,0.0879 -4.30929,0.0879 l 4.04546,1.93479 z"
       id="path4581"
       inkscape:connector-curvature="0" />
    <path
       style="fill:#000000;stroke:none;display:inline"
       d="m 260.0625,543.3125 c 2.81886,13.97461 4.8125,24.96875 4.8125,24.96875 l 2.375,-7.59375 c 0,0 -2.73503,-9.25218 -4.9375,-16.71875 l -2.25,-0.65625 z"
       id="path4793"
       inkscape:connector-curvature="0" />
    <path
       style="fill:#ffffff;stroke:#000000;stroke-width:1px;stroke-linecap:butt;stroke-linejoin:miter;stroke-opacity:1;display:inline"
       d="m 373.63719,663.51175 c 0,0 -27.99236,-34.07766 -55.3762,-35.29471 -27.38383,-1.21706 -53.5506,0 -67.54679,3.65117 -13.99618,3.65118 -48.68237,24.94972 -48.68237,57.20179 0,32.25207 43.81414,64.50414 67.54679,73.63208 23.73266,9.12795 88.84533,23.12413 128.39975,23.12413 39.55443,0 78.50032,-21.90707 103.45004,-33.46913 24.94971,-11.56206 57.20178,-35.90325 57.20178,-57.81032 0,-21.90706 7.30236,-34.07765 12.1706,-41.38001 4.86823,-7.30236 7.30235,-18.25589 -6.0853,-3.65118 -13.38765,14.60471 -17.03883,45.03119 -23.73266,49.89943 -6.69382,4.86824 -28.60089,17.03883 -39.55442,18.25589 -10.95353,1.21706 -13.38765,2.43412 -13.38765,2.43412 l 1.21706,-0.60853"
       id="path5036-7"
       inkscape:connector-curvature="0"
       sodipodi:nodetypes="cssssssssssscc" />
    <path
       style="color:#000000;fill:none;stroke:#000000;stroke-width:1.25;stroke-miterlimit:4;stroke-dasharray:none;marker:none;visibility:visible;display:inline;overflow:visible;enable-background:accumulate"
       d="m 430.5625,480.375 c -23.8868,0 -50.76156,4.9058 -64.8125,11.03125 3.96122,2.00753 6.65625,6.09907 6.65625,10.84375 0,2.95656 -1.02819,5.67256 -2.78125,7.78125 15.12484,5.42355 40.32596,9.03125 62.375,9.03125 34.19368,0 47.8125,-8.65822 47.8125,-19.34375 0,-10.68552 -15.05632,-19.34375 -49.25,-19.34375 z"
       id="path4584"
       inkscape:connector-curvature="0" />
    <path
       style="color:#000000;fill:none;stroke:#000000;stroke-width:1.25;stroke-miterlimit:4;stroke-dasharray:none;marker:none;visibility:visible;display:inline;overflow:visible;enable-background:accumulate"
       d="m 439.25,462.375 c -7.41149,-0.0445 -15.46395,0.62991 -23.875,2.15625 -25.40586,4.61036 -46.43899,15.84192 -54.40625,25.59375 6.3868,0.37225 11.4375,5.64485 11.4375,12.125 0,6.70074 -5.40093,12.15378 -12.09375,12.1875 7.53791,9.55079 30.4918,20.07766 57.71875,22.8125 34.02247,3.41743 61.53126,-6.68455 62.90625,-17.28125 0.79044,-6.09174 -0.25317,-10.40372 -3.15625,-13.5625 -0.005,-0.005 0.005,-0.026 0,-0.0312 1.37838,-2.07434 2.03125,-4.31879 2.03125,-6.65625 0,-2.89605 -1.11318,-5.6271 -3.40625,-8.09375 3.41041,-3.53037 4.44457,-8.193 3.03125,-14.875 -1.6584,-7.84069 -17.95302,-14.24137 -40.1875,-14.375 z"
       id="path4584-1"
       inkscape:connector-curvature="0" />
    <path
       style="color:#000000;fill:none;stroke:#000000;stroke-width:1.25;stroke-miterlimit:4;stroke-dasharray:none;marker:none;visibility:visible;display:inline;overflow:visible;enable-background:accumulate"
       d="m 321.3125,489.375 c -10.12731,0.0532 -20.95187,0.82567 -31.03125,2.40625 -32.25401,5.05785 -45.12215,15.1935 -43.5,24.96875 1.62213,9.77525 15.8085,15.68285 48.0625,10.625 20.27083,-3.17873 42.82747,-9.9322 56.40625,-16.9375 -1.9689,-2.16229 -3.15625,-5.0327 -3.15625,-8.1875 0,-4.1143 2.03095,-7.7346 5.15625,-9.9375 -7.84164,-1.97058 -19.35234,-3.00363 -31.9375,-2.9375 z"
       id="path4584-0"
       inkscape:connector-curvature="0" />
    <path
       style="color:#000000;fill:none;stroke:#000000;stroke-width:1.25;stroke-miterlimit:4;stroke-dasharray:none;marker:none;visibility:visible;display:inline;overflow:visible;enable-background:accumulate"
       d="m 299.1875,475 c -7.03927,0.0235 -13.70121,0.59888 -19.8125,1.59375 -20.9529,3.41113 -35.34469,11.67569 -35.71875,19.09375 -0.31876,6.32182 1.37213,10.43109 5.125,13.15625 -1.78854,2.59572 -2.43964,5.2569 -2,7.90625 0.35484,2.13834 1.32241,4.0875 2.9375,5.78125 -0.003,0.005 0.004,0.0253 0,0.0312 -2.25888,3.31911 -2.57661,7.41912 -0.90625,12.875 2.90564,9.49061 30.36379,14.65883 61.9375,6.5 23.68029,-6.11912 42.78427,-17.95853 49.75,-27.53125 -0.0839,0.002 -0.16567,0.0312 -0.25,0.0312 -6.72163,0 -12.15625,-5.46587 -12.15625,-12.1875 0,-5.76704 3.99038,-10.58812 9.375,-11.84375 -8.98111,-7.75063 -30.56317,-14.91496 -55.25,-15.375 -1.0207,-0.019 -2.02564,-0.0346 -3.03125,-0.0312 z"
       id="path4584-1-4"
       inkscape:connector-curvature="0" />
    <path
       sodipodi:type="arc"
       style="color:#000000;fill:none;stroke:#000000;stroke-width:1.25;stroke-miterlimit:4;stroke-dasharray:none;marker:none;visibility:visible;display:inline;overflow:visible;enable-background:accumulate"
       id="path4808"
       sodipodi:cx="362.07513"
       sodipodi:cy="504.077"
       sodipodi:rx="12.170592"
       sodipodi:ry="12.170592"
       d="m 374.24573,504.077 a 12.170592,12.170592 0 1 1 -24.34119,0 12.170592,12.170592 0 1 1 24.34119,0 z"
       transform="translate(-1.825592,-1.8255909)" />
    <path
       style="opacity:0.53333285;fill:#ffffff;stroke:#000000;stroke-width:1.37132025px;stroke-linecap:butt;stroke-linejoin:miter;stroke-opacity:1;display:inline"
       d="m 555.62402,669.29233 c 0,0 43.63297,-16.79025 78.35689,-9.99506 34.72393,6.79519 68.94292,17.66291 93.83301,1.71711 24.89008,-15.94584 55.98174,-73.63483 66.85615,-86.86856 10.87441,-13.23374 40.77627,-13.05761 40.77627,-13.05761 0,0 -31.09449,-30.55146 -58.09222,-32.0845 -26.99773,-1.53303 -65.77796,-5.95338 -100.39029,22.20824 -34.61232,28.16162 -103.21347,86.35165 -108.85571,97.38049 -5.64226,11.02885 -12.4841,20.69989 -12.4841,20.69989 z"
       id="path4978"
       inkscape:connector-curvature="0" />
    <path
       style="opacity:0.53333285;fill:none;stroke:#000000;stroke-width:1px;stroke-linecap:butt;stroke-linejoin:miter;stroke-opacity:1;display:inline"
       d="m 479.52134,631.86821 c 2.43412,16.4303 20.69,54.15913 15.82177,65.7212 -2.43412,5.78103 -2.12985,11.56207 -5.62889,21.07034"
       id="path4961-6"
       inkscape:connector-curvature="0"
       sodipodi:nodetypes="csc" />
    <path
       style="opacity:0.53333285;fill:none;stroke:#999999;stroke-width:1px;stroke-linecap:butt;stroke-linejoin:miter;stroke-opacity:1;display:inline"
       d="m 558.63019,667.77146 c 0,0 77.28327,-66.93826 105.27563,-88.84532 27.99236,-21.90707 103.45003,-51.11649 103.45003,-51.11649 l 0,0 0,0 0,0 0,0 0,0 0,0"
       id="path5038"
       inkscape:connector-curvature="0" />
    <path
       style="opacity:0.53333285;fill:none;stroke:#999999;stroke-width:1px;stroke-linecap:butt;stroke-linejoin:miter;stroke-opacity:1;display:inline"
       d="m 555.58755,667.16293 c 23.2077,-9.85799 46.42889,-20.90634 71.45175,-25.14558 24.44166,-1.10471 49.72314,2.37521 73.45135,-5.01874 11.52907,-4.89929 18.9703,-15.65706 27.64358,-24.2455 14.95338,-16.12219 28.21107,-34.19399 45.55411,-47.85096 13.76144,-7.50881 29.55773,-9.85692 44.41936,-14.34565 l 1.70295,-0.4227 1.70434,-0.41709"
       id="path5040"
       inkscape:connector-curvature="0" />
    <path
       style="opacity:0.53333285;fill:none;stroke:#999999;stroke-width:1px;stroke-linecap:butt;stroke-linejoin:miter;stroke-opacity:1;display:inline"
       d="m 559.23872,666.5544 c 0,0 62.07003,-38.94589 77.8918,-43.81413 15.82177,-4.86824 82.76002,-41.38002 101.62444,-55.98473 18.86442,-14.60471 60.85296,-31.64354 60.85296,-31.64354"
       id="path5046"
       inkscape:connector-curvature="0" />
    <path
       style="opacity:0.53333285;fill:none;stroke:#000000;stroke-width:1px;stroke-linecap:butt;stroke-linejoin:miter;stroke-opacity:1;display:inline"
       d="m 489.86635,719.49648 c 0,0 -19.47295,2.43412 -50.50796,-3.65118 C 408.32338,709.76 357.81542,699.415 352.33865,697.58941 346.86189,695.76382 331.64864,689.07 331.64864,689.07 l 0,0"
       id="path5052"
       inkscape:connector-curvature="0" />
    <path
       style="opacity:1;fill:#ffffff;stroke:none;display:inline"
       d="m 498.78125,531.78125 c -10.27473,3.6317 -39.29191,34.27112 -40.98731,35.37795 0,0 -6.16979,1.88037 -11.10231,-10.62386 -3.09091,-7.83563 -9.31791,-16.95786 -10.97288,-17.78534 -5.03292,-2.51645 -22.45817,-2.41804 -36.0625,0.84375 -6.80216,1.6309 -10.80531,0.40218 -13.6875,3.6875 l 0.1875,0.0625 c -6.21875,0.56552 -12.00753,2.63253 -16.34375,6.96875 -5.07131,5.07131 4.875,8.54195 4.875,11.5625 0,0.94456 -12.42908,3.17309 -9.75,8.53125 1.02754,2.05509 5.70674,5.381 4.28125,6.09375 -12.82197,6.41098 2.4375,14.50431 2.4375,15.8125 0,6.34671 -3.7464,14 6.6875,14 0,0 25.12037,6.09375 33.03125,6.09375 7.91089,0 18.85051,1.82389 23.71875,-1.21875 2.13355,-1.33347 4.36368,-2.99746 6.21875,-4.46875 0.89795,0.31076 1.96007,0.46875 3.28125,0.46875 12.28819,0 35.2197,1.69113 48.625,-2.21875 13.4053,-3.90988 58.63352,-16.77794 68.6875,-25.15625 10.05397,-8.37831 20.09407,-29.03945 24.5625,-34.625 m -128.125,21.28125 c -0.0407,0.0365 -0.0847,0.0891 -0.125,0.125 l 0,-0.0625 z m -0.28125,0.15625 0.0625,0.0625 c -0.0358,0.032 -0.09,0.0625 -0.125,0.0937 z"
       id="path5055-5"
       inkscape:connector-curvature="0"
       sodipodi:nodetypes="ccsssccssssscsscsssccccccccc" />
    <path
       style="opacity:1;fill:none;stroke:#000000;stroke-width:1px;stroke-linecap:butt;stroke-linejoin:miter;stroke-opacity:1;display:inline"
       d="m 457.61428,567.97261 c -3.16414,-2.03015 -6.87128,-2.78903 -8.51942,-6.0853 -3.30244,-6.60488 -7.08302,-19.97182 -13.38765,-23.12413 -5.03292,-2.51645 -22.43529,-2.4236 -36.03962,0.83819 -6.80216,1.6309 -10.82922,0.40285 -13.71141,3.68817"
       id="path5055"
       inkscape:connector-curvature="0"
       sodipodi:nodetypes="csssc" />
    <path
       style="color:#000000;fill:#ffffff;stroke:#000000;stroke-width:0.5;stroke-linecap:round;stroke-linejoin:miter;stroke-miterlimit:4;stroke-opacity:1;stroke-dasharray:none;stroke-dashoffset:0;marker:none;visibility:visible;display:inline;overflow:visible;enable-background:accumulate"
       d="m 394.3125,453.75 c -0.71308,1.61892 -12.125,33.4375 -12.125,33.4375 -2.57606,13.32617 6.26945,26.29327 19.875,29.0625 l 1.375,0.25 c -0.0177,0.0812 -0.0779,0.16791 -0.0937,0.25 l -5.21875,27.125 c 6.62106,1.08746 13.02632,3.31004 18.09375,5.84375 2.05611,1.02806 0.76212,-3.11544 1.84375,-3.65625 1.48723,-0.74361 3.17094,-1.03757 4.9375,-1.15625 L 427.5313,521.375 c 0.0256,-0.13313 0.0111,-0.24219 0.0312,-0.375 11.83198,0.12635 22.49838,-8.82635 26.34375,-28.71875 4.34421,-22.47283 -3.13045,-26.63013 -3.1875,-28.40625 l -1.6875,-0.3125 -8.90625,28.625 -0.8125,-30.34375 -3.34375,-0.625 L 426,493.0625 l -0.875,-33.78125 -3.53125,-0.625 -9.90625,31.75 -0.875,-33.6875 -3.4375,-0.625 -9.5625,30.625 -0.84375,-32.5 -2.65625,-0.46875 z"
       id="rect4531"
       inkscape:connector-curvature="0" />
    <path
       style="fill:#000000;stroke:none;display:inline"
       d="m 218.5,570.90625 c 0,0 12.59949,8.7909 18.78125,11.40625 6.18175,2.61536 9.03125,4.53125 9.03125,4.53125 0,0 -16.63882,-3.81538 -21.15625,-6.90625 -4.51744,-3.09088 -8.78125,-6.1875 -8.78125,-6.1875 0,0 9.03153,8.5599 14.5,10.9375 3.86634,1.68102 16.28789,4.49412 23.375,6.03125 0.81767,-0.6813 1.66893,-1.40913 2.5625,-2.25 -3.91233,-1.39944 -8.69521,-3.16127 -12.875,-4.96875 C 235.14039,579.69585 218.5,570.90625 218.5,570.90625 z"
       id="path4771"
       inkscape:connector-curvature="0" />
    <path
       style="fill:none;stroke:#000000;stroke-width:1.11619484px;stroke-linecap:butt;stroke-linejoin:miter;stroke-opacity:1;display:inline"
       d="m 186.31897,675.23046 c 5.43389,5.4339 5.43389,15.62248 10.86779,20.37713 5.43391,4.75467 4.07543,16.98093 6.11315,25.13179 2.03771,8.15084 4.75466,26.49026 -1.35848,27.1695 -6.11314,0.67924 -19.01865,-5.4339 -17.66018,-9.50932 1.35848,-4.07543 -4.75467,-31.92416 -4.75467,-31.92416 0,0 -23.09408,22.41482 -31.92416,28.52797 -8.8301,6.11314 -25.1318,21.05636 -29.88645,24.45255 -4.75467,3.39619 -12.90553,-4.07542 -6.11315,-11.54704 6.79237,-7.47161 15.62247,-18.33942 21.05637,-23.09407 5.4339,-4.75467 21.05637,-22.41484 23.77331,-27.16951 2.71695,-4.75466 12.22629,-4.75466 12.22629,-4.75466 l -2.71696,0"
       id="path5113"
       inkscape:connector-curvature="0"
       sodipodi:nodetypes="csssscssssscc" />
    <path
       style="fill:none;stroke:#000000;stroke-width:1.11619484px;stroke-linecap:butt;stroke-linejoin:miter;stroke-opacity:1;display:inline"
       d="m 109.56511,756.73897 c 0,0 -0.67924,-0.67924 -4.75467,3.39619 -4.07543,4.07542 -15.690795,-10.14751 -7.471616,-19.01865 12.228076,-13.19802 18.339426,-19.69789 25.131796,-26.49028 6.79238,-6.79236 16.3017,-26.49025 22.41485,-27.16949 6.11314,-0.67923 6.79238,-0.67923 6.79238,-0.67923"
       id="path5119"
       inkscape:connector-curvature="0"
       sodipodi:nodetypes="cssssc" />
    <path
       style="fill:none;stroke:#000000;stroke-width:1.11619484px;stroke-linecap:butt;stroke-linejoin:miter;stroke-opacity:1;display:inline"
       d="m 167.89055,668.43809 c 0,0 -32.51441,7.47161 -37.26907,9.50932 -4.75467,2.03772 -14.26399,10.86781 -23.77332,12.90553 -9.509324,2.0377 -20.776654,4.29116 -21.455891,9.04583 -0.679238,4.75466 4.075425,4.75466 4.075425,4.75466 0,0 9.908856,-1.57422 16.021986,-2.9327 6.11314,-1.35847 15.45072,-2.49387 15.45072,-2.49387"
       id="path5123"
       inkscape:connector-curvature="0"
       sodipodi:nodetypes="cssscsc" />
    <path
       style="fill:none;stroke:#000000;stroke-width:1.11619484px;stroke-linecap:butt;stroke-linejoin:miter;stroke-opacity:1;display:inline"
       d="m 116.98874,719.62863 c 0,0 -16.10193,9.2456 -20.177347,11.96255 -4.07543,2.71696 -9.509335,-6.79237 -3.396192,-12.22627 6.113132,-5.43391 14.263989,-14.26398 21.056369,-16.98093 6.79237,-2.71695 11.50599,-8.27839 11.50599,-8.27839"
       id="path5125"
       inkscape:connector-curvature="0"
       sodipodi:nodetypes="csssc" />
    <path
       style="fill:none;stroke:#000000;stroke-width:1px;stroke-linecap:butt;stroke-linejoin:miter;stroke-opacity:1;display:inline"
       d="m 380.04751,641.36327 c 0,0 38.68925,-19.64223 59.52193,-26.48726 20.83267,-6.84502 58.9267,-11.30916 61.00997,-1.78565 2.08327,9.5235 22.91594,24.10638 -1.48805,22.02311 -24.40399,-2.08327 -37.2012,-6.84502 -49.10559,-5.65458 -11.90438,1.19043 -69.93826,11.90438 -69.93826,11.90438 z"
       id="path5394"
       inkscape:connector-curvature="0" />
    <path
       style="fill:none;stroke:#000000;stroke-width:1px;stroke-linecap:butt;stroke-linejoin:miter;stroke-opacity:1;display:inline"
       d="m 275.78125,607.09375 c -7.50811,-0.008 -13.50005,1.92206 -15.0625,7.78125 -1.56649,5.87436 0.62791,10.67153 5.0625,14.09375 l 2.75,-0.4375 c 5.47149,-0.84177 40.40946,-1.26463 48.40625,-0.84375 6.26962,0.32999 16.9249,4.28172 25.5,9.21875 15.50972,1.22533 30.15102,2.71525 37.625,3.875 0,0 -59.24452,-24.41233 -74.125,-28.28125 -8.37027,-2.17627 -20.50297,-5.39579 -30.15625,-5.40625 z"
       id="path5396"
       inkscape:connector-curvature="0" />
    <path
       style="fill:none;stroke:#000000;stroke-width:1px;stroke-linecap:butt;stroke-linejoin:miter;stroke-opacity:1;display:inline"
       d="m 429,544.84375 c -3.77571,0.0327 -7.80244,-0.34878 -10.9375,1.21875 -1.08163,0.54081 0.21236,4.68431 -1.84375,3.65625 -13.00183,-6.50091 -34.84299,-10.96951 -46.40625,0.59375 -5.07131,5.07131 4.875,8.54195 4.875,11.5625 0,0.94456 -12.42908,3.17309 -9.75,8.53125 1.02754,2.05509 5.70674,5.381 4.28125,6.09375 -12.82197,6.41098 2.4375,14.50431 2.4375,15.8125 0,6.34671 -3.7464,14 6.6875,14 0,0 25.12037,6.09375 33.03125,6.09375 7.91089,0 18.85051,1.82389 23.71875,-1.21875 2.13355,-1.33347 4.36368,-2.99746 6.21875,-4.46875 0.89795,0.31076 1.96007,0.46875 3.28125,0.46875 12.28819,0 35.2197,1.69113 48.625,-2.21875 13.4053,-3.90988 58.63352,-16.77794 68.6875,-25.15625 10.05397,-8.37831 20.09407,-29.03945 24.5625,-34.625 4.46843,-5.58554 8.10157,-18.61513 2.25,-22.34375 -2.2694,-1.44606 -2.07276,-2.00001 -2.88217,-3.18974 M 535.15625,524.75 c -7.88958,1.04729 -30.31028,4.46778 -36.375,7.03125 -11.37503,4.80806 -31.69453,26.89462 -40.5625,34.8125 l 0,-0.4375 -0.15625,0.46875 0.0625,0.0625 c -0.0358,0.032 -0.09,0.0625 -0.125,0.0937 l 0.0625,-0.1562"
       id="path4521-5"
       inkscape:connector-curvature="0"
       sodipodi:nodetypes="cssssssscsscsssssccscccccc" />
  </g>
</svg>
