<?xml version="1.0" encoding="UTF-8" standalone="no"?>
<!-- Created with Inkscape (http://www.inkscape.org/) -->

<svg
   xmlns:dc="http://purl.org/dc/elements/1.1/"
   xmlns:cc="http://creativecommons.org/ns#"
   xmlns:rdf="http://www.w3.org/1999/02/22-rdf-syntax-ns#"
   xmlns:svg="http://www.w3.org/2000/svg"
   xmlns="http://www.w3.org/2000/svg"
   xmlns:sodipodi="http://sodipodi.sourceforge.net/DTD/sodipodi-0.dtd"
   xmlns:inkscape="http://www.inkscape.org/namespaces/inkscape"
   width="744.09448819"
   height="1052.3622047"
   id="svg2"
   version="1.1"
   inkscape:version="0.48.2 r9819"
   sodipodi:docname="drawing.svg">
  <defs
     id="defs4" />
  <sodipodi:namedview
     id="base"
     pagecolor="#ffffff"
     bordercolor="#666666"
     borderopacity="1.0"
     inkscape:pageopacity="0.0"
     inkscape:pageshadow="2"
     inkscape:zoom="0.54800681"
     inkscape:cx="29.956796"
     inkscape:cy="498.71554"
     inkscape:document-units="px"
     inkscape:current-layer="layer1"
     showgrid="false"
     inkscape:window-width="1440"
     inkscape:window-height="852"
     inkscape:window-x="0"
     inkscape:window-y="0"
     inkscape:window-maximized="1" />
  <metadata
     id="metadata7">
    <rdf:RDF>
      <cc:Work
         rdf:about="">
        <dc:format>image/svg+xml</dc:format>
        <dc:type
           rdf:resource="http://purl.org/dc/dcmitype/StillImage" />
        <dc:title></dc:title>
      </cc:Work>
    </rdf:RDF>
  </metadata>
  <g
     inkscape:label="Orig"
     inkscape:groupmode="layer"
     id="layer1"
     style="display:inline">
    <path
       style="fill:#ffffff;stroke:#000000;stroke-width:1.28831887px;stroke-linecap:butt;stroke-linejoin:miter;stroke-opacity:1;display:inline"
       d="m 463.9993,636.45894 c 0,0 13.06627,-17.61383 27.72439,-32.7637 14.65813,-15.14986 55.86983,-42.48134 78.31589,-85.34586 22.44604,-42.86453 23.19657,-79.15552 16.41029,-90.04596 -6.7863,-10.89046 -4.27471,-26.69446 -4.27471,-26.69446 0,0 -5.6939,25.5504 -11.38915,36.42646 -5.69527,10.87608 -51.76438,51.15279 -73.54175,78.06346 -21.77736,26.91066 -38.36026,62.24782 -39.02825,85.53883 -0.66797,23.29102 5.78329,34.82123 5.78329,34.82123 z"
       id="path5034"
       inkscape:connector-curvature="0" />
    <path
       style="fill:none;stroke:#999999;stroke-width:0.93947339px;stroke-linecap:butt;stroke-linejoin:miter;stroke-opacity:1;display:inline"
       d="m 464.90746,634.43481 c 0,0 4.57354,-62.88671 37.1603,-97.18855 32.58675,-34.30185 62.88674,-61.17162 68.60372,-72.60558 5.71696,-11.43394 12.00564,-42.8773 12.00564,-42.8773"
       id="path5048"
       inkscape:connector-curvature="0" />
    <path
       style="fill:none;stroke:#999999;stroke-width:0.93947339px;stroke-linecap:butt;stroke-linejoin:miter;stroke-opacity:1;display:inline"
       d="m 466.62254,635.57821 c 0,0 18.29429,-53.73956 35.44522,-70.31878 17.15092,-16.57923 57.16976,-58.31313 64.03013,-70.31878 6.86037,-12.00565 23.43959,-49.16597 23.43959,-49.16597"
       id="path5050"
       inkscape:connector-curvature="0" />
    <path
       style="fill:none;stroke:#000000;stroke-width:0.93947339px;stroke-linecap:butt;stroke-linejoin:miter;stroke-opacity:1;display:inline"
       d="m 100.29576,269.10781 c 5.99504,37.46886 55.69779,83.45568 49.70278,104.43824 -5.99502,20.98256 -16.18062,28.7435 -23.65625,29.65625 -7.49378,0.91497 -20.5625,-1.1875 -20.5625,-1.1875 0,0 13.48371,14.24627 31.46875,9.75 17.98505,-4.49625 22.46875,-6.75 22.46875,-6.75 0,0 -4.73183,11.43999 -20.46875,14.4375 -15.73692,2.99751 -31.0625,-5.34375 -31.0625,-5.34375 0,0 24.17518,23.09931 51.90214,15.60554 m 27.28672,-28.46404 c 12.59392,-4.72271 46.18876,-12.06503 48.8125,-17.3125 2.35393,-4.70787 0.97882,-12.03596 0.65625,-13.5625 -7.12606,-3.02607 -26.24525,-8.14716 -37.25,-14.75 -11.24066,-6.7444 -21.7256,-14.26433 -29.96875,-31.5 -2.40364,-5.02579 -5.22783,-15.22776 -7.96875,-27.53125 -5.8702,-0.14508 -16.14902,-5.92788 -23.5,-9.9375 -8.24315,-4.49626 -16.50062,-32.22747 -17.25,-42.71875 -0.53379,-7.47301 6.52797,-14.18436 15.25,-17.15625 3.72325,14.96242 16.25,26.90625 16.25,26.90625 0,0 5.97249,-17.98308 10.46875,-35.21875 4.49627,-17.23567 13.47249,-32.97374 17.96875,-38.96875 4.49627,-5.99503 9,-12.75 9,-12.75 0,0 5.2337,-3.00248 23.21875,-6 17.98506,-2.99751 20.99491,-8.22498 52.46875,-15.71875 0,0 3.51436,-0.3072 9.625,-0.34375 3.66639,-0.022 8.25443,0.0627 13.59375,0.34375 14.23816,0.74938 47.20306,8.97996 65.9375,22.46875 16.43935,11.83634 32.90639,68.62529 36.6875,82.375 -2.6227,41.29093 -11.30249,76.32186 -18.6875,85.53125 -8.57671,10.6955 -34.48302,21.81157 -45.71875,28.5 0.61377,-0.35778 1.28593,-0.72273 1.96875,-1.09375 -0.002,2.10339 0.12853,4.83013 0.65625,7.46875 l 1.5625,7.875 c 0,0 24.69509,-8.39975 40.4375,-7.875 11.52226,0.38407 23.0317,4.99534 30.4375,8.875 7.08126,0.6722 17.71875,-9.625 17.71875,-9.625 0,0 -4.65588,1.75087 -10,1 -3.18861,-0.44801 -9.76324,-2.00637 -15.34375,-3.34375 -3.89635,-0.93377 -7.9375,-2.75 -7.9375,-2.75 0,0 14.10561,2.9375 19.09375,2.9375 15.73693,0 24.78125,-6.84375 24.78125,-6.84375 0,0 -10.50084,1.33901 -18.9375,0.1875 -8.43667,-1.1515 -8.46664,-2.67114 -18.0625,-5 0.0377,-0.11453 0.0491,-0.12501 0.0625,-0.15625 0.011,-0.033 0.0348,-0.0317 0.0625,-0.125 8.13016,1.51635 17.23131,4.20661 25.3125,3.65625 11.83916,-0.8063 16.96875,-9 16.96875,-9 0,0 -11.60809,3.02033 -17.15625,2.625 -7.32799,-0.52215 -11.71516,-1.49 -17.1875,-5 -1.69146,-1.08491 -3.35368,-5.30272 -4.03125,-11.90625 -0.67757,-6.60353 6.69239,-40.44871 3.84375,-54.03125 -3.98413,-55.07884 -1.22927,-91.02671 -16.53125,-133 -2.75227,-7.54949 -13.125,-20.21875 -13.125,-20.21875 l -6.15625,-4.6875 c -3.32056,-3.34545 -6.72941,-6.49368 -10.09375,-9.4375 3.03194,0.6698 6.8042,1.59666 11.40625,2.875 13.48879,3.74688 18.69996,23.99367 33.6875,53.96875 14.98754,29.97509 29.96875,66.65625 29.96875,66.65625 0,-14.98754 -24.71875,-85.4375 -24.71875,-85.4375 0,0 6.00374,2.25373 10.5,6.75 4.49626,4.49626 9.75,16.5 9.75,16.5 0,0 -0.005,-15.00811 -5.25,-24.75 -5.24565,-9.74191 -28.46875,-27.71875 -28.46875,-27.71875 0,0 12.72809,-5.25 23.96875,-5.25 11.24066,0 23.25,3.78125 23.25,3.78125 0,0 -3.00871,-6.75311 -13.5,-10.5 -10.49127,-3.74689 -29.21875,-2.25 -29.21875,-2.25 0,0 13.48059,-9.74937 27.71875,-9 14.23817,0.74938 37.46875,3.75 37.46875,3.75 0,0 -37.47362,-17.25 -80.9375,-17.25 -26.0288,0 -41.53053,4.01977 -49.8125,7.25 -9.94768,-3.85196 -20.68696,-7.42745 -24.375,-4.96875 -0.2249,0.14994 -0.43001,0.31397 -0.625,0.5 -12.10747,-2.52028 -24.71057,-4.1965 -32.34375,-5 -1.33483,-0.14051 -2.65478,-0.21535 -3.90625,-0.1875 -12.09754,0.26926 -20.0625,7.65625 -20.0625,7.65625 0,0 -13.51557,-4.49688 -32.25,-0.75 -6.16539,1.23308 -14.52728,5.664 -23.3125,11.625 -11.40315,3.74114 -23.14713,9.0638 -33.01308,13.82868"
       id="path3086"
       inkscape:connector-curvature="0"
       sodipodi:nodetypes="csscscscccscsscssccsscsccsscsccccsccsscscscccscssscscccssccscccscscscscccsscscc" />
    <path
       style="fill:none;stroke:#000000;stroke-width:0.93947339px;stroke-linecap:butt;stroke-linejoin:miter;stroke-opacity:1;display:inline"
       d="m 275.17061,144.69867 c -6.11065,0.0366 -9.62961,0.32295 -9.62961,0.32295 -31.47384,7.49377 -34.47866,12.73866 -52.46371,15.73617 -17.98506,2.99752 -23.22261,5.98915 -23.22261,5.98915 0,0 -4.51681,6.74658 -9.01307,12.74161 -4.49627,5.99501 -13.47117,21.75247 -17.96743,38.98814 -4.49626,17.23567 -10.481,35.20089 -10.481,35.20089 0,0 -12.51203,-11.93 -16.23528,-26.89242 -8.72203,2.97189 -15.80023,9.67238 -15.26644,17.14539 0.74938,10.49128 9.01968,38.22042 17.26283,42.71668 7.35097,4.00962 17.64598,9.80747 23.51619,9.95255 2.74091,12.30349 5.55252,22.51252 7.95616,27.53831 8.24315,17.23567 18.73442,24.72796 29.97508,31.47236 11.24065,6.74439 30.94174,11.97534 37.68614,14.97285 6.74439,2.99752 17.97256,10.48725 27.71446,11.986 9.74191,1.49875 11.6945,0.82002 20.75278,-0.20922 13.19051,-1.49876 29.94066,-10.56226 38.23876,-16.55481 8.76391,-6.32891 39.27123,-18.61892 48.70583,-30.38424 7.385,-9.20938 16.04933,-44.23977 18.67203,-85.5307 -3.78111,-13.74971 -20.22946,-70.54373 -36.66882,-82.38007 -18.73443,-13.48879 -51.70113,-21.73926 -65.93929,-22.48864 -5.33932,-0.28102 -9.92661,-0.3449 -13.593,-0.32295 z"
       id="path3096"
       inkscape:connector-curvature="0"
       sodipodi:nodetypes="scscssccsscssssssscsss" />
    <path
       style="fill:#000000;stroke:none;display:inline"
       d="m 235.56019,244.69397 c 0,0 -2.31209,-2.17724 -18.35974,-1.12407 -17.32941,1.1373 -37.28151,12.55208 -37.28151,12.55208 0,0 16.24529,-6.46432 23.98007,-7.86846 4.514,-0.81946 11.97574,-1.01605 16.48629,-1.12406 2.89175,-0.0692 9.92926,0.37469 15.17489,-2.43549 z"
       id="path3423"
       inkscape:connector-curvature="0"
       sodipodi:nodetypes="cscssc" />
    <path
       style="fill:#000000;stroke:none;display:inline"
       d="m 302.25476,239.44833 c 0,0 13.48878,-7.49377 21.73194,-8.99252 8.24314,-1.49876 20.98255,-1.49876 20.98255,-1.49876 0,0 -7.67312,1.19356 -11.42801,1.6861 -2.36789,0.31061 -7.07224,2.48231 -11.00646,2.73991 -3.93423,0.2576 -10.44445,2.13104 -12.41156,2.88042 -3.50142,1.33387 -7.86846,3.18485 -7.86846,3.18485 z"
       id="path3425"
       inkscape:connector-curvature="0"
       sodipodi:nodetypes="cscsssc" />
    <path
       style="fill:none;stroke:#000000;display:inline;stroke-width:0.25;stroke-miterlimit:4;stroke-dasharray:none"
       d="m 244.36537,271.67155 c 0,0 -2.62281,7.68112 -7.49377,13.1141 -4.87095,5.43299 -6.93174,8.61784 -6.93174,8.61784 0,0 2.06079,-1.31141 3.74689,-2.43547 1.68609,-1.12407 1.49875,2.81016 1.49875,4.12157 0,1.31141 0.93672,17.04832 -0.37469,21.91928 -1.31141,4.87095 -5.80767,16.86099 -5.80767,16.86099 0,0 7.49377,-16.67364 7.49377,-24.9168 0,-8.24315 -1.12407,-19.10911 0,-20.98255 1.12406,-1.87345 6.55705,-8.24315 7.86846,-16.29896 z"
       id="path3427"
       inkscape:connector-curvature="0" />
    <path
       style="fill:none;stroke:#000000;display:inline;stroke-width:0.25;stroke-miterlimit:4;stroke-dasharray:none"
       d="M 295.875 260.8125 C 295.875 260.8125 291.56141 262.12719 290.25 264.75 C 288.93859 267.37282 288.03125 270.15796 288.03125 272.21875 C 288.03125 274.27955 288.21875 274.65625 288.21875 274.65625 C 288.21875 274.65625 289.87624 268.49891 291.375 267.1875 C 292.21226 266.4549 293.36437 266.14271 294.25 266 C 295.48911 268.88964 295.5 271.28125 295.5 271.28125 C 295.5 271.28125 298.69234 273.72436 304.5 280.46875 C 310.30768 287.21315 313.6875 312.3125 313.6875 312.3125 C 313.6875 312.3125 312.37438 300.34063 311.625 296.59375 C 310.87563 292.84687 309.18346 284.21221 304.3125 276.34375 C 301.13192 271.20589 297.50087 267.71344 295.34375 265.875 C 295.3829 265.87407 295.5 265.875 295.5 265.875 L 295.875 260.8125 z "
       id="path3429" />
    <path
       style="fill:none;stroke:#000000;display:inline;stroke-width:0.25;stroke-miterlimit:4;stroke-dasharray:none"
       d="m 289.70269,248.25352 c 0,0 -12.36473,5.99501 -21.35725,6.3697 -8.99252,0.37469 -18.54709,-2.99751 -18.54709,-2.99751 0,0 8.61784,4.68361 17.61037,3.93423 8.99252,-0.74938 22.29397,-7.30642 22.29397,-7.30642 z"
       id="path3435"
       inkscape:connector-curvature="0" />
    <path
       style="fill:none;stroke:#000000;display:inline;stroke-width:0.25;stroke-miterlimit:4;stroke-dasharray:none"
       d="m 291.57613,248.25352 c 0,0 -7.86845,11.24065 -21.1699,12.73941 -13.30144,1.49875 -28.28899,-6.93174 -28.28899,-6.93174 0,0 12.55207,11.05331 26.41555,9.36721 13.86348,-1.68609 23.04334,-15.17488 23.04334,-15.17488 z"
       id="path3437"
       inkscape:connector-curvature="0" />
    <path
       style="fill:none;stroke:#000000;stroke-width:0.93947339px;stroke-linecap:butt;stroke-linejoin:miter;stroke-opacity:1;display:inline"
       d="m 295.69771,271.4842 c 0,0 3.93423,9.92925 -3.74689,10.1166 -7.68111,0.18734 -10.86596,1.87344 -13.48879,3.74688 -2.62282,1.87345 -9.17986,3.18486 -12.92676,1.31141 -3.74688,-1.87344 -7.68111,-2.43547 -12.73941,-2.43547 -5.05829,0 -7.68111,-0.93673 -8.80517,-2.99751 -1.12407,-2.06079 -1.31141,-4.12157 -1.31141,-4.12157 l -0.37469,0.93672 0,0 0,0"
       id="path3439"
       inkscape:connector-curvature="0" />
    <path
       style="font-size:medium;font-style:normal;font-variant:normal;font-weight:normal;font-stretch:normal;text-indent:0;text-align:start;text-decoration:none;line-height:normal;letter-spacing:normal;word-spacing:normal;text-transform:none;direction:ltr;block-progression:tb;writing-mode:lr-tb;text-anchor:start;baseline-shift:baseline;color:#000000;fill:none;fill-opacity:1;stroke:#000000;stroke-width:0.25;marker:none;visibility:visible;display:inline;overflow:visible;enable-background:accumulate;font-family:Sans;-inkscape-font-specification:Sans;stroke-miterlimit:4;stroke-dasharray:none"
       d="m 342.63654,202.56436 c -5.46759,0.0215 -12.01835,0.25463 -16.32335,1.11563 -4.3806,0.87612 -10.47618,4.08973 -15.53067,7.0754 -5.05449,2.98568 -9.04243,5.75428 -9.04243,5.75428 a 0.56374042,0.56374042 0 1 0 0.64589,0.91011 c 0,0 3.96845,-2.73305 8.98371,-5.69555 5.01527,-2.96251 11.09911,-6.148 15.14901,-6.95798 7.95636,-1.59126 24.03645,-0.95616 25.21899,-0.91011 a 0.56374042,0.56374042 0 0 0 1.02755,0.0587 l 0.20551,-0.38166 0.38166,-0.76332 -0.8514,-0.0293 c 0,0 -4.39688,-0.19769 -9.86447,-0.17615 z"
       id="path3468"
       inkscape:connector-curvature="0" />
    <path
       style="font-size:medium;font-style:normal;font-variant:normal;font-weight:normal;font-stretch:normal;text-indent:0;text-align:start;text-decoration:none;line-height:normal;letter-spacing:normal;word-spacing:normal;text-transform:none;direction:ltr;block-progression:tb;writing-mode:lr-tb;text-anchor:start;baseline-shift:baseline;color:#000000;fill:none;fill-opacity:1;stroke:#000000;stroke-width:0.25;marker:none;visibility:visible;display:inline;overflow:visible;enable-background:accumulate;font-family:Sans;-inkscape-font-specification:Sans;stroke-miterlimit:4;stroke-dasharray:none"
       d="m 202.71372,214.13163 c -5.65024,-0.21188 -11.37771,-0.006 -14.88478,0.96883 -6.77604,1.88223 -12.62417,4.13955 -12.62417,4.13955 a 0.56700886,0.56700886 0 1 0 0.41102,1.05691 c 0,0 5.79398,-2.24555 12.50674,-4.1102 3.23732,-0.89925 8.94206,-1.14911 14.53247,-0.93947 5.59042,0.20964 11.10703,0.88802 14.00403,1.7028 2.87818,0.80948 8.12661,3.32397 12.56546,5.63684 4.43884,2.31287 8.10295,4.43314 8.10295,4.43314 a 0.5790431,0.5790431 0 1 0 0.58718,-0.99819 c 0,0 -3.73103,-2.10924 -8.19104,-4.43314 -4.46001,-2.3239 -9.62476,-4.84831 -12.74161,-5.72492 -3.09801,-0.87131 -8.618,-1.52027 -14.26825,-1.73215 z"
       id="path3470"
       inkscape:connector-curvature="0" />
    <path
       style="fill:#000000;stroke:none;display:inline"
       d="m 230.22253,330.674 -0.45975,1.14938 c 0,0 1.99226,1.5325 3.06502,1.91564 1.07276,0.38313 2.06888,0.68962 2.06888,0.68962 0,0 -3.6014,-1.91563 -4.21439,-2.60526 -0.61301,-0.68963 -0.45976,-1.14938 -0.45976,-1.14938 z"
       id="path4361"
       inkscape:connector-curvature="0" />
    <path
       style="fill:#e6e6e6;stroke:none;display:inline"
       d="m 228.9309,243.40209 c 0.007,0.45581 0.0164,0.97668 -0.0293,1.52665 -0.0567,0.68033 -0.53035,1.37791 -0.96883,1.9083 2.547,-0.28967 5.27072,-0.87754 7.63322,-2.14317 0,0 -1.06343,-0.96753 -6.63503,-1.29178 z"
       id="path4363"
       inkscape:connector-curvature="0" />
    <path
       style="fill:none;stroke:#000000;stroke-width:0.4697367;stroke-linecap:butt;stroke-linejoin:miter;stroke-miterlimit:4;stroke-opacity:1;stroke-dasharray:none;display:inline"
       d="m 292.60958,310.54508 -2.70098,1.90831 c -0.4122,0.29585 -0.51165,0.87144 -0.23487,1.29177 -0.0894,0.0663 -0.17402,0.13899 -0.26423,0.20551 -0.007,-0.005 -0.0231,0.005 -0.0293,0 -0.21487,-0.16488 -0.49989,-0.2482 -0.76332,-0.20551 -0.12049,0.0195 -0.21268,0.0484 -0.32295,0.11744 l -4.22763,2.64227 c -0.37647,0.23582 -0.51791,0.68435 -0.38166,1.08626 -0.0949,0.0376 -0.26683,0.10722 -0.38166,0.1468 -0.13874,-0.45743 -0.57793,-0.74387 -1.05691,-0.64589 l -5.95978,1.2037 c -0.5001,0.10229 -0.82003,0.58662 -0.73396,1.08626 -0.0397,0.007 -0.0775,0.023 -0.11744,0.0293 -0.10002,-0.46585 -0.51338,-0.78917 -0.99819,-0.73397 l -5.37261,0.61653 c -0.48649,0.0554 -0.83068,0.4601 -0.82204,0.93948 -0.10244,-0.45366 -0.522,-0.77759 -0.99819,-0.73397 l -4.9616,0.46974 c -0.43826,0.0401 -0.75625,0.37639 -0.82204,0.79268 -0.01,3.4e-4 -0.0194,-3.4e-4 -0.0293,0 0,-0.52047 -0.419,-0.93947 -0.93947,-0.93947 l -4.40378,0 c -0.51027,0 -0.92349,0.40387 -0.93948,0.91011 -0.03,-0.002 -0.0582,0.002 -0.088,0 0.002,-0.46861 -0.34544,-0.87713 -0.82204,-0.93947 l -3.93405,-0.4991 c -0.47414,-0.062 -0.90713,0.22824 -1.02755,0.67525 -0.12925,-0.0255 -0.22701,-0.0622 -0.3523,-0.088 0.0892,-0.47355 -0.17431,-0.95093 -0.64589,-1.08627 l -2.49547,-0.7046 c -0.38995,0.11991 -0.7951,0.24394 -1.17435,0.3523 -5.69766,1.6279 -9.86337,0.8027 -10.18741,0.73397 l -0.11743,0.23486 c 0,0 6.7794,5.94648 11.15624,7.78002 10.44633,4.37616 25.57684,4.66438 33.02836,2.52483 12.47561,-3.5821 27.09787,-14.49782 30.56225,-17.17475 0.0754,-0.0582 0.0527,-0.0378 0.11743,-0.088 l 0.46974,-0.46974 c -3.80698,0.1472 -9.27097,0.27017 -11.94893,-0.17615 -1.64835,-0.27473 -3.35346,-0.77525 -5.07903,-1.26242 z m -58.36478,9.04243 -0.23487,0.55782 0.0293,0.0293 0.20551,-0.58717 z"
       id="path4253"
       inkscape:connector-curvature="0" />
    <path
       style="fill:none;stroke:#000000;stroke-width:0.4697367;stroke-linecap:butt;stroke-linejoin:miter;stroke-miterlimit:4;stroke-opacity:1;stroke-dasharray:none;display:inline"
       d="m 275.94579,314.20204 c 3.12942,-0.68854 3.67033,-4.235 8.32883,-4.79967 4.6585,-0.56466 9.17583,1.69401 13.41083,2.39984 4.235,0.70583 15.95183,0 15.95183,0 l -0.4235,-2.39984 c 0,0 -6.63483,0.42351 -10.44633,-0.42349 -3.8115,-0.847 -13.41083,-3.95267 -18.77516,-3.38801 -5.36434,0.56467 -8.47,2.68217 -8.47,2.68217 0,0 -2.9645,-1.694 -8.18766,-1.27049 -5.22317,0.42349 -22.72784,7.623 -26.53934,8.18766 -3.8115,0.56467 -5.64666,1.12933 -5.64666,1.12933 l -0.847,2.82333 c 0,0 4.37617,0.98817 10.30516,-0.70583 5.929,-1.694 13.26967,-4.94084 18.77516,-5.36433 5.50551,-0.4235 8.45723,2.03287 12.56384,1.12933 z"
       id="path4249"
       inkscape:connector-curvature="0"
       sodipodi:nodetypes="sssccsscssccsss" />
    <path
       style="fill:none;stroke:#000000;stroke-width:0.4697367;stroke-linecap:butt;stroke-linejoin:miter;stroke-miterlimit:4;stroke-opacity:1;stroke-dasharray:none;display:inline"
       d="m 309.82578,311.94338 c 0,0 -17.08116,13.69316 -31.33899,17.78699 -7.45153,2.13955 -22.58667,1.83517 -33.03299,-2.54099 -4.37685,-1.83355 -11.15217,-7.76417 -11.15217,-7.76417 l -1.2705,3.81149 c 0,0 7.1351,6.90474 14.25783,9.45817 7.48183,2.68217 20.46916,3.10566 27.38633,2.9645 6.91716,-0.14117 17.64583,-6.21133 23.43366,-10.164 5.78783,-3.95266 15.38716,-13.55199 15.38716,-13.55199 z"
       id="path4251"
       inkscape:connector-curvature="0"
       sodipodi:nodetypes="cssccssscc" />
    <path
       style="fill:none;stroke:#000000;stroke-width:0.93947339px;stroke-linecap:butt;stroke-linejoin:miter;stroke-opacity:1;display:inline"
       d="m 492.3381,495.98971 c -1.57425,-6.29696 -4.25994,-22.8542 -12.65588,-34.92337 -8.39595,-12.06918 -25.73692,-32.52986 -32.55862,-40.92581 -6.82172,-8.39595 -17.20046,-19.51334 -24.27808,-25.46784 -5.54026,-4.87833 -9.28641,-8.11488 -14.53387,-11.78811 -5.24747,-3.67323 -20.98514,-12.07007 -36.72754,-12.59481 -15.74241,-0.52476 -40.42671,7.86809 -40.42671,7.86809 l -1.55605,-7.86814 c -0.52772,-2.63862 -0.67673,-5.38304 -0.67525,-7.48643 -1.94842,1.05871 -3.64751,2.0668 -4.93224,2.99457 -8.2981,5.99255 -25.03431,15.05946 -38.22482,16.55822 -9.05828,1.02924 -11.01458,1.70426 -20.75649,0.20551 -9.7419,-1.49875 -20.97007,-8.98077 -27.71446,-11.97829 -0.14155,-0.0629 -0.31697,-0.14063 -0.46974,-0.20551 0.32258,1.52654 1.70805,8.85578 -0.64589,13.56365 -2.62373,5.24747 -36.19998,12.59883 -48.7939,17.32154 -12.59392,4.72273 -25.71838,23.0693 -29.91635,34.61372 -0.27793,0.76429 -0.42342,1.76704 -0.44038,2.93586 -8.41486,15.86025 -18.26102,47.59445 -18.26102,57.80697 0,10.57559 0.67525,42.98091 0.67525,42.98091 0,0 -11.24025,11.87105 -17.84999,19.14177 -6.60974,7.27072 -23.809785,40.33294 -23.809785,49.58658 0,9.25364 -4.58442,28.74421 -4.58442,28.74421 m 28.789655,14.53248 c 0,0 5.18486,-3.38647 11.03069,-7.84702 m 25.33661,-33.09841 c 6.36117,-12.63575 17.74852,-36.03243 18.07901,-39.99827 0.66097,-7.93169 5.31145,-7.29194 9.2773,-13.24071 2.53526,-3.80289 5.32264,-15.1062 7.01669,-22.81158 4.69,11.98432 10.28397,30.54404 15.25475,44.58325 m 183.26958,-0.9318 c 0,0 4.41283,-86.60936 5.75241,-108.12281 2.72444,3.37496 5.61528,6.42487 8.66077,8.7782 11.54443,8.92069 35.68546,22.02262 37.78445,22.54736"
       id="path4486"
       inkscape:connector-curvature="0"
       sodipodi:nodetypes="csscsscccsssccssscscssccccssccccsc" />
    <path
       style="fill:#000000;stroke:none;display:inline"
       d="m 437.28726,502.24091 c 0,0 13.05425,1.32195 16.68961,1.81768 3.63535,0.49573 17.76368,4.79207 17.76368,4.79207 0,0 -7.43596,-4.13109 -10.74083,-4.95731 -3.30487,-0.82622 -8.92315,-2.06555 -8.92315,-2.06555 0,0 9.08839,0.41311 12.55851,1.56982 3.47011,1.1567 10.16248,4.29633 10.16248,4.29633 0,0 -3.88323,-4.04847 -8.84053,-5.53566 -4.95731,-1.4872 -11.15394,-2.47866 -11.15394,-2.47866 0,0 10.49296,1.40458 13.54997,1.56981 3.057,0.16525 7.27072,-0.99145 7.27072,-0.99145 0,0 -6.11402,0.57835 -12.64114,-0.33049 -6.52712,-0.90884 -8.3448,-1.48719 -8.3448,-1.48719 0,0 6.4445,-0.41311 11.07132,-1.65243 4.62682,-1.23934 5.03993,-2.31342 5.03993,-2.31342 0,0 -24.78653,4.37896 -28.83501,4.5442 -4.04846,0.16524 -4.04846,0.0826 -4.04846,0.0826 l 3.8006,1.81769 z"
       id="path4581"
       inkscape:connector-curvature="0" />
    <path
       style="fill:#000000;stroke:none;display:inline"
       d="m 186.12614,518.08063 c 2.64825,13.12877 4.52122,23.45747 4.52122,23.45747 l 2.23125,-7.13412 c 0,0 -2.56949,-8.69218 -4.63865,-15.70682 l -2.11382,-0.61653 z"
       id="path4793"
       inkscape:connector-curvature="0" />
    <path
       style="fill:#ffffff;stroke:#000000;stroke-width:0.93947339px;stroke-linecap:butt;stroke-linejoin:miter;stroke-opacity:1;display:inline"
       d="m 292.82654,631.00462 c 0,0 -26.29807,-32.01505 -52.02446,-33.15844 -25.72638,-1.14339 -50.30937,0 -63.45841,3.43018 -13.14904,3.43019 -45.7358,23.4396 -45.7358,53.73956 0,30.29996 41.16222,60.59992 63.45842,69.17538 22.2962,8.57546 83.46782,21.7245 120.62814,21.7245 37.16034,0 73.74897,-20.58111 97.18856,-31.44335 23.43959,-10.86225 53.73955,-33.73015 53.73955,-54.31126 0,-20.5811 6.86038,-32.01505 11.43396,-38.87542 4.57357,-6.86037 6.86036,-17.15092 -5.71698,-3.43019 -12.57734,13.72074 -16.00753,42.30561 -22.2962,46.87919 -6.28867,4.57358 -26.86978,16.00753 -37.16033,17.15092 -10.29055,1.1434 -12.57734,2.28679 -12.57734,2.28679 l 1.1434,-0.57169"
       id="path5036-7"
       inkscape:connector-curvature="0"
       sodipodi:nodetypes="cssssssssssscc" />
    <path
       style="color:#000000;fill:none;stroke:#000000;stroke-width:1.17434168;stroke-miterlimit:4;stroke-dasharray:none;marker:none;visibility:visible;display:inline;overflow:visible;enable-background:accumulate"
       d="m 346.30636,458.95252 c -22.44102,0 -47.68914,4.60887 -60.88962,10.36357 3.72146,1.88602 6.25337,5.72991 6.25337,10.18741 0,2.77761 -0.96596,5.32922 -2.61291,7.31028 14.20938,5.09528 37.88516,8.48462 58.59965,8.48462 32.12405,0 44.91857,-8.13417 44.91857,-18.17294 0,-10.03876 -14.14501,-18.17294 -46.26906,-18.17294 z"
       id="path4584"
       inkscape:connector-curvature="0" />
    <path
       style="color:#000000;fill:none;stroke:#000000;stroke-width:1.17434168;stroke-miterlimit:4;stroke-dasharray:none;marker:none;visibility:visible;display:inline;overflow:visible;enable-background:accumulate"
       d="m 354.46803,442.042 c -6.96289,-0.0418 -14.52797,0.59178 -22.42992,2.02574 -23.86813,4.33131 -43.6282,14.88306 -51.11323,24.04465 6.00023,0.34971 10.74523,5.30318 10.74523,11.39111 0,6.29517 -5.07403,11.41815 -11.36176,11.44983 7.08167,8.97272 28.64624,18.86243 54.22523,21.43174 31.96321,3.21058 57.80698,-6.27996 59.09875,-16.23528 0.7426,-5.72302 -0.23785,-9.77401 -2.96521,-12.7416 -0.005,-0.005 0.005,-0.0244 0,-0.0293 1.29495,-1.94879 1.9083,-4.05739 1.9083,-6.25337 0,-2.72077 -1.0458,-5.28652 -3.20008,-7.60387 3.20399,-3.31669 4.17556,-7.6971 2.84778,-13.97466 -1.55802,-7.36612 -16.86639,-13.37939 -37.75509,-13.50493 z"
       id="path4584-1"
       inkscape:connector-curvature="0" />
    <path
       style="color:#000000;fill:none;stroke:#000000;stroke-width:1.17434168;stroke-miterlimit:4;stroke-dasharray:none;marker:none;visibility:visible;display:inline;overflow:visible;enable-background:accumulate"
       d="m 243.66889,467.40778 c -9.51434,0.05 -19.68372,0.7757 -29.15303,2.26061 -30.30179,4.75171 -42.39106,14.27389 -40.8671,23.45747 1.52395,9.18359 14.85167,14.73362 45.15344,9.98191 19.04391,-2.98633 40.23527,-9.33104 52.99217,-15.91233 -1.84972,-2.03142 -2.96521,-4.72809 -2.96521,-7.69194 0,-3.86527 1.90803,-7.26645 4.84416,-9.33602 -7.36701,-1.8513 -18.18101,-2.82183 -30.00443,-2.7597 z"
       id="path4584-0"
       inkscape:connector-curvature="0" />
    <path
       style="color:#000000;fill:none;stroke:#000000;stroke-width:1.17434168;stroke-miterlimit:4;stroke-dasharray:none;marker:none;visibility:visible;display:inline;overflow:visible;enable-background:accumulate"
       d="m 222.88304,453.90285 c -6.61321,0.0221 -12.87192,0.56263 -18.61332,1.49729 -19.68469,3.20466 -33.20539,10.969 -33.55681,17.93807 -0.29947,5.93918 1.28908,9.79973 4.8148,12.35994 -1.68028,2.43861 -2.29198,4.93872 -1.87895,7.42771 0.33337,2.00892 1.24237,3.8401 2.75971,5.43134 -0.003,0.005 0.004,0.0238 0,0.0293 -2.12216,3.11821 -2.42066,6.97006 -0.8514,12.09572 2.72977,8.91617 28.52597,13.77158 58.18863,6.10657 22.247,-5.74875 40.19469,-16.87156 46.7388,-25.86487 -0.0788,0.002 -0.15564,0.0293 -0.23486,0.0293 -6.3148,0 -11.42048,-5.13504 -11.42048,-11.44983 0,-5.41798 3.74886,-9.94726 8.80756,-11.12689 -8.43751,-7.28151 -28.71328,-14.01221 -51.9059,-14.4444 -0.95892,-0.0179 -1.90303,-0.0325 -2.84778,-0.0293 z"
       id="path4584-1-4"
       inkscape:connector-curvature="0" />
    <path
       sodipodi:type="arc"
       style="color:#000000;fill:none;stroke:#000000;stroke-width:1.25;stroke-miterlimit:4;stroke-dasharray:none;marker:none;visibility:visible;display:inline;overflow:visible;enable-background:accumulate"
       id="path4808"
       sodipodi:cx="362.07513"
       sodipodi:cy="504.077"
       sodipodi:rx="12.170592"
       sodipodi:ry="12.170592"
       d="m 374.24573,504.077 a 12.170592,12.170592 0 1 1 -24.34119,0 12.170592,12.170592 0 1 1 24.34119,0 z"
       transform="matrix(0.93947339,0,0,0.93947339,-59.910753,5.9378967)" />
    <path
       style="opacity:1;fill:#ffffff;stroke:#000000;stroke-width:1.28831886999999989px;stroke-linecap:butt;stroke-linejoin:miter;stroke-opacity:1;display:inline"
       d="m 463.79833,636.43532 c 0,0 40.99201,-15.77399 73.61421,-9.39009 32.62221,6.3839 64.77004,16.59384 88.15362,1.61318 23.38356,-14.98069 52.59335,-69.17796 62.80957,-81.6107 10.21622,-12.43275 38.30822,-12.26728 38.30822,-12.26728 0,0 -29.21245,-28.70228 -54.57609,-30.14253 -25.36365,-1.44024 -61.79665,-5.59304 -94.31401,20.86405 -32.51735,26.45709 -96.96631,81.12508 -102.26704,91.48638 -5.30076,10.36131 -11.72848,19.44699 -11.72848,19.44699 z"
       id="path4978"
       inkscape:connector-curvature="0" />
    <path
       style="opacity:1;fill:none;stroke:#000000;stroke-width:0.93947338999999996px;stroke-linecap:butt;stroke-linejoin:miter;stroke-opacity:1;display:inline"
       d="m 392.30188,601.27636 c 2.2868,15.43583 19.43771,50.88106 14.86414,61.74332 -2.28679,5.43112 -2.00094,10.86225 -5.2882,19.79502"
       id="path4961-6"
       inkscape:connector-curvature="0"
       sodipodi:nodetypes="csc" />
    <path
       style="opacity:0.53333285;fill:none;stroke:#999999;stroke-width:0.93947339px;stroke-linecap:butt;stroke-linejoin:miter;stroke-opacity:1;display:inline"
       d="m 467.31726,633.9539 c 0,0 71.91086,-61.83411 98.20894,-82.41521 26.29807,-20.58111 97.18855,-48.02258 97.18855,-48.02258 l 0,0 0,0 0,0 0,0 0,0 0,0"
       id="path5038"
       inkscape:connector-curvature="0"
       sodipodi:nodetypes="csccccccc" />
    <path
       style="opacity:0.53333285;fill:none;stroke:#999999;stroke-width:0.93947339px;stroke-linecap:butt;stroke-linejoin:miter;stroke-opacity:1;display:inline"
       d="m 467.19558,633.90851 c 21.80301,-9.26132 40.18719,-19.11465 63.6955,-23.0973 22.96229,-1.03785 46.71357,2.23144 69.00559,-4.71498 10.83126,-4.60275 17.82209,-14.70939 25.97041,-22.778 14.0483,-15.14637 26.50355,-32.12434 42.79687,-44.9547 12.92851,-7.05433 27.7687,-9.26032 41.73081,-13.47736 l 1.59988,-0.39711 1.60118,-0.39185"
       id="path5040"
       inkscape:connector-curvature="0"
       sodipodi:nodetypes="cccccccc" />
    <path
       style="opacity:0.53333285;fill:none;stroke:#999999;stroke-width:0.93947339px;stroke-linecap:butt;stroke-linejoin:miter;stroke-opacity:1;display:inline"
       d="m 467.19424,633.86311 c 0,0 58.31314,-36.58863 73.17728,-41.16221 14.86413,-4.57358 77.75083,-38.87542 95.47345,-52.59616 17.72262,-13.72074 57.16974,-29.72827 57.16974,-29.72827"
       id="path5046"
       inkscape:connector-curvature="0" />
    <path
       style="opacity:1;fill:none;stroke:#000000;stroke-width:1;stroke-linecap:butt;stroke-linejoin:miter;stroke-opacity:1;display:inline;stroke-miterlimit:4;stroke-dasharray:none"
       d="m 402.02075,683.60079 c 0,0 -18.29432,2.28679 -47.45089,-3.43019 -29.15656,-5.71698 -76.60745,-15.43583 -81.75273,-17.15092 -5.14527,-1.7151 -19.43771,-8.00376 -19.43771,-8.00376 l 0,0"
       id="path5052"
       inkscape:connector-curvature="0" />
    <path
       style="fill:#ffffff;stroke:none;display:inline"
       d="m 410.39606,507.24732 c -9.65284,3.41189 -36.91371,32.19681 -38.50649,33.23665 0,0 -5.79635,1.76655 -10.43032,-9.98084 -2.90383,-7.36136 -8.75393,-15.93146 -10.30873,-16.70885 -4.7283,-2.36414 -21.09886,-2.27169 -33.87976,0.79268 -6.39045,1.53219 -10.1513,0.37784 -12.85904,3.46431 l 0.17615,0.0587 c -5.84235,0.53129 -11.28076,2.47319 -15.35452,6.54695 -4.76436,4.76436 4.57993,8.02493 4.57993,10.86266 0,0.88739 -11.67679,2.98103 -9.15986,8.01488 0.96534,1.93071 5.36133,5.05531 4.02212,5.72492 -12.0459,6.02294 2.28996,13.62641 2.28996,14.85542 0,5.96257 -3.51964,13.15263 6.28273,13.15263 0,0 23.59992,5.72492 31.03198,5.72492 7.43207,0 17.70955,1.71349 22.28314,-1.14499 2.00441,-1.25276 4.09956,-2.81603 5.84235,-4.19827 0.8436,0.29195 1.84143,0.44038 3.08264,0.44038 11.54443,0 33.08797,1.58877 45.6819,-2.08446 12.59392,-3.67323 55.08463,-15.76243 64.53008,-23.63362 9.44543,-7.8712 18.87784,-27.2818 23.07581,-32.52927 M 372.4061,539.83529 c -0.0382,0.0343 -0.0796,0.0837 -0.11743,0.11743 l 0,-0.0587 z m -0.26422,0.14679 0.0587,0.0587 c -0.0336,0.0301 -0.0845,0.0587 -0.11743,0.088 z"
       id="path5055-5"
       inkscape:connector-curvature="0"
       sodipodi:nodetypes="ccsssccssssscsscsssccccccccc" />
    <path
       style="fill:none;stroke:#000000;stroke-width:0.93947339px;stroke-linecap:butt;stroke-linejoin:miter;stroke-opacity:1;display:inline"
       d="m 371.72079,541.24814 c -2.97263,-1.90727 -6.45539,-2.62022 -8.00377,-5.71697 -3.10256,-6.20511 -6.65431,-18.763 -12.57734,-21.72451 -4.7283,-2.36414 -21.07736,-2.27691 -33.85827,0.78746 -6.39045,1.53219 -10.17376,0.37847 -12.8815,3.46494"
       id="path5055"
       inkscape:connector-curvature="0"
       sodipodi:nodetypes="csssc" />
    <path
       style="color:#000000;fill:#ffffff;stroke:#000000;stroke-width:1;stroke-linecap:round;stroke-linejoin:miter;stroke-miterlimit:4;stroke-opacity:1;stroke-dasharray:none;stroke-dashoffset:0;marker:none;visibility:visible;display:inline;overflow:visible;enable-background:accumulate"
       d="m 312.25045,433.93904 c -0.66992,1.52093 -11.39112,31.41364 -11.39112,31.41364 -2.42014,12.51958 5.88998,24.70183 18.67204,27.30345 l 1.29177,0.23487 c -0.0166,0.0763 -0.0732,0.15774 -0.088,0.23486 l -4.90287,25.48322 c 6.22031,1.02164 12.23788,3.10969 16.99859,5.49005 1.93166,0.96583 0.71599,-2.92688 1.73216,-3.43495 1.39721,-0.6986 2.97901,-0.97477 4.63865,-1.08627 l 4.25699,-22.10698 c 0.024,-0.12507 0.0104,-0.22753 0.0293,-0.3523 11.11583,0.1187 21.13663,-8.29212 24.74925,-26.9805 4.08127,-21.11263 -2.94097,-25.0183 -2.99457,-26.68692 l -1.58536,-0.29359 -8.36719,26.89243 -0.76332,-28.50715 -3.14136,-0.58717 -9.36538,29.91636 -0.82204,-31.73659 -3.31751,-0.58717 -9.30666,29.82828 -0.82204,-31.64851 -3.22944,-0.58717 -8.98372,28.77137 -0.79268,-30.53288 -2.49547,-0.44038 z"
       id="rect4531"
       inkscape:connector-curvature="0" />
    <path
       style="fill:#000000;stroke:none;display:inline"
       d="m 147.07928,544.00422 c 0,0 11.83689,8.25882 17.64449,10.71587 5.80759,2.45706 8.48462,4.25699 8.48462,4.25699 0,0 -15.63173,-3.58445 -19.87574,-6.48824 -4.24401,-2.9038 -8.24975,-5.81299 -8.24975,-5.81299 0,0 8.48488,8.0418 13.62237,10.27549 3.63232,1.57927 15.30203,4.2221 21.96019,5.6662 0.76818,-0.64007 1.56791,-1.32384 2.4074,-2.11382 -3.67553,-1.31473 -8.16892,-2.96993 -12.09572,-4.66801 -8.26465,-3.57389 -23.89786,-11.83149 -23.89786,-11.83149 z"
       id="path4771"
       inkscape:connector-curvature="0" />
    <path
       style="fill:none;stroke:#000000;stroke-width:1.04863536px;stroke-linecap:butt;stroke-linejoin:miter;stroke-opacity:1;display:inline"
       d="m 116.84606,642.01404 c 5.105,5.105 5.105,14.6769 10.21,19.14377 5.10501,4.46689 3.82876,15.95313 5.74314,23.61065 1.91438,7.6575 4.46688,24.88689 -1.27625,25.52502 -5.74314,0.63813 -17.86752,-5.105 -16.59127,-8.93375 1.27625,-3.82876 -4.46689,-29.9919 -4.46689,-29.9919 0,0 -21.696275,21.05813 -29.991905,26.80127 -8.29564,5.74313 -23.61065,19.78189 -28.07752,22.97252 -4.46689,3.19063 -12.1244,-3.82875 -5.74314,-10.84814 6.38125,-7.01938 14.67689,-17.2294 19.7819,-21.69626 5.105,-4.46689 19.78189,-21.05815 22.33439,-25.52503 2.5525,-4.46688 11.486275,-4.46688 11.486275,-4.46688 l -2.552515,0"
       id="path5113"
       inkscape:connector-curvature="0"
       sodipodi:nodetypes="csssscssssscc" />
    <path
       style="fill:none;stroke:#000000;stroke-width:1.04863536px;stroke-linecap:butt;stroke-linejoin:miter;stroke-opacity:1;display:inline"
       d="m 44.737845,718.58912 c 0,0 -0.63813,-0.63813 -4.46688,3.19063 -3.82876,3.82874 -14.74109,-9.53332 -7.01939,-17.86752 11.48795,-12.39919 17.2294,-18.50564 23.61066,-24.88691 6.38126,-6.38124 15.31501,-24.88689 21.05815,-25.52502 5.74313,-0.63811 6.38126,-0.63811 6.38126,-0.63811"
       id="path5119"
       inkscape:connector-curvature="0"
       sodipodi:nodetypes="cssssc" />
    <path
       style="fill:none;stroke:#000000;stroke-width:1.04863536px;stroke-linecap:butt;stroke-linejoin:miter;stroke-opacity:1;display:inline"
       d="m 99.533045,635.63279 c 0,0 -30.54642,7.01938 -35.0133,8.93375 -4.46688,1.91439 -13.40064,10.21002 -22.3344,12.1244 -8.93376,1.91437 -19.51911,4.03143 -20.15724,8.49832 -0.63812,4.46688 3.82875,4.46688 3.82875,4.46688 0,0 9.30911,-1.47894 15.05223,-2.7552 5.74314,-1.27624 14.51554,-2.34292 14.51554,-2.34292"
       id="path5123"
       inkscape:connector-curvature="0"
       sodipodi:nodetypes="cssscsc" />
    <path
       style="fill:none;stroke:#000000;stroke-width:1.04863536px;stroke-linecap:butt;stroke-linejoin:miter;stroke-opacity:1;display:inline"
       d="m 51.712145,683.72494 c 0,0 -15.12733,8.68599 -18.95608,11.2385 -3.82875,2.55251 -8.93376,-6.38125 -3.19063,-11.48626 5.74313,-5.10501 13.40064,-13.40063 19.7819,-15.95313 6.38125,-2.5525 10.80957,-7.77733 10.80957,-7.77733"
       id="path5125"
       inkscape:connector-curvature="0"
       sodipodi:nodetypes="csssc" />
    <path
       style="fill:none;stroke:#000000;stroke-width:0.93947339px;stroke-linecap:butt;stroke-linejoin:miter;stroke-opacity:1;display:inline"
       d="m 298.84887,610.19672 c 0,0 36.34752,-18.45336 55.91927,-24.88408 19.57174,-6.43071 55.36006,-10.62466 57.31724,-1.67757 1.95718,8.94707 21.52892,22.6473 -1.39798,20.69012 -22.9269,-1.95717 -34.94954,-6.43071 -46.1334,-5.31232 -11.18385,1.11837 -65.70513,11.18385 -65.70513,11.18385 z"
       id="path5394"
       inkscape:connector-curvature="0" />
    <path
       style="fill:none;stroke:#000000;stroke-width:0.93947339px;stroke-linecap:butt;stroke-linejoin:miter;stroke-opacity:1;display:inline"
       d="m 200.89349,578.00141 c -7.05367,-0.008 -12.68294,1.80573 -14.15082,7.31028 -1.47167,5.51881 0.58991,10.02562 4.75609,13.2407 l 2.58355,-0.41102 c 5.14032,-0.79082 37.96361,-1.18808 45.47638,-0.79268 5.89015,0.31002 15.9005,4.02257 23.95658,8.66077 14.57096,1.15117 28.32608,2.55091 35.34768,3.64046 0,0 -55.65865,-22.93473 -69.63846,-26.56948 -7.86365,-2.04455 -19.262,-5.0692 -28.331,-5.07903 z"
       id="path5396"
       inkscape:connector-curvature="0" />
    <path
       style="fill:none;stroke:#000000;stroke-width:1;stroke-linecap:butt;stroke-linejoin:miter;stroke-opacity:1;display:inline;stroke-miterlimit:4;stroke-dasharray:none"
       d="m 344.83843,519.5192 c -3.54718,0.0307 -7.33018,-0.32767 -10.27549,1.14498 -1.01616,0.50807 0.19951,4.40078 -1.73215,3.43495 -12.21488,-6.10743 -32.73407,-10.30556 -43.59744,0.55781 -4.76436,4.76436 4.57993,8.02493 4.57993,10.86266 0,0.88739 -11.67679,2.98103 -9.15986,8.01488 0.96534,1.93071 5.36133,5.05531 4.02212,5.72492 -12.0459,6.02294 2.28996,13.62641 2.28996,14.85542 0,5.96257 -3.51964,13.15263 6.28273,13.15263 0,0 23.59992,5.72492 31.03198,5.72492 7.43207,0 17.70955,1.71349 22.28314,-1.14499 2.00441,-1.25276 4.09956,-2.81603 5.84235,-4.19827 0.8436,0.29195 1.84143,0.44038 3.08264,0.44038 11.54443,0 33.08797,1.58877 45.6819,-2.08446 12.59392,-3.67323 55.08463,-15.76243 64.53008,-23.63362 9.44543,-7.8712 18.87784,-27.2818 23.07581,-32.52927 4.19797,-5.24747 7.61121,-17.48842 2.11382,-20.99136 -2.13205,-1.35853 -1.94731,-1.87896 -2.70773,-2.99668 m -47.61282,4.78755 c -7.41205,0.9839 -28.4757,4.19736 -34.17334,6.60567 -10.68654,4.51705 -29.77617,25.26678 -38.10739,32.70542 l 0,-0.41102 -0.14679,0.44038 0.0587,0.0587 c -0.0336,0.0301 -0.0845,0.0587 -0.11743,0.088 l 0.0587,-0.14675"
       id="path4521-5"
       inkscape:connector-curvature="0"
       sodipodi:nodetypes="cssssssscsscsssssccscccccc" />
    <path
       style="fill:none;stroke:#000000;stroke-width:1;stroke-linecap:butt;stroke-linejoin:miter;stroke-miterlimit:4;stroke-opacity:1;stroke-dasharray:none;display:inline"
       d="m 234.30163,319.14287 c 0,0 4.37617,0.98817 10.30516,-0.70583 5.929,-1.694 13.26967,-4.94084 18.77516,-5.36433 5.50551,-0.4235 8.45723,2.03287 12.56384,1.12933 3.12942,-0.68854 3.67033,-4.235 8.32883,-4.79967 4.6585,-0.56466 9.17583,1.69401 13.41083,2.39984 4.235,0.70583 15.95183,0 15.95183,0"
       id="path4249-8"
       inkscape:connector-curvature="0"
       sodipodi:nodetypes="csssssc" />
    <path
       style="fill:none;stroke:#000000;stroke-width:1;stroke-linecap:butt;stroke-linejoin:miter;stroke-miterlimit:4;stroke-opacity:1;stroke-dasharray:none;display:inline"
       d="m 313.49611,311.94338 -3.67033,0 c 0,0 -17.08116,13.69316 -31.33899,17.78699 -7.45153,2.13955 -22.58667,1.83517 -33.03299,-2.54099 -4.37685,-1.83355 -11.15217,-7.76417 -11.15217,-7.76417"
       id="path4251-6"
       inkscape:connector-curvature="0"
       sodipodi:nodetypes="ccssc" />
    <g
       style="display:inline"
       id="g6167"
       transform="matrix(0.60289877,-0.93130003,0.93130003,0.60289877,-53.632621,204.94061)">
      <path
         transform="translate(-9.4522247,-0.62138367)"
         d="m 185.55113,127.46513 c 0,3.46511 -7.52952,6.27414 -16.81766,6.27414 -9.28813,0 -16.81765,-2.80903 -16.81765,-6.27414 0,-3.46511 7.52952,-6.27413 16.81765,-6.27413 9.28814,0 16.81766,2.80902 16.81766,6.27413 z"
         sodipodi:ry="6.274138"
         sodipodi:rx="16.817659"
         sodipodi:cy="127.46513"
         sodipodi:cx="168.73347"
         id="path6164"
         style="color:#000000;fill:#ffffff;stroke:#000000;stroke-width:1.25;stroke-linecap:round;stroke-linejoin:miter;stroke-miterlimit:4;stroke-opacity:1;stroke-dasharray:none;stroke-dashoffset:0;marker:none;visibility:visible;display:inline;overflow:visible;enable-background:accumulate"
         sodipodi:type="arc" />
      <path
         id="path6123"
         d="m 146.8125,113.71875 c -2.21732,0 -4.29313,0.63802 -6.09375,1.71875 5.09478,0.85283 9.03125,5.83365 9.03125,11.875 0,5.54952 -3.32615,10.2089 -7.8125,11.59375 1.4928,0.67529 3.14918,1.0625 4.875,1.0625 6.84317,0 12.375,-5.87588 12.375,-13.125 0,-7.24912 -5.53183,-13.125 -12.375,-13.125 z m 24.9375,0 c -6.84317,0 -12.375,5.87588 -12.375,13.125 0,7.24912 5.53183,13.125 12.375,13.125 1.72582,0 3.3822,-0.38721 4.875,-1.0625 -4.48635,-1.38485 -7.8125,-6.04423 -7.8125,-11.59375 0,-6.04135 3.93647,-11.02217 9.03125,-11.875 -1.80062,-1.08073 -3.87643,-1.71875 -6.09375,-1.71875 z"
         style="color:#000000;fill:#ffffff;fill-opacity:1;fill-rule:nonzero;stroke:#000000;stroke-width:1.25;marker:none;visibility:visible;display:inline;overflow:visible;enable-background:accumulate"
         inkscape:connector-curvature="0" />
    </g>
    <path
       style="display:inline;color:#000000;fill:#ffffff;fill-opacity:1;fill-rule:nonzero;stroke:#000000;stroke-width:1.25000000000000000;stroke-linecap:round;stroke-linejoin:miter;stroke-miterlimit:4;stroke-opacity:1;stroke-dasharray:none;stroke-dashoffset:0;marker:none;visibility:visible;overflow:visible;enable-background:accumulate"
       d="m 334.20303,81.503965 c -4.08051,-3.961314 -10.57697,-3.865026 -14.53829,0.21548 -3.96131,4.080506 -3.88679,10.599392 0.19372,14.560712 0.64144,0.6227 1.35792,1.13759 2.10047,1.56003 -1.21311,0.68797 -2.34412,1.56224 -3.36459,2.613413 -5.77648,5.9503 -5.65768,15.45681 0.29261,21.2333 5.9503,5.77649 15.47858,5.63526 21.25507,-0.31504 1.02046,-1.05117 1.83841,-2.22936 2.49012,-3.46233 0.44566,0.73435 0.97652,1.42708 1.6216,2.05332 4.08051,3.96132 10.62116,3.86437 14.58248,-0.21613 3.96131,-4.08051 3.8426,-10.59874 -0.2379,-14.56006 -4.08051,-3.96131 -10.57698,-3.86502 -14.53829,0.21548 -0.1821,0.18758 -0.3568,0.38492 -0.52176,0.58232 -0.74338,-2.14848 -1.99047,-4.15355 -3.73305,-5.84524 -1.73551,-1.684803 -3.77114,-2.855703 -5.93089,-3.536413 0.19214,-0.17052 0.38476,-0.35148 0.5666,-0.53879 3.96132,-4.0805 3.84261,-10.598738 -0.2379,-14.560052 z"
       id="path6171"
       inkscape:connector-curvature="0" />
  </g>
  <path
     style="fill:none;stroke:#000000;stroke-width:1px;stroke-linecap:butt;stroke-linejoin:miter;stroke-opacity:1"
     d="m 153.93375,118.17164 c 0,0 -6.04245,-3.37532 -31.76411,9.77357 -25.129893,12.84637 -47.905272,49.07522 -47.905272,73.50915 0,22.61611 7.009466,35.0788 9.000747,48.04615 1.99128,12.96735 -1.035625,26.43935 -1.035625,26.43935 0,0 10.583715,-12.23552 7.450453,-26.87645 C 87.828695,240.413 86.933,232.19664 86.933,232.19664 c 0,0 6.953762,26.94552 10.802715,33.39304 4.375875,7.33018 18.525315,15.89686 18.525315,15.89686 0,0 -11.70605,-17.163 -14.45299,-28.11383 -2.377962,-9.47987 -2.658075,-21.41305 -2.658075,-21.41305 0,0 5.157625,17.07835 8.359325,25.48537 3.5614,9.35153 15.47482,26.87733 15.47482,26.87733 0,0 -7.33018,-26.06286 -8.95911,-38.27983 -1.62893,-12.21696 -9.77357,-47.23893 0,-70.04393 9.77357,-22.805 25.6826,-37.49875 25.6826,-37.49875"
     id="path6295"
     inkscape:connector-curvature="0"
     sodipodi:nodetypes="cssscscscscscssc" />
</svg>
